<?xml version="1.0" encoding="UTF-8" standalone="no"?>
<svg width="247px" height="132px" viewBox="0 0 247 132" version="1.1" xmlns="http://www.w3.org/2000/svg" xmlns:xlink="http://www.w3.org/1999/xlink" xmlns:sketch="http://www.bohemiancoding.com/sketch/ns">
    <!-- Generator: Sketch 3.4.4 (17249) - http://www.bohemiancoding.com/sketch -->
    <title>Group</title>
    <desc>Created with Sketch.</desc>
    <defs></defs>
    <g id="Website" stroke="none" stroke-width="1" fill="none" fill-rule="evenodd" sketch:type="MSPage">
        <g id="Mobile-Portrait" sketch:type="MSArtboardGroup" transform="translate(-36.000000, -42.000000)" fill="#FFFFFF">
            <g id="Group" sketch:type="MSLayerGroup" transform="translate(36.000000, 42.000000)">
                <g id="Højre-streg" transform="translate(141.000000, 50.000000)" sketch:type="MSShapeGroup">
                    <path d="M105.211,1.5461 C105.366,1.5641 105.31,1.3551 105.333,1.3171 C105.075,1.3641 105.218,1.6001 105.211,1.5461" id="Fill-1"></path>
                    <path d="M102.6601,2.0217 L102.7051,1.9367 L102.3291,2.1457 L102.6601,2.0217 Z" id="Fill-4"></path>
                    <path d="M100.2747,2.0178 C100.4997,2.3748 101.1387,1.9598 101.5637,2.0868 L101.6337,2.1688 L101.8257,1.8818 C101.3097,1.9268 100.6387,2.1178 100.2747,2.0178" id="Fill-6"></path>
                    <path d="M99.0028,1.2458 C99.0808,1.3848 98.7278,1.3658 99.2998,1.2888 C99.2708,1.2738 99.2628,1.2658 99.2458,1.2538 C99.1938,1.2558 99.1238,1.2558 99.0028,1.2458" id="Fill-8"></path>
                    <path d="M99.2457,1.2541 C99.4967,1.2441 99.0817,1.1371 99.2457,1.2541" id="Fill-10"></path>
                    <path d="M98.0856,1.3337 L98.4166,1.2097 C98.3476,1.1277 98.0526,1.1087 98.1626,1.0497 C97.8226,1.1177 97.8926,1.1987 98.0856,1.3337" id="Fill-12"></path>
                    <path d="M97.7719,1.5942 L97.9429,1.5422 C97.9129,1.5072 97.8679,1.4952 97.7719,1.5942" id="Fill-14"></path>
                    <path d="M98.307,1.4309 L97.943,1.5419 C97.991,1.5989 97.996,1.7149 98.11,1.5019 C98.081,1.6069 98.152,1.5059 98.307,1.4309" id="Fill-16"></path>
                    <path d="M98.5128,1.4853 C98.6988,1.5633 98.9378,1.6123 98.6058,1.7353 C99.2388,1.6863 99.1458,1.4353 98.5128,1.4853" id="Fill-18"></path>
                    <path d="M100.1529,2.3869 L100.4009,2.4909 L100.6159,2.3719 C100.5089,2.4309 100.1379,2.2749 100.1529,2.3869" id="Fill-20"></path>
                    <path d="M96.0242,1.1489 C96.0032,1.2249 96.1352,1.3509 96.1602,1.4489 L96.4042,1.3609 C96.2792,1.3089 96.0412,1.2619 96.0242,1.1489" id="Fill-22"></path>
                    <path d="M96.1602,1.4484 L95.7942,1.5784 C96.1212,1.5944 96.1812,1.5324 96.1602,1.4484" id="Fill-24"></path>
                    <path d="M97.7129,1.9904 L98.3139,1.7164 L97.5969,1.9944 L97.7129,1.9904 Z" id="Fill-26"></path>
                    <path d="M94.6276,1.1394 L94.8346,0.9634 L94.4656,1.2294 L94.6276,1.1394 Z" id="Fill-28"></path>
                    <path d="M93.7011,1.1701 C93.8541,1.0241 93.4911,0.9241 93.6531,0.8341 C93.4011,0.8601 93.1861,0.9851 92.9931,1.0971 C93.1981,1.0351 93.4181,1.0511 93.7011,1.1701" id="Fill-30"></path>
                    <path d="M92.6681,1.2614 C92.7711,1.2264 92.8771,1.1644 92.9931,1.0974 C92.8841,1.1314 92.7761,1.1794 92.6681,1.2614" id="Fill-32"></path>
                    <path d="M95.1716,1.5412 C95.1436,1.4952 95.0886,1.3752 94.8836,1.3242 L95.0276,1.5382 C95.0716,1.5392 95.1216,1.5402 95.1716,1.5412" id="Fill-34"></path>
                    <path d="M95.0326,1.5449 L95.0276,1.5379 C94.8716,1.5339 94.7636,1.5289 94.7166,1.5259 C94.7566,1.5279 94.8516,1.5339 95.0326,1.5449" id="Fill-36"></path>
                    <path d="M95.2078,1.5422 C95.1948,1.5422 95.1848,1.5412 95.1718,1.5412 C95.1858,1.5622 95.1938,1.5692 95.2078,1.5422" id="Fill-38"></path>
                    <path d="M96.7542,1.7971 C96.5392,1.9161 96.0912,2.0451 96.5252,2.2271 C96.6792,2.0801 96.4312,1.9771 96.7542,1.7971" id="Fill-40"></path>
                    <path d="M95.3864,1.8093 L95.7744,1.8583 C95.7674,1.8013 95.6974,1.7193 95.8034,1.6603 L95.3864,1.8093 Z" id="Fill-42"></path>
                    <path d="M95.1963,1.8771 L95.3863,1.8091 L95.2423,1.7911 L95.1963,1.8771 Z" id="Fill-44"></path>
                    <path d="M93.3335,1.4614 C93.1655,1.5544 92.9825,1.5624 92.7745,1.5774 C92.9975,1.6194 93.2265,1.6414 93.4445,1.6414 C93.4755,1.5744 93.5715,1.4534 93.3335,1.4614" id="Fill-46"></path>
                    <path d="M94.1592,1.5207 C94.1472,1.5257 94.1332,1.5277 94.1222,1.5327 C94.1452,1.5507 94.1632,1.5567 94.1592,1.5207" id="Fill-48"></path>
                    <path d="M90.7337,1.5756 C90.7447,1.5876 90.7547,1.6016 90.7667,1.6146 C90.7687,1.6016 90.7707,1.5896 90.7737,1.5776 L90.7337,1.5756 Z" id="Fill-50"></path>
                    <path d="M93.4822,1.6811 C93.6492,1.7221 93.7492,1.6701 93.8442,1.6041 C93.7192,1.6261 93.5872,1.6391 93.4452,1.6411 C93.4312,1.6711 93.4282,1.6911 93.4822,1.6811" id="Fill-52"></path>
                    <path d="M92.0987,1.3613 C92.1857,1.4063 92.2847,1.4443 92.3877,1.4783 C92.3027,1.4113 92.1297,1.3053 92.0987,1.3613" id="Fill-54"></path>
                    <path d="M94.0656,1.4738 C94.0736,1.4708 94.0816,1.4668 94.0906,1.4638 C94.0356,1.4188 94.0426,1.4408 94.0656,1.4738" id="Fill-56"></path>
                    <path d="M94.0656,1.4738 C93.9796,1.5048 93.9116,1.5568 93.8446,1.6038 C93.9456,1.5878 94.0406,1.5648 94.1216,1.5328 C94.1016,1.5178 94.0806,1.4948 94.0656,1.4738" id="Fill-58"></path>
                    <path d="M90.1153,2.9472 C90.1443,2.7492 90.5843,2.5662 90.9633,2.7782 C91.3363,2.6302 91.0923,1.9782 90.7663,1.6142 C90.7553,1.7012 90.7553,1.7802 90.3713,1.8972 C90.5053,2.0062 91.2223,2.1502 90.8993,2.3302 C90.3903,2.4322 90.4823,2.2602 90.2353,2.1552 C90.4453,2.4022 89.5883,2.5142 89.6993,2.8772 L90.1443,2.7492 C90.1533,2.8052 89.9913,2.8962 90.1153,2.9472" id="Fill-60"></path>
                    <path d="M91.4978,1.6347 L91.6558,1.6107 C91.4758,1.5757 91.3468,1.4967 91.1098,1.3417 C90.8468,1.4377 90.7918,1.5117 90.7738,1.5777 L91.5518,1.6047 L91.4978,1.6347 Z" id="Fill-62"></path>
                    <path d="M92.365,1.6093 C92.242,1.8253 91.862,1.9163 92.095,2.1493 C92.558,2.1343 92.419,1.9693 92.696,1.8763 C91.948,1.9293 92.911,1.7563 92.371,1.6343 C92.518,1.5973 92.65,1.5863 92.775,1.5773 C92.64,1.5513 92.51,1.5183 92.388,1.4783 C92.395,1.4833 92.399,1.4873 92.405,1.4923 L92.409,1.4913 C92.409,1.4933 92.408,1.4933 92.408,1.4943 C92.44,1.5213 92.451,1.5383 92.414,1.5223 C92.412,1.5253 92.403,1.5263 92.399,1.5263 C92.394,1.5573 92.38,1.5833 92.365,1.6083 C92.148,1.5633 92.331,1.5523 92.399,1.5263 C92.401,1.5163 92.407,1.5063 92.408,1.4943 C92.407,1.4933 92.406,1.4933 92.405,1.4923 L91.656,1.6103 C91.814,1.6403 92.013,1.6343 92.365,1.6093" id="Fill-64"></path>
                    <path d="M96.1252,2.6901 C96.1022,2.6711 96.1032,2.6561 96.1012,2.6401 C96.0532,2.6661 96.0342,2.6841 96.1252,2.6901" id="Fill-66"></path>
                    <path d="M95.8169,2.56 C95.8719,2.53 95.9169,2.444 96.0939,2.466 C96.2479,2.531 96.0929,2.569 96.1009,2.64 C96.2079,2.583 96.4749,2.486 96.1399,2.381 L96.0869,2.41 C95.7849,2.336 95.3979,2.067 95.4509,2.038 C95.5389,2.232 95.6159,2.37 95.8169,2.56" id="Fill-68"></path>
                    <path d="M94.0694,2.1396 L93.4454,2.2456 L93.7634,2.4316 L93.7474,2.3196 C94.1024,2.3636 94.0254,2.2256 94.0694,2.1396" id="Fill-70"></path>
                    <path d="M90.6623,1.4685 L90.7453,1.2405 L90.3843,1.5625 L90.6623,1.4685 Z" id="Fill-72"></path>
                    <path d="M89.8515,1.4958 L89.8815,1.2978 L89.6675,1.4168 L89.8515,1.4958 Z" id="Fill-74"></path>
                    <path d="M44.0942,3.9509 L43.9112,4.0069 C43.9972,3.9899 44.0532,3.9709 44.0942,3.9509" id="Fill-76"></path>
                    <path d="M45.4216,3.9643 L45.4546,3.8673 C45.3926,3.9203 45.3676,3.9603 45.4216,3.9643" id="Fill-78"></path>
                    <path d="M69.937,1.518 C69.67,1.333 69.372,1.047 69.404,1.269 L69.486,1.486 C69.672,1.447 69.816,1.471 69.937,1.518" id="Fill-80"></path>
                    <path d="M56.2984,2.8132 C56.3234,2.8342 56.3504,2.8572 56.3764,2.8792 C56.4414,2.8052 56.5024,2.7362 56.5564,2.6712 C56.4794,2.7162 56.3914,2.7632 56.2984,2.8132" id="Fill-82"></path>
                    <path d="M56.11,3.7109 L55.758,3.5709 C55.837,3.6199 55.95,3.6669 56.11,3.7109" id="Fill-84"></path>
                    <path d="M36.8448,4.1809 L36.6308,4.4019 C36.9658,4.4009 36.8178,4.2889 36.8448,4.1809" id="Fill-86"></path>
                    <path d="M81.5467,1.5756 C81.3167,1.4906 81.1327,1.4556 80.9717,1.4446 C81.2497,1.5696 81.4737,1.7566 81.5467,1.5756" id="Fill-88"></path>
                    <path d="M44.6165,1.6489 C44.5045,1.6879 44.4565,1.7319 44.4595,1.7809 C44.5755,1.7439 44.6405,1.7019 44.6165,1.6489" id="Fill-90"></path>
                    <path d="M80.3061,1.4455 C80.3471,1.4675 80.3861,1.4785 80.4281,1.4965 C80.5961,1.4605 80.7661,1.4305 80.9721,1.4445 C80.7671,1.3515 80.5321,1.2945 80.3061,1.4455" id="Fill-92"></path>
                    <path d="M10.5533,4.0012 C10.5343,3.9912 10.5113,3.9872 10.4933,3.9752 C10.4883,4.0042 10.5143,4.0062 10.5533,4.0012" id="Fill-94"></path>
                    <path d="M2.8937,1.8122 C2.9687,1.7992 3.0917,1.7982 3.2077,1.7952 C3.1517,1.7812 3.0567,1.7822 2.8937,1.8122" id="Fill-96"></path>
                    <path d="M86.5889,1.4011 C86.7609,1.3871 86.6159,1.3771 86.5889,1.4011" id="Fill-98"></path>
                    <path d="M87.4253,2.259 C87.3883,2.283 87.3613,2.314 87.3563,2.364 C87.3703,2.312 87.3943,2.279 87.4253,2.259" id="Fill-100"></path>
                    <path d="M78.5931,2.7956 C78.5881,2.7956 78.5841,2.7946 78.5781,2.7946 C78.6291,2.8376 78.6201,2.8296 78.5931,2.7956" id="Fill-102"></path>
                    <path d="M86.8477,1.4997 C86.7827,1.4727 86.7087,1.4507 86.6277,1.4357 C86.6637,1.4517 86.7297,1.4727 86.8477,1.4997" id="Fill-104"></path>
                    <path d="M86.8129,1.3972 C86.8719,1.4072 86.9189,1.4122 86.9629,1.4182 C86.9849,1.3822 86.9659,1.3592 86.8129,1.3972" id="Fill-106"></path>
                    <path d="M86.3493,1.4128 C86.4473,1.4098 86.5393,1.4198 86.6273,1.4358 C86.5943,1.4208 86.5793,1.4088 86.5893,1.4008 C86.5383,1.4048 86.4673,1.4088 86.3493,1.4128" id="Fill-108"></path>
                    <path d="M24.6404,3.4206 C24.6294,3.4136 24.6164,3.4096 24.6034,3.3996 C24.4304,3.4906 24.5064,3.4756 24.6404,3.4206" id="Fill-110"></path>
                    <path d="M65.4611,3.7707 C65.4691,3.7687 65.4731,3.7627 65.4811,3.7607 C65.4731,3.7577 65.4621,3.7547 65.4551,3.7527 L65.4611,3.7707 Z" id="Fill-112"></path>
                    <path d="M64.8435,3.9323 C65.1065,3.6623 65.2565,3.6953 65.4555,3.7523 L65.2515,3.1273 L64.8435,3.9323 Z" id="Fill-114"></path>
                    <path d="M22.8035,1.7971 L22.9165,1.8601 C22.6615,1.9301 22.7325,1.8671 22.8035,1.7971 M85.2855,1.7021 C85.3445,1.6681 85.3405,1.6351 85.3155,1.6011 C85.2745,1.6621 85.1445,1.6661 84.9955,1.6491 C85.0365,1.7121 85.1115,1.7561 85.2855,1.7021 M84.7035,1.5971 C84.6985,1.6011 84.6945,1.6041 84.6905,1.6091 C84.4105,1.5151 84.5095,1.5521 84.7035,1.5971 M57.2525,3.2771 C57.1595,3.3571 57.0145,3.3171 56.8515,3.2261 C56.9705,3.2061 57.1045,3.2151 57.2525,3.2771 M47.3985,3.8581 C47.2725,3.9081 47.0225,4.0641 46.9305,3.9221 C47.0735,3.6461 47.1845,3.7781 47.3985,3.8581 M40.9155,4.0131 L41.3495,4.2081 C40.8265,4.5291 40.4475,4.4181 40.8545,4.6921 C40.9155,4.0131 42.5405,4.6231 42.6005,3.9441 L42.8865,4.0871 C42.8045,4.0811 42.7915,4.1211 42.7105,4.1141 C43.2665,4.4391 43.1235,3.6231 43.8405,3.7201 C44.0905,3.7721 44.2645,3.8701 44.0945,3.9511 L44.6505,3.7831 C44.8125,3.7961 44.7725,3.9141 44.6115,3.9011 L45.4605,3.8471 L45.4545,3.8671 C45.5755,3.7601 45.8495,3.5961 45.9835,3.5261 C46.1995,3.6231 45.8755,3.5981 45.9305,3.6821 L46.4005,3.5181 C46.5915,3.6941 46.2025,3.8641 45.8775,3.8391 C46.3165,4.5171 46.2675,3.6681 47.2145,4.0641 L46.7715,4.1511 C47.0575,4.5361 47.4035,4.3961 47.9055,4.6361 C47.7865,4.5111 46.9005,4.0311 47.4105,3.8621 C47.5545,3.9131 47.7435,3.9381 48.0195,3.8011 C48.0215,4.0421 48.2905,3.9831 48.6265,3.9691 L48.6035,4.2891 C48.9665,4.1971 48.9385,4.0341 49.1515,3.8901 C49.5575,3.9211 49.6415,4.1691 49.7365,4.3781 C50.3855,4.4291 49.2885,3.9811 50.0565,3.9211 C50.5955,4.0431 50.9745,3.9121 51.6195,3.7211 C51.9975,3.8311 51.5535,3.9161 51.6895,4.0081 L52.0235,3.7531 C52.1055,3.7591 52.0795,3.8371 52.0665,3.8771 C52.3485,3.7781 52.0895,3.5571 52.5325,3.4701 C52.6525,3.1181 53.4425,3.9851 53.9915,3.5851 C54.1265,3.6761 53.9265,3.7811 53.9675,3.9051 C54.7205,3.6421 54.6135,3.7141 55.2315,3.3611 L55.7575,3.5711 C55.3705,3.3311 55.8655,3.0461 56.2985,2.8131 C56.1615,2.6971 56.0435,2.5961 55.9655,2.5471 L56.6565,2.3761 C56.7395,2.4281 56.6705,2.5381 56.5565,2.6711 C56.6035,2.6451 56.6485,2.6191 56.6835,2.5951 C56.9305,2.7131 56.8025,2.8981 56.6255,3.0761 C56.5415,3.0131 56.4575,2.9461 56.3765,2.8791 C56.2055,3.0731 56.0465,3.2881 56.0815,3.4761 C56.1265,3.4391 56.2135,3.4071 56.3085,3.3891 C56.2635,3.4421 56.2355,3.4891 56.2555,3.5211 C56.2795,3.5551 56.3515,3.4841 56.4645,3.4021 L56.6215,3.7591 L56.6595,3.6171 L57.5635,3.8401 C58.2105,3.4821 58.7735,2.9531 59.8005,2.8061 C59.5455,3.0671 59.7455,3.2331 59.7315,3.5431 C59.4515,3.2151 58.9365,3.6821 58.4045,3.6161 C58.6815,3.6501 58.6205,3.7981 58.5505,3.8491 L59.4995,3.5511 C59.4775,3.8041 59.7005,3.7411 59.9485,3.8461 C59.7615,3.3451 60.6555,3.5121 61.0425,3.3581 C61.0665,3.5271 60.9735,3.6981 60.5025,3.6581 C61.0225,4.0351 61.1745,3.0701 61.6845,3.3901 C61.5695,3.3941 61.5075,3.3681 61.4615,3.4541 C61.7305,3.3041 62.3875,3.4231 62.2325,3.5691 L62.1185,3.5731 C62.8815,3.6321 64.4425,3.5761 64.5565,3.1511 C64.5645,3.2061 64.4565,3.6641 64.4105,3.7501 L65.7735,2.3191 C65.6535,2.6841 66.1145,3.5541 65.4805,3.7601 C65.6625,3.8121 65.8875,3.8731 66.2705,3.7441 C66.1465,3.6921 65.9615,3.2161 66.1315,3.1821 C66.5965,3.5891 66.4545,3.4001 67.0275,3.7471 C66.8415,3.6681 67.0485,3.0961 67.3425,3.1141 C67.2965,3.2001 67.3665,3.6791 67.2595,3.7391 L67.9905,3.1771 C67.8085,3.2781 67.9585,3.6531 68.1225,3.8121 C68.0465,3.7021 68.7545,3.8221 68.9495,3.7671 L68.6395,3.6361 C69.4655,3.7211 69.4555,2.8461 70.2745,2.8751 C70.1755,2.9911 70.0295,3.5901 70.4455,3.6611 C70.6365,3.3731 71.2915,2.2761 72.0165,2.0541 L72.1555,2.2181 L72.7115,2.0311 C72.3655,2.4641 71.3935,3.3761 70.8625,3.7311 C71.1715,3.8611 70.9485,3.9251 71.4115,3.9101 C71.5745,4.0641 71.1595,4.1441 71.0235,4.1531 L72.1005,4.2531 C72.0525,3.9161 72.9245,3.9161 72.8835,3.6361 L71.7135,3.9841 C71.6655,3.6491 72.3895,3.0301 73.1535,3.0891 C73.3475,3.2231 73.0075,3.6881 73.0235,3.8001 C73.1225,3.6841 73.7485,3.5791 73.8185,3.6611 L73.4945,3.8401 C73.9195,3.9671 74.1885,3.3951 74.6995,3.7161 C74.8755,3.7371 75.2255,4.1491 75.2555,3.9501 C74.9685,3.5661 74.9125,2.3791 75.1035,2.0911 C75.1655,2.1171 76.0295,2.4581 76.2305,2.6481 C76.5205,2.9481 75.7945,3.3641 76.0415,3.6231 C76.0525,3.5311 76.2125,3.4181 76.2795,3.3811 C76.4645,3.4601 76.2035,3.6661 76.6055,3.6241 C76.6725,3.2831 77.4235,3.6531 76.7955,3.3361 C77.1895,3.2391 77.2135,3.4061 77.6755,3.3911 C77.5285,3.1711 78.0905,2.6421 78.4845,2.5451 C78.4615,2.6311 78.5505,2.7441 78.5935,2.7961 C79.3995,2.8261 79.8325,2.9811 80.5845,2.9841 C80.6545,3.0671 81.0175,3.1661 80.8625,3.3131 C80.9705,3.2531 81.0705,3.1371 81.3025,3.1291 C81.7515,3.4241 80.7845,3.1751 81.1275,3.5291 C81.1565,3.3311 81.7275,3.2561 82.0575,3.1321 C81.9555,2.8261 81.2945,3.0731 80.9635,3.1971 C80.9615,2.7751 81.5375,2.3331 82.3235,2.1381 C82.9485,2.0331 82.5945,2.4111 82.7035,2.3511 C83.8765,2.4241 83.7025,1.6141 84.6775,1.9181 C85.0635,2.1871 84.6945,2.4531 84.7805,2.6471 C84.2715,2.7491 83.9995,2.4761 83.6545,2.4871 L84.0785,2.6141 C83.9165,2.7041 83.5775,2.7721 83.3925,2.6941 C83.7165,2.9351 85.3745,2.7401 86.2805,2.9631 C86.4415,2.8731 86.7185,2.7801 86.5875,2.6711 L86.3005,2.7091 C86.0375,2.4921 86.8395,2.4091 86.4775,2.3081 C86.8615,2.1561 87.2925,1.9161 87.8335,2.0391 L87.9355,2.3451 C87.9235,2.2561 87.5815,2.1631 87.4295,2.2561 C87.6545,2.1201 88.2595,2.6711 88.5065,2.2701 L88.1265,2.0571 C88.5125,1.9031 88.9895,1.5781 89.4695,1.6741 C89.2505,1.3721 89.3585,1.7091 89.0175,1.3551 C89.3135,1.7961 87.7915,1.3361 88.2655,1.7991 C87.9165,1.3881 87.6605,1.6251 87.2035,1.2751 C87.2175,1.3761 87.3655,1.4681 86.9635,1.4181 C86.9445,1.4481 86.9025,1.4851 86.8745,1.5071 C86.8625,1.5041 86.8585,1.5031 86.8475,1.5001 C86.8555,1.5041 86.8615,1.5081 86.8695,1.5121 C86.8525,1.5271 86.8505,1.5301 86.8785,1.5161 C86.9745,1.5601 87.0515,1.6131 87.0835,1.6701 C86.8835,1.9021 86.2435,1.8941 86.0265,2.0141 C85.7885,1.9661 86.1265,1.8991 85.9965,1.7911 L85.6735,1.9701 C85.6415,1.7461 85.0385,1.5971 85.6015,1.4661 L85.0945,1.4561 C84.7965,1.3301 84.3865,1.2801 84.1335,1.3741 C83.8945,1.3261 83.5305,1.6231 83.7385,1.4471 L82.9445,1.5861 L82.9365,1.5301 C82.1535,1.5021 81.3235,1.9021 80.4275,1.4961 C80.1645,1.5531 79.8915,1.6221 79.4505,1.5591 L79.3645,1.3641 C79.0255,1.4321 78.3465,1.1701 78.2015,1.3721 C77.8355,0.8501 76.5575,1.2581 75.9615,1.1661 L75.9395,1.4191 C75.5295,1.4051 75.1365,1.4771 74.6275,1.5791 L74.6585,1.8031 C74.2195,1.9871 73.5305,1.6431 72.8365,1.6661 C72.8835,1.5811 73.0595,1.6031 73.1835,1.6551 C72.3545,1.1491 71.4345,2.0231 70.6825,1.6541 C70.4945,1.7361 70.3595,1.7081 70.2275,1.6521 C70.2455,1.6511 70.2605,1.6471 70.2745,1.6401 C70.2555,1.6371 70.2265,1.6371 70.1975,1.6371 C70.1145,1.5991 70.0295,1.5541 69.9365,1.5181 C70.0155,1.5721 70.0905,1.6171 70.1565,1.6381 C70.0115,1.6431 69.7925,1.6711 69.5775,1.7271 L69.4855,1.4861 C69.4685,1.4891 69.4545,1.4891 69.4365,1.4931 C69.2255,1.4041 69.2665,1.6071 69.3795,1.7881 C69.2705,1.8271 69.1715,1.8751 69.0945,1.9331 C68.9235,1.5451 68.5315,2.0641 68.2975,1.6501 C68.1525,1.8521 67.2175,1.8021 67.1025,2.2271 C67.0955,2.1711 67.0325,2.1451 67.1485,2.1421 C66.9085,2.0931 66.6695,2.0451 66.4545,2.1651 L66.3525,1.8581 L65.8295,2.2701 C65.5115,2.0841 65.3805,1.9751 65.6955,1.7401 C64.9335,2.1021 65.0775,1.8761 64.4295,2.2351 L64.4615,2.0371 C64.2295,2.0451 63.8595,2.3101 63.7195,2.1461 C63.2015,1.7701 61.1565,2.0941 59.8265,1.7451 C60.0845,2.3271 59.2085,1.4831 59.1555,1.9351 C59.0775,1.7971 58.8925,1.7201 59.1075,1.6001 C58.4295,1.7351 58.0885,1.3811 57.6195,1.7621 C57.5415,1.6241 57.7645,1.5601 57.6955,1.4781 C57.6415,1.5081 57.4805,1.5981 57.4095,1.5161 C57.3405,1.4341 57.5085,1.4001 57.6165,1.3401 C56.9235,1.3631 56.8525,1.7881 56.8025,2.1871 C56.4515,1.9981 56.2755,2.0251 56.0225,2.2861 C55.8995,2.1561 55.6955,2.0191 56.1265,1.9721 C55.8845,1.9531 54.6465,1.7811 54.6215,2.1011 C54.5455,2.0201 54.2825,2.0771 54.2185,2.1141 C53.6755,2.0951 53.6275,2.0661 53.0935,2.0961 L53.2415,2.1491 C53.0305,2.5341 52.7975,2.2341 52.3665,2.2811 L52.3795,2.2411 C51.3925,1.9631 51.9535,2.3751 50.9795,2.0571 L51.0325,2.2971 C50.9415,2.8131 50.1695,1.9931 49.6045,2.1901 L49.8085,2.3271 C49.4995,2.5041 48.9455,1.6261 48.6355,1.5611 C48.5675,1.5161 48.7425,1.4891 48.8365,1.4561 C48.0245,1.1521 48.7315,1.7701 48.1265,1.8431 C48.0155,1.6741 48.2705,1.4121 47.8635,1.3811 C47.6605,1.2441 46.6825,1.9311 46.1275,1.6061 C46.2495,1.7361 46.3715,1.8671 46.0905,1.9651 C45.6595,2.0121 44.9265,1.4711 44.5375,1.8831 C44.4825,1.8471 44.4615,1.8131 44.4595,1.7811 C44.1305,1.8871 43.3905,1.9571 43.1915,2.1801 C42.8875,1.3521 41.1455,2.5831 41.1525,1.8191 L40.1405,1.8601 L40.1675,1.7821 C39.5195,1.7321 39.2915,1.9151 39.0635,2.0981 C38.9145,2.0461 39.0235,1.9751 39.0355,1.9351 C38.0905,1.7811 37.9965,1.8131 37.2035,2.1941 L37.1205,1.9461 C36.9065,2.0901 35.7535,1.5571 34.8265,1.8461 C34.8355,1.8181 34.8545,1.7701 34.9285,1.7351 C33.8855,2.0261 32.4305,1.0481 32.0485,1.9501 L31.3595,2.1731 C32.2505,2.2431 31.2275,2.5641 31.5935,2.7141 C31.2435,2.7671 30.6875,2.4421 31.1185,2.3961 L31.1855,2.4411 C31.3435,1.9701 30.0785,2.2741 30.1025,1.9541 C28.3495,1.9771 26.6415,1.7161 24.9995,1.6961 L25.1885,2.0621 L24.6155,2.0411 C24.4655,1.9561 24.4145,1.7551 24.8225,1.7701 C24.6075,1.5631 24.1375,1.9441 24.1255,2.0231 C23.3255,1.8751 24.4385,1.5971 24.1925,1.5881 L23.8595,1.6151 L23.9345,1.6581 C23.6645,1.8071 23.6405,1.9661 23.1495,1.9481 C22.8395,1.8751 22.9905,1.7221 22.8685,1.7081 C22.8685,1.6821 22.8275,1.6701 22.6805,1.6981 L21.9585,1.6661 L22.2475,1.9551 C21.9275,2.0981 21.5685,1.9401 21.9015,2.2671 C21.4135,1.7631 19.2105,2.0861 18.9105,1.9301 C18.4625,2.1401 18.0205,2.1361 17.4725,2.1111 C17.6085,2.1711 17.6905,2.4961 17.2175,2.4561 C17.3905,1.7861 16.3525,2.1651 15.9705,1.6831 C16.3115,2.0031 14.6275,1.7621 15.1635,2.2161 C14.7685,2.1621 15.1395,1.9651 14.8405,1.8071 C13.9015,2.0671 12.7725,1.6391 11.6125,1.7261 C11.5945,1.8141 11.7885,1.9491 11.5405,2.0801 L10.9275,1.6401 C10.6985,1.6831 10.7165,2.1481 10.2985,1.8421 C10.3575,1.9161 10.4455,2.0281 10.2925,2.0561 C8.0205,1.6281 5.6495,2.4071 3.3425,1.6021 C3.6555,1.7721 3.4465,1.7891 3.2085,1.7961 C3.3635,1.8361 3.2045,2.0131 3.2355,2.1321 L2.2695,1.8011 C2.0935,2.1321 1.2335,1.8231 1.1325,2.1391 L1.4385,2.0831 C1.0315,2.4561 2.0075,2.9121 1.9485,3.3911 C2.4035,2.9671 3.1495,4.0201 3.8965,3.4121 C4.0615,3.5101 3.7555,3.5671 3.8445,3.6781 C4.0335,3.4721 4.2625,3.4301 4.6865,3.5221 L4.6385,3.5721 C5.8295,3.5221 6.3405,3.7251 7.6785,3.8601 L7.5785,3.6231 C7.8665,3.6541 7.9275,3.7291 8.0615,3.7881 C8.3915,3.4291 7.2545,3.7681 7.5545,3.3721 C7.9365,3.8541 9.5825,3.3791 9.8395,3.9271 C10.2825,3.9301 9.7105,3.6521 10.1525,3.6561 L10.2695,3.8041 L10.3815,3.6131 C10.6715,3.6441 10.8175,3.8301 10.8285,3.9551 C10.7585,3.9401 10.6285,3.9901 10.5535,4.0011 C10.9295,4.1761 11.6135,3.9421 11.7425,3.9981 L11.3175,3.9071 C12.5245,3.7681 13.9985,3.9631 15.1645,3.6621 L15.0765,3.5501 C15.9665,3.3431 15.7895,3.6731 16.7675,3.5771 L16.7315,3.6041 C16.9275,3.4921 17.1885,3.4361 17.4565,3.4491 C17.2095,3.5801 17.9215,3.7031 17.5975,3.8481 C18.5625,3.6261 18.0745,3.6741 18.7125,3.2581 L18.8595,3.4441 C19.0775,3.2761 19.0955,3.1881 19.5835,3.1391 C19.1835,3.2991 19.8955,3.4221 19.4465,3.6321 C20.4715,4.0381 20.9685,3.2231 21.4385,3.8161 C21.9085,3.3031 20.5515,3.5311 20.8155,3.4211 C20.5945,3.2541 21.2035,3.0381 21.5255,3.0891 C21.8525,3.1011 22.0815,3.7461 22.9055,3.7361 C22.8235,3.7331 22.8175,3.7721 22.7355,3.7701 C23.0445,3.9011 23.3395,3.5931 23.7175,3.8061 C23.9295,3.4951 24.2085,3.8231 24.2695,3.4281 L23.5145,3.5191 C23.9425,3.4161 24.3435,2.9521 25.0495,3.1771 C24.9945,3.2571 24.7845,3.3621 24.6405,3.4211 C24.8465,3.5371 25.0375,3.3431 25.2515,3.4631 C25.1905,3.8591 24.3335,3.5491 23.8745,3.8511 C24.0965,4.0181 24.7425,3.5641 24.5115,3.9931 C24.8435,3.4481 25.3235,4.0621 25.8805,3.6461 L25.8445,3.8831 C25.9325,3.8461 26.1155,3.7331 26.2775,3.7401 L25.9835,4.0471 C26.4355,3.7851 26.8535,4.2771 27.2875,4.1341 C26.3805,4.1411 27.0835,3.8481 26.7005,3.6751 C27.8185,3.3571 27.3435,4.2961 28.5955,4.1821 C28.4255,4.2151 27.9585,4.0391 28.2245,3.9291 C28.4625,3.9781 28.7775,4.0691 28.9235,4.1941 C29.7525,4.1441 28.7955,3.9501 29.1495,3.8041 C29.4315,4.0931 29.5565,3.6861 29.9205,3.5941 L29.9225,3.8351 C30.8675,3.9901 30.1735,3.3321 31.0245,3.5191 L30.6645,3.8541 L31.1085,3.7671 L31.0165,4.0421 C31.4995,3.8381 31.6495,3.8911 32.1225,3.9681 C32.0125,3.7981 32.1845,3.5301 32.6035,3.5221 C32.8885,3.6661 32.4435,3.7521 33.0365,3.7171 C32.9025,3.8681 32.7555,4.0571 32.4975,3.8351 C32.4715,3.9141 32.3655,3.9871 32.3385,4.0641 C32.6455,4.2291 33.1115,4.1021 33.3255,4.1001 C33.2435,4.0911 33.1445,4.0781 33.0935,4.0431 L33.9535,3.7091 C34.0895,3.8001 33.9815,3.8721 33.8755,3.9441 C34.0495,3.9181 34.1705,3.8071 34.4265,3.7861 C34.3605,3.9821 34.3765,4.1841 34.0135,4.2771 L34.8335,4.0591 C34.8875,4.1441 35.2535,4.2931 35.1475,4.3661 C35.6015,4.4811 36.2625,3.9851 36.8645,4.1371 C36.8955,4.0991 36.9585,4.0631 37.0865,4.0351 C37.6535,4.0791 38.1545,4.3201 38.8255,4.0511 L39.2065,4.4021 C39.7325,4.3231 38.6915,3.9601 39.5665,3.8271 C40.1855,3.7151 39.7975,4.1271 40.0145,4.2251 C40.3235,4.0471 40.8585,3.6871 41.4285,3.9731 C41.2395,4.0391 41.0915,3.9871 40.9155,4.0131" id="Fill-116"></path>
                    <path d="M56.1354,3.6069 C56.0994,3.5659 56.0904,3.5209 56.0814,3.4759 C56.0324,3.5159 56.0314,3.5629 56.1354,3.6069" id="Fill-118"></path>
                    <path d="M36.8844,4.1401 C36.8774,4.1381 36.8714,4.1391 36.8644,4.1371 C36.8534,4.1521 36.8484,4.1661 36.8444,4.1811 L36.8844,4.1401 Z" id="Fill-120"></path>
                    <path d="M76.273,3.7473 C76.153,3.7123 76.086,3.6683 76.042,3.6233 C76.035,3.6823 76.09,3.7313 76.273,3.7473" id="Fill-122"></path>
                    <path d="M88.369,1.2922 L87.996,1.3552 C88.177,1.3432 88.241,1.3962 88.332,1.4342 C88.324,1.3772 88.252,1.2962 88.369,1.2922" id="Fill-124"></path>
                    <path d="M91.6038,2.7849 C91.6578,2.7549 91.7198,2.7819 91.7728,2.7519 L91.7578,2.6399 C91.5258,2.6469 91.3638,2.7369 91.6038,2.7849" id="Fill-126"></path>
                    <path d="M88.714,2.0937 C88.744,2.2967 88.977,2.2277 89.238,2.1897 C89.223,2.1907 89.208,2.1927 89.192,2.1897 C89.269,1.9067 88.991,1.9997 88.714,2.0937" id="Fill-128"></path>
                    <path d="M89.2989,2.1833 C89.3789,2.1733 89.4619,2.1683 89.5399,2.1783 C89.5709,2.0643 89.4419,2.1543 89.2989,2.1833" id="Fill-130"></path>
                    <path d="M86.0237,1.5676 C86.1477,1.6196 86.1017,1.3086 86.1717,1.3906 C86.3097,1.1326 85.3457,1.7036 86.0237,1.5676" id="Fill-132"></path>
                    <path d="M88.9254,2.7622 L88.8314,2.5122 L88.6854,2.7132 L88.9254,2.7622 Z" id="Fill-134"></path>
                    <path d="M86.864,2.5783 L87.281,2.6473 C87.275,2.6053 87.328,2.5813 87.393,2.5623 C87.136,2.5543 86.854,2.5043 86.864,2.5783" id="Fill-136"></path>
                    <path d="M87.3929,2.5622 C87.5269,2.5672 87.6539,2.5622 87.7289,2.5212 C87.6559,2.5232 87.4999,2.5312 87.3929,2.5622" id="Fill-138"></path>
                    <path d="M88.3551,2.8374 L88.2321,2.7854 L87.9371,2.7664 L88.3551,2.8374 Z" id="Fill-140"></path>
                    <path d="M82.3798,2.53 L81.9248,2.602 C81.8778,2.688 82.0018,2.74 82.1718,2.706 C82.2808,2.646 82.4498,2.613 82.3798,2.53" id="Fill-142"></path>
                    <path d="M83.7566,3.216 C83.6336,3.164 83.6256,3.108 83.5556,3.026 L83.5416,3.336 L83.7566,3.216 Z" id="Fill-144"></path>
                    <path d="M82.4289,3.2885 C82.3839,3.3745 81.7679,3.5355 82.3449,3.5165 C82.3909,3.4305 82.8469,3.3595 82.4289,3.2885" id="Fill-146"></path>
                    <path d="M75.5691,2.8957 L75.6851,2.8917 L75.6681,2.3827 L75.5691,2.8957 Z" id="Fill-148"></path>
                    <path d="M69.523,4.114 C70.062,4.236 69.651,3.8 70.139,3.952 C70.265,3.832 69.74,3.828 69.87,3.724 C69.544,3.851 69.373,3.779 69.523,4.114" id="Fill-150"></path>
                    <path d="M69.87,3.7238 C69.922,3.7038 69.977,3.6798 70.036,3.6468 C69.942,3.6778 69.897,3.7028 69.87,3.7238" id="Fill-152"></path>
                    <path d="M1.6228,1.5388 L1.2758,1.4328 L1.4998,1.6038 L1.6228,1.5388 Z" id="Fill-154"></path>
                    <path d="M0.9568,1.9165 L0.8748,1.5915 L0.6668,1.8855 C0.7448,1.8715 0.8968,1.8435 0.9568,1.9165" id="Fill-156"></path>
                    <path d="M48.3622,4.5114 L48.3882,4.4334 C48.3352,4.3484 48.2542,4.3424 48.0912,4.3294 L48.3622,4.5114 Z" id="Fill-158"></path>
                    <path d="M43.6571,4.2685 L43.7381,4.2755 L43.5871,3.9815 L43.6571,4.2685 Z" id="Fill-160"></path>
                    <path d="M39.7083,4.6428 C39.8693,4.6548 40.0593,4.5898 40.2203,4.6018 C39.8693,4.6548 39.6643,4.2768 39.7083,4.6428" id="Fill-162"></path>
                </g>
                <g id="Venstre-streg" transform="translate(0.000000, 50.000000)" sketch:type="MSShapeGroup">
                    <path d="M0.1223,3.9807 C-0.0327,3.9627 0.0233,4.1717 0.0003,4.2097 C0.2583,4.1627 0.1153,3.9267 0.1223,3.9807" id="Fill-164"></path>
                    <path d="M2.6732,3.5051 L2.6282,3.5901 L3.0042,3.3811 L2.6732,3.5051 Z" id="Fill-166"></path>
                    <path d="M5.0586,3.509 C4.8326,3.152 4.1946,3.567 3.7696,3.44 L3.6996,3.358 L3.5076,3.645 C4.0236,3.6 4.6946,3.409 5.0586,3.509" id="Fill-168"></path>
                    <path d="M6.3305,4.281 C6.2515,4.142 6.6055,4.161 6.0335,4.238 C6.0625,4.253 6.0705,4.261 6.0875,4.273 C6.1395,4.271 6.2095,4.271 6.3305,4.281" id="Fill-170"></path>
                    <path d="M6.0876,4.2727 C5.8366,4.2827 6.2516,4.3897 6.0876,4.2727" id="Fill-172"></path>
                    <path d="M7.2478,4.1931 L6.9168,4.3171 C6.9858,4.3991 7.2808,4.4181 7.1708,4.4771 C7.5108,4.4091 7.4408,4.3281 7.2478,4.1931" id="Fill-174"></path>
                    <path d="M7.5615,3.9326 L7.3905,3.9846 C7.4205,4.0196 7.4655,4.0316 7.5615,3.9326" id="Fill-176"></path>
                    <path d="M7.0264,4.0959 L7.3904,3.9849 C7.3424,3.9279 7.3374,3.8119 7.2234,4.0249 C7.2524,3.9199 7.1814,4.0209 7.0264,4.0959" id="Fill-178"></path>
                    <path d="M6.8205,4.0415 C6.6345,3.9635 6.3955,3.9145 6.7275,3.7915 C6.0945,3.8405 6.1875,4.0915 6.8205,4.0415" id="Fill-180"></path>
                    <path d="M5.1804,3.1398 L4.9324,3.0358 L4.7174,3.1548 C4.8244,3.0958 5.1954,3.2518 5.1804,3.1398" id="Fill-182"></path>
                    <path d="M9.3091,4.3779 C9.3301,4.3019 9.1981,4.1759 9.1731,4.0779 L8.9291,4.1659 C9.0541,4.2179 9.2921,4.2649 9.3091,4.3779" id="Fill-184"></path>
                    <path d="M9.1732,4.0783 L9.5392,3.9483 C9.2122,3.9323 9.1522,3.9943 9.1732,4.0783" id="Fill-186"></path>
                    <path d="M7.6205,3.5363 L7.0195,3.8103 L7.7365,3.5323 L7.6205,3.5363 Z" id="Fill-188"></path>
                    <path d="M10.7058,4.3874 L10.4988,4.5634 L10.8678,4.2974 L10.7058,4.3874 Z" id="Fill-190"></path>
                    <path d="M11.6322,4.3566 C11.4792,4.5026 11.8422,4.6026 11.6802,4.6926 C11.9322,4.6666 12.1472,4.5416 12.3402,4.4296 C12.1352,4.4916 11.9152,4.4756 11.6322,4.3566" id="Fill-192"></path>
                    <path d="M12.6653,4.2653 C12.5623,4.3003 12.4563,4.3623 12.3403,4.4293 C12.4493,4.3953 12.5573,4.3473 12.6653,4.2653" id="Fill-194"></path>
                    <path d="M10.1618,3.9855 C10.1898,4.0315 10.2448,4.1515 10.4498,4.2025 L10.3058,3.9885 C10.2618,3.9875 10.2118,3.9865 10.1618,3.9855" id="Fill-196"></path>
                    <path d="M10.3007,3.9819 L10.3057,3.9889 C10.4617,3.9929 10.5697,3.9979 10.6167,4.0009 C10.5767,3.9989 10.4817,3.9929 10.3007,3.9819" id="Fill-198"></path>
                    <path d="M10.1255,3.9846 C10.1385,3.9846 10.1485,3.9856 10.1615,3.9856 C10.1475,3.9646 10.1395,3.9576 10.1255,3.9846" id="Fill-200"></path>
                    <path d="M8.5791,3.7297 C8.7941,3.6107 9.2421,3.4817 8.8081,3.2997 C8.6541,3.4467 8.9021,3.5497 8.5791,3.7297" id="Fill-202"></path>
                    <path d="M9.9469,3.7175 L9.5589,3.6685 C9.5659,3.7255 9.6359,3.8075 9.5299,3.8665 L9.9469,3.7175 Z" id="Fill-204"></path>
                    <path d="M10.1371,3.6496 L9.9471,3.7176 L10.0911,3.7356 L10.1371,3.6496 Z" id="Fill-206"></path>
                    <path d="M11.9999,4.0654 C12.1679,3.9724 12.3509,3.9644 12.5589,3.9494 C12.3359,3.9074 12.1069,3.8854 11.8889,3.8854 C11.8579,3.9524 11.7619,4.0734 11.9999,4.0654" id="Fill-208"></path>
                    <path d="M11.1742,4.006 C11.1862,4.001 11.2002,3.999 11.2112,3.994 C11.1882,3.976 11.1702,3.97 11.1742,4.006" id="Fill-210"></path>
                    <path d="M14.5996,3.9511 C14.5886,3.9391 14.5786,3.9251 14.5666,3.9121 C14.5646,3.9251 14.5626,3.9371 14.5596,3.9491 L14.5996,3.9511 Z" id="Fill-212"></path>
                    <path d="M11.8511,3.8456 C11.6841,3.8046 11.5841,3.8566 11.4891,3.9226 C11.6141,3.9006 11.7461,3.8876 11.8881,3.8856 C11.9021,3.8556 11.9051,3.8356 11.8511,3.8456" id="Fill-214"></path>
                    <path d="M13.2347,4.1655 C13.1477,4.1205 13.0487,4.0825 12.9457,4.0485 C13.0307,4.1155 13.2037,4.2215 13.2347,4.1655" id="Fill-216"></path>
                    <path d="M11.2678,4.0529 C11.2598,4.0559 11.2518,4.0599 11.2428,4.0629 C11.2978,4.1079 11.2908,4.0859 11.2678,4.0529" id="Fill-218"></path>
                    <path d="M11.2678,4.0529 C11.3538,4.0219 11.4218,3.9699 11.4888,3.9229 C11.3878,3.9389 11.2928,3.9619 11.2118,3.9939 C11.2318,4.0089 11.2528,4.0319 11.2678,4.0529" id="Fill-220"></path>
                    <path d="M15.218,2.5795 C15.189,2.7775 14.749,2.9605 14.37,2.7485 C13.997,2.8965 14.241,3.5485 14.567,3.9125 C14.578,3.8255 14.578,3.7465 14.962,3.6295 C14.828,3.5205 14.111,3.3765 14.434,3.1965 C14.943,3.0945 14.851,3.2665 15.098,3.3715 C14.888,3.1245 15.745,3.0125 15.634,2.6495 L15.189,2.7775 C15.18,2.7215 15.342,2.6305 15.218,2.5795" id="Fill-222"></path>
                    <path d="M13.8355,3.892 L13.6775,3.916 C13.8575,3.951 13.9865,4.03 14.2235,4.185 C14.4865,4.089 14.5415,4.015 14.5595,3.949 L13.7815,3.922 L13.8355,3.892 Z" id="Fill-224"></path>
                    <path d="M12.9684,3.9174 C13.0914,3.7014 13.4714,3.6104 13.2384,3.3774 C12.7754,3.3924 12.9144,3.5574 12.6374,3.6504 C13.3854,3.5974 12.4224,3.7704 12.9624,3.8924 C12.8154,3.9294 12.6834,3.9404 12.5584,3.9494 C12.6934,3.9754 12.8234,4.0084 12.9454,4.0484 C12.9384,4.0434 12.9334,4.0394 12.9284,4.0344 L12.9244,4.0354 C12.9244,4.0334 12.9254,4.0334 12.9254,4.0324 C12.8934,4.0054 12.8824,3.9884 12.9194,4.0044 C12.9214,4.0014 12.9304,4.0004 12.9344,4.0004 C12.9394,3.9694 12.9534,3.9434 12.9684,3.9184 C13.1854,3.9634 13.0024,3.9744 12.9344,4.0004 C12.9324,4.0104 12.9264,4.0204 12.9254,4.0324 C12.9264,4.0334 12.9274,4.0334 12.9284,4.0344 L13.6774,3.9164 C13.5194,3.8864 13.3204,3.8924 12.9684,3.9174" id="Fill-226"></path>
                    <path d="M9.2082,2.8366 C9.2312,2.8556 9.2302,2.8706 9.2322,2.8866 C9.2802,2.8606 9.2992,2.8426 9.2082,2.8366" id="Fill-228"></path>
                    <path d="M9.5164,2.9667 C9.4614,2.9967 9.4164,3.0827 9.2394,3.0607 C9.0854,2.9957 9.2404,2.9577 9.2324,2.8867 C9.1254,2.9437 8.8584,3.0407 9.1934,3.1457 L9.2464,3.1167 C9.5484,3.1907 9.9354,3.4597 9.8824,3.4887 C9.7944,3.2947 9.7174,3.1567 9.5164,2.9667" id="Fill-230"></path>
                    <path d="M11.2639,3.3872 L11.8879,3.2812 L11.5699,3.0952 L11.5859,3.2072 C11.2309,3.1632 11.3079,3.3012 11.2639,3.3872" id="Fill-232"></path>
                    <path d="M14.671,4.0583 L14.588,4.2863 L14.949,3.9643 L14.671,4.0583 Z" id="Fill-234"></path>
                    <path d="M15.4819,4.031 L15.4519,4.229 L15.6659,4.11 L15.4819,4.031 Z" id="Fill-236"></path>
                    <path d="M61.2391,1.5759 L61.4221,1.5199 C61.3361,1.5369 61.2801,1.5559 61.2391,1.5759" id="Fill-238"></path>
                    <path d="M59.9118,1.5624 L59.8788,1.6594 C59.9408,1.6064 59.9658,1.5664 59.9118,1.5624" id="Fill-240"></path>
                    <path d="M35.3963,4.0087 C35.6633,4.1937 35.9613,4.4797 35.9293,4.2577 L35.8473,4.0407 C35.6613,4.0797 35.5173,4.0557 35.3963,4.0087" id="Fill-242"></path>
                    <path d="M49.0349,2.7136 C49.0099,2.6926 48.9829,2.6696 48.9569,2.6476 C48.8919,2.7216 48.8309,2.7906 48.7769,2.8556 C48.8539,2.8106 48.9419,2.7636 49.0349,2.7136" id="Fill-244"></path>
                    <path d="M49.2234,1.8159 L49.5754,1.9559 C49.4964,1.9069 49.3834,1.8599 49.2234,1.8159" id="Fill-246"></path>
                    <path d="M68.4885,1.3459 L68.7025,1.1249 C68.3675,1.1259 68.5155,1.2379 68.4885,1.3459" id="Fill-248"></path>
                    <path d="M23.7866,3.9511 C24.0166,4.0361 24.2006,4.0711 24.3616,4.0821 C24.0836,3.9571 23.8596,3.7701 23.7866,3.9511" id="Fill-250"></path>
                    <path d="M60.7168,3.8779 C60.8288,3.8389 60.8768,3.7949 60.8738,3.7459 C60.7578,3.7829 60.6928,3.8249 60.7168,3.8779" id="Fill-252"></path>
                    <path d="M25.0272,4.0812 C24.9862,4.0592 24.9472,4.0482 24.9052,4.0302 C24.7372,4.0662 24.5672,4.0962 24.3612,4.0822 C24.5662,4.1752 24.8012,4.2322 25.0272,4.0812" id="Fill-254"></path>
                    <path d="M94.7801,1.5256 C94.7991,1.5356 94.8221,1.5396 94.8401,1.5516 C94.8451,1.5226 94.8191,1.5206 94.7801,1.5256" id="Fill-256"></path>
                    <path d="M102.4396,3.7145 C102.3646,3.7275 102.2416,3.7285 102.1256,3.7315 C102.1816,3.7455 102.2766,3.7445 102.4396,3.7145" id="Fill-258"></path>
                    <path d="M18.7444,4.1257 C18.5724,4.1397 18.7174,4.1497 18.7444,4.1257" id="Fill-260"></path>
                    <path d="M17.9081,3.2678 C17.9451,3.2438 17.9721,3.2128 17.9771,3.1628 C17.9631,3.2148 17.9391,3.2478 17.9081,3.2678" id="Fill-262"></path>
                    <path d="M26.7402,2.7311 C26.7452,2.7311 26.7492,2.7321 26.7552,2.7321 C26.7042,2.6891 26.7132,2.6971 26.7402,2.7311" id="Fill-264"></path>
                    <path d="M18.4857,4.027 C18.5507,4.054 18.6247,4.076 18.7057,4.091 C18.6697,4.075 18.6037,4.054 18.4857,4.027" id="Fill-266"></path>
                    <path d="M18.5205,4.1296 C18.4615,4.1196 18.4145,4.1146 18.3705,4.1086 C18.3485,4.1446 18.3675,4.1676 18.5205,4.1296" id="Fill-268"></path>
                    <path d="M18.984,4.114 C18.886,4.117 18.794,4.107 18.706,4.091 C18.739,4.106 18.754,4.118 18.744,4.126 C18.795,4.122 18.866,4.118 18.984,4.114" id="Fill-270"></path>
                    <path d="M80.693,2.1061 C80.704,2.1131 80.717,2.1171 80.73,2.1271 C80.903,2.0361 80.827,2.0511 80.693,2.1061" id="Fill-272"></path>
                    <path d="M39.8722,1.756 C39.8642,1.758 39.8602,1.764 39.8522,1.766 C39.8602,1.769 39.8712,1.772 39.8782,1.774 L39.8722,1.756 Z" id="Fill-274"></path>
                    <path d="M40.4899,1.5944 C40.2269,1.8644 40.0769,1.8314 39.8779,1.7744 L40.0819,2.3994 L40.4899,1.5944 Z" id="Fill-276"></path>
                    <path d="M82.5298,3.7297 L82.4168,3.6667 C82.6718,3.5967 82.6008,3.6597 82.5298,3.7297 M20.0478,3.8247 C19.9888,3.8587 19.9928,3.8917 20.0178,3.9257 C20.0588,3.8647 20.1888,3.8607 20.3378,3.8777 C20.2968,3.8147 20.2218,3.7707 20.0478,3.8247 M20.6298,3.9297 C20.6348,3.9257 20.6388,3.9227 20.6428,3.9177 C20.9228,4.0117 20.8238,3.9747 20.6298,3.9297 M48.0808,2.2497 C48.1738,2.1697 48.3188,2.2097 48.4818,2.3007 C48.3628,2.3207 48.2288,2.3117 48.0808,2.2497 M57.9348,1.6687 C58.0608,1.6187 58.3108,1.4627 58.4028,1.6047 C58.2598,1.8807 58.1488,1.7487 57.9348,1.6687 M64.4178,1.5137 L63.9838,1.3187 C64.5068,0.9977 64.8858,1.1087 64.4788,0.8347 C64.4178,1.5137 62.7928,0.9037 62.7328,1.5827 L62.4468,1.4397 C62.5288,1.4457 62.5418,1.4057 62.6228,1.4127 C62.0668,1.0877 62.2098,1.9037 61.4928,1.8067 C61.2428,1.7547 61.0688,1.6567 61.2388,1.5757 L60.6828,1.7437 C60.5208,1.7307 60.5608,1.6127 60.7218,1.6257 L59.8728,1.6797 L59.8788,1.6597 C59.7578,1.7667 59.4838,1.9307 59.3498,2.0007 C59.1338,1.9037 59.4578,1.9287 59.4028,1.8447 L58.9328,2.0087 C58.7418,1.8327 59.1308,1.6627 59.4558,1.6877 C59.0168,1.0097 59.0658,1.8587 58.1188,1.4627 L58.5618,1.3757 C58.2758,0.9907 57.9298,1.1307 57.4278,0.8907 C57.5468,1.0157 58.4328,1.4957 57.9228,1.6647 C57.7788,1.6137 57.5898,1.5887 57.3138,1.7257 C57.3118,1.4847 57.0428,1.5437 56.7068,1.5577 L56.7298,1.2377 C56.3668,1.3297 56.3948,1.4927 56.1818,1.6367 C55.7758,1.6057 55.6918,1.3577 55.5968,1.1487 C54.9478,1.0977 56.0448,1.5457 55.2768,1.6057 C54.7378,1.4837 54.3588,1.6147 53.7138,1.8057 C53.3358,1.6957 53.7798,1.6107 53.6438,1.5187 L53.3098,1.7737 C53.2278,1.7677 53.2538,1.6897 53.2678,1.6497 C52.9848,1.7487 53.2438,1.9697 52.8008,2.0567 C52.6808,2.4087 51.8908,1.5417 51.3418,1.9417 C51.2068,1.8507 51.4068,1.7457 51.3658,1.6217 C50.6128,1.8847 50.7198,1.8127 50.1018,2.1657 L49.5758,1.9557 C49.9628,2.1957 49.4678,2.4807 49.0348,2.7137 C49.1718,2.8297 49.2898,2.9307 49.3678,2.9797 L48.6768,3.1507 C48.5938,3.0987 48.6628,2.9887 48.7768,2.8557 C48.7298,2.8817 48.6848,2.9077 48.6498,2.9317 C48.4028,2.8137 48.5308,2.6287 48.7078,2.4507 C48.7918,2.5137 48.8758,2.5807 48.9568,2.6477 C49.1278,2.4537 49.2868,2.2387 49.2518,2.0507 C49.2068,2.0877 49.1198,2.1197 49.0248,2.1377 C49.0698,2.0847 49.0978,2.0377 49.0778,2.0057 C49.0538,1.9717 48.9818,2.0427 48.8688,2.1247 L48.7118,1.7677 L48.6738,1.9097 L47.7698,1.6867 C47.1228,2.0447 46.5598,2.5737 45.5328,2.7207 C45.7878,2.4597 45.5878,2.2937 45.6018,1.9837 C45.8818,2.3117 46.3968,1.8447 46.9288,1.9107 C46.6518,1.8767 46.7128,1.7287 46.7828,1.6777 L45.8338,1.9757 C45.8558,1.7227 45.6328,1.7857 45.3848,1.6807 C45.5718,2.1817 44.6778,2.0147 44.2908,2.1687 C44.2668,1.9997 44.3598,1.8287 44.8308,1.8687 C44.3108,1.4917 44.1588,2.4567 43.6488,2.1367 C43.7638,2.1327 43.8258,2.1587 43.8718,2.0727 C43.6028,2.2227 42.9458,2.1037 43.1008,1.9577 L43.2148,1.9537 C42.4518,1.8947 40.8908,1.9507 40.7768,2.3757 C40.7688,2.3207 40.8768,1.8627 40.9228,1.7767 L39.5598,3.2077 C39.6798,2.8427 39.2188,1.9727 39.8528,1.7667 C39.6708,1.7147 39.4458,1.6537 39.0628,1.7827 C39.1868,1.8347 39.3718,2.3107 39.2018,2.3447 C38.7368,1.9377 38.8788,2.1267 38.3058,1.7797 C38.4918,1.8587 38.2848,2.4307 37.9908,2.4127 C38.0368,2.3267 37.9668,1.8477 38.0738,1.7877 L37.3428,2.3497 C37.5248,2.2487 37.3748,1.8737 37.2108,1.7147 C37.2868,1.8247 36.5788,1.7047 36.3838,1.7597 L36.6938,1.8907 C35.8678,1.8057 35.8778,2.6807 35.0588,2.6517 C35.1578,2.5357 35.3038,1.9367 34.8878,1.8657 C34.6968,2.1537 34.0418,3.2507 33.3168,3.4727 L33.1778,3.3087 L32.6218,3.4957 C32.9678,3.0627 33.9398,2.1507 34.4708,1.7957 C34.1618,1.6657 34.3848,1.6017 33.9218,1.6167 C33.7588,1.4627 34.1738,1.3827 34.3098,1.3737 L33.2328,1.2737 C33.2808,1.6107 32.4088,1.6107 32.4498,1.8907 L33.6198,1.5427 C33.6678,1.8777 32.9438,2.4967 32.1798,2.4377 C31.9858,2.3037 32.3258,1.8387 32.3098,1.7267 C32.2108,1.8427 31.5848,1.9477 31.5148,1.8657 L31.8388,1.6867 C31.4138,1.5597 31.1448,2.1317 30.6338,1.8107 C30.4578,1.7897 30.1078,1.3777 30.0778,1.5767 C30.3648,1.9607 30.4208,3.1477 30.2298,3.4357 C30.1678,3.4097 29.3038,3.0687 29.1028,2.8787 C28.8128,2.5787 29.5388,2.1627 29.2918,1.9037 C29.2808,1.9957 29.1208,2.1087 29.0538,2.1457 C28.8688,2.0667 29.1298,1.8607 28.7278,1.9027 C28.6608,2.2437 27.9098,1.8737 28.5378,2.1907 C28.1438,2.2877 28.1198,2.1207 27.6578,2.1357 C27.8048,2.3557 27.2428,2.8847 26.8488,2.9817 C26.8718,2.8957 26.7828,2.7827 26.7398,2.7307 C25.9338,2.7007 25.5008,2.5457 24.7488,2.5427 C24.6788,2.4597 24.3158,2.3607 24.4708,2.2137 C24.3628,2.2737 24.2628,2.3897 24.0308,2.3977 C23.5818,2.1027 24.5488,2.3517 24.2058,1.9977 C24.1768,2.1957 23.6058,2.2707 23.2758,2.3947 C23.3778,2.7007 24.0398,2.4537 24.3698,2.3297 C24.3718,2.7517 23.7958,3.1937 23.0098,3.3887 C22.3848,3.4937 22.7388,3.1157 22.6298,3.1757 C21.4568,3.1027 21.6308,3.9127 20.6558,3.6087 C20.2698,3.3397 20.6388,3.0737 20.5528,2.8797 C21.0618,2.7777 21.3338,3.0507 21.6788,3.0397 L21.2548,2.9127 C21.4158,2.8227 21.7558,2.7547 21.9408,2.8327 C21.6168,2.5917 19.9588,2.7867 19.0528,2.5637 C18.8918,2.6537 18.6148,2.7467 18.7458,2.8557 L19.0328,2.8177 C19.2958,3.0347 18.4928,3.1177 18.8558,3.2187 C18.4718,3.3707 18.0408,3.6107 17.4998,3.4877 L17.3978,3.1817 C17.4098,3.2707 17.7518,3.3637 17.9038,3.2707 C17.6788,3.4067 17.0738,2.8557 16.8268,3.2567 L17.2068,3.4697 C16.8208,3.6237 16.3438,3.9487 15.8638,3.8527 C16.0828,4.1547 15.9748,3.8177 16.3158,4.1717 C16.0198,3.7307 17.5418,4.1907 17.0678,3.7277 C17.4168,4.1387 17.6728,3.9017 18.1298,4.2517 C18.1158,4.1507 17.9678,4.0587 18.3698,4.1087 C18.3888,4.0787 18.4308,4.0417 18.4588,4.0197 C18.4708,4.0227 18.4748,4.0237 18.4858,4.0267 C18.4778,4.0227 18.4718,4.0187 18.4638,4.0147 C18.4808,3.9997 18.4828,3.9967 18.4548,4.0107 C18.3588,3.9667 18.2818,3.9137 18.2498,3.8567 C18.4498,3.6247 19.0898,3.6327 19.3068,3.5127 C19.5448,3.5607 19.2068,3.6277 19.3368,3.7357 L19.6598,3.5567 C19.6918,3.7807 20.2948,3.9297 19.7318,4.0607 L20.2388,4.0707 C20.5368,4.1967 20.9468,4.2467 21.1998,4.1527 C21.4388,4.2007 21.8028,3.9037 21.5948,4.0797 L22.3888,3.9407 L22.3968,3.9967 C23.1798,4.0247 24.0098,3.6247 24.9058,4.0307 C25.1688,3.9737 25.4418,3.9047 25.8828,3.9677 L25.9688,4.1627 C26.3078,4.0947 26.9868,4.3567 27.1318,4.1547 C27.4978,4.6767 28.7758,4.2687 29.3718,4.3607 L29.3938,4.1077 C29.8038,4.1217 30.1968,4.0497 30.7058,3.9477 L30.6748,3.7237 C31.1138,3.5397 31.8028,3.8837 32.4968,3.8607 C32.4498,3.9457 32.2738,3.9237 32.1498,3.8717 C32.9788,4.3777 33.8988,3.5037 34.6508,3.8727 C34.8388,3.7907 34.9738,3.8187 35.1058,3.8747 C35.0878,3.8757 35.0728,3.8797 35.0588,3.8867 C35.0778,3.8897 35.1068,3.8897 35.1358,3.8897 C35.2188,3.9277 35.3038,3.9727 35.3968,4.0087 C35.3178,3.9547 35.2428,3.9097 35.1778,3.8887 C35.3218,3.8837 35.5408,3.8557 35.7558,3.7997 L35.8478,4.0407 C35.8648,4.0377 35.8788,4.0377 35.8968,4.0337 C36.1078,4.1227 36.0668,3.9197 35.9538,3.7387 C36.0628,3.6997 36.1618,3.6517 36.2388,3.5937 C36.4098,3.9817 36.8018,3.4627 37.0358,3.8767 C37.1808,3.6747 38.1158,3.7247 38.2308,3.2997 C38.2378,3.3557 38.3008,3.3817 38.1848,3.3847 C38.4248,3.4337 38.6638,3.4817 38.8788,3.3617 L38.9808,3.6687 L39.5038,3.2567 C39.8218,3.4427 39.9528,3.5517 39.6378,3.7867 C40.3998,3.4247 40.2558,3.6507 40.9038,3.2917 L40.8718,3.4897 C41.1038,3.4817 41.4738,3.2167 41.6138,3.3807 C42.1318,3.7567 44.1768,3.4327 45.5068,3.7817 C45.2488,3.1997 46.1248,4.0437 46.1778,3.5917 C46.2558,3.7297 46.4408,3.8067 46.2258,3.9267 C46.9038,3.7917 47.2448,4.1457 47.7138,3.7647 C47.7918,3.9027 47.5688,3.9667 47.6378,4.0487 C47.6918,4.0187 47.8528,3.9287 47.9238,4.0107 C47.9928,4.0927 47.8248,4.1267 47.7168,4.1867 C48.4098,4.1637 48.4808,3.7387 48.5308,3.3397 C48.8818,3.5287 49.0578,3.5017 49.3108,3.2407 C49.4338,3.3707 49.6378,3.5077 49.2068,3.5547 C49.4488,3.5737 50.6868,3.7457 50.7118,3.4257 C50.7878,3.5067 51.0508,3.4497 51.1148,3.4127 C51.6578,3.4317 51.7058,3.4607 52.2398,3.4307 L52.0918,3.3777 C52.3028,2.9927 52.5358,3.2927 52.9668,3.2457 L52.9538,3.2857 C53.9408,3.5637 53.3798,3.1517 54.3538,3.4697 L54.3008,3.2297 C54.3918,2.7137 55.1638,3.5337 55.7288,3.3367 L55.5248,3.1997 C55.8338,3.0227 56.3878,3.9007 56.6978,3.9657 C56.7658,4.0107 56.5908,4.0377 56.4968,4.0707 C57.3088,4.3747 56.6018,3.7567 57.2068,3.6837 C57.3178,3.8527 57.0628,4.1147 57.4698,4.1457 C57.6728,4.2827 58.6508,3.5957 59.2058,3.9207 C59.0838,3.7907 58.9618,3.6597 59.2428,3.5617 C59.6738,3.5147 60.4068,4.0557 60.7958,3.6437 C60.8508,3.6797 60.8718,3.7137 60.8738,3.7457 C61.2028,3.6397 61.9428,3.5697 62.1418,3.3467 C62.4458,4.1747 64.1878,2.9437 64.1808,3.7077 L65.1928,3.6667 L65.1658,3.7447 C65.8138,3.7947 66.0418,3.6117 66.2698,3.4287 C66.4188,3.4807 66.3098,3.5517 66.2978,3.5917 C67.2428,3.7457 67.3368,3.7137 68.1298,3.3327 L68.2128,3.5807 C68.4268,3.4367 69.5798,3.9697 70.5068,3.6807 C70.4978,3.7087 70.4788,3.7567 70.4048,3.7917 C71.4478,3.5007 72.9028,4.4787 73.2848,3.5767 L73.9738,3.3537 C73.0828,3.2837 74.1058,2.9627 73.7398,2.8127 C74.0898,2.7597 74.6458,3.0847 74.2148,3.1307 L74.1478,3.0857 C73.9898,3.5567 75.2548,3.2527 75.2308,3.5727 C76.9838,3.5497 78.6918,3.8107 80.3338,3.8307 L80.1448,3.4647 L80.7178,3.4857 C80.8678,3.5707 80.9188,3.7717 80.5108,3.7567 C80.7258,3.9637 81.1958,3.5827 81.2078,3.5037 C82.0078,3.6517 80.8948,3.9297 81.1408,3.9387 L81.4738,3.9117 L81.3988,3.8687 C81.6688,3.7197 81.6928,3.5607 82.1838,3.5787 C82.4938,3.6517 82.3428,3.8047 82.4648,3.8187 C82.4648,3.8447 82.5058,3.8567 82.6528,3.8287 L83.3748,3.8607 L83.0858,3.5717 C83.4058,3.4287 83.7648,3.5867 83.4318,3.2597 C83.9198,3.7637 86.1228,3.4407 86.4228,3.5967 C86.8708,3.3867 87.3128,3.3907 87.8608,3.4157 C87.7248,3.3557 87.6428,3.0307 88.1158,3.0707 C87.9428,3.7407 88.9808,3.3617 89.3628,3.8437 C89.0218,3.5237 90.7058,3.7647 90.1698,3.3107 C90.5648,3.3647 90.1938,3.5617 90.4928,3.7197 C91.4318,3.4597 92.5608,3.8877 93.7208,3.8007 C93.7388,3.7127 93.5448,3.5777 93.7928,3.4467 L94.4058,3.8867 C94.6348,3.8437 94.6168,3.3787 95.0348,3.6847 C94.9758,3.6107 94.8878,3.4987 95.0408,3.4707 C97.3128,3.8987 99.6838,3.1197 101.9908,3.9247 C101.6778,3.7547 101.8868,3.7377 102.1248,3.7307 C101.9698,3.6907 102.1288,3.5137 102.0978,3.3947 L103.0638,3.7257 C103.2398,3.3947 104.0998,3.7037 104.2008,3.3877 L103.8948,3.4437 C104.3018,3.0707 103.3258,2.6147 103.3848,2.1357 C102.9298,2.5597 102.1838,1.5067 101.4368,2.1147 C101.2718,2.0167 101.5778,1.9597 101.4888,1.8487 C101.2998,2.0547 101.0708,2.0967 100.6468,2.0047 L100.6948,1.9547 C99.5038,2.0047 98.9928,1.8017 97.6548,1.6667 L97.7548,1.9037 C97.4668,1.8727 97.4058,1.7977 97.2718,1.7387 C96.9418,2.0977 98.0788,1.7587 97.7788,2.1547 C97.3968,1.6727 95.7508,2.1477 95.4938,1.5997 C95.0508,1.5967 95.6228,1.8747 95.1808,1.8707 L95.0638,1.7227 L94.9518,1.9137 C94.6618,1.8827 94.5158,1.6967 94.5048,1.5717 C94.5748,1.5867 94.7048,1.5367 94.7798,1.5257 C94.4038,1.3507 93.7198,1.5847 93.5908,1.5287 L94.0158,1.6197 C92.8088,1.7587 91.3348,1.5637 90.1688,1.8647 L90.2568,1.9767 C89.3668,2.1837 89.5438,1.8537 88.5658,1.9497 L88.6018,1.9227 C88.4058,2.0347 88.1448,2.0907 87.8768,2.0777 C88.1238,1.9467 87.4128,1.8237 87.7358,1.6787 C86.7708,1.9007 87.2588,1.8527 86.6208,2.2687 L86.4738,2.0827 C86.2558,2.2507 86.2378,2.3387 85.7498,2.3877 C86.1498,2.2277 85.4378,2.1047 85.8868,1.8947 C84.8618,1.4887 84.3648,2.3037 83.8948,1.7107 C83.4248,2.2237 84.7818,1.9957 84.5178,2.1057 C84.7388,2.2727 84.1298,2.4887 83.8078,2.4377 C83.4808,2.4257 83.2518,1.7807 82.4278,1.7907 C82.5098,1.7937 82.5158,1.7547 82.5978,1.7567 C82.2888,1.6257 81.9938,1.9337 81.6158,1.7207 C81.4038,2.0317 81.1248,1.7037 81.0638,2.0987 L81.8188,2.0077 C81.3908,2.1107 80.9898,2.5747 80.2838,2.3497 C80.3388,2.2697 80.5488,2.1647 80.6928,2.1057 C80.4868,1.9897 80.2958,2.1837 80.0818,2.0637 C80.1428,1.6677 80.9998,1.9777 81.4588,1.6757 C81.2368,1.5087 80.5908,1.9627 80.8218,1.5337 C80.4898,2.0787 80.0098,1.4647 79.4528,1.8807 L79.4888,1.6437 C79.4008,1.6807 79.2178,1.7937 79.0558,1.7867 L79.3498,1.4797 C78.8978,1.7417 78.4798,1.2497 78.0458,1.3927 C78.9528,1.3857 78.2498,1.6787 78.6328,1.8517 C77.5148,2.1697 77.9898,1.2307 76.7378,1.3447 C76.9078,1.3117 77.3748,1.4877 77.1088,1.5977 C76.8708,1.5487 76.5558,1.4577 76.4098,1.3327 C75.5808,1.3827 76.5378,1.5767 76.1838,1.7227 C75.9018,1.4337 75.7768,1.8407 75.4128,1.9327 L75.4108,1.6917 C74.4658,1.5367 75.1598,2.1947 74.3088,2.0077 L74.6688,1.6727 L74.2248,1.7597 L74.3168,1.4847 C73.8338,1.6887 73.6838,1.6357 73.2108,1.5587 C73.3208,1.7287 73.1488,1.9967 72.7298,2.0047 C72.4448,1.8607 72.8898,1.7747 72.2968,1.8097 C72.4308,1.6587 72.5778,1.4697 72.8358,1.6917 C72.8618,1.6127 72.9678,1.5397 72.9948,1.4627 C72.6878,1.2977 72.2218,1.4247 72.0078,1.4267 C72.0898,1.4357 72.1888,1.4487 72.2398,1.4837 L71.3798,1.8177 C71.2438,1.7267 71.3518,1.6547 71.4578,1.5827 C71.2838,1.6087 71.1628,1.7197 70.9068,1.7407 C70.9728,1.5447 70.9568,1.3427 71.3198,1.2497 L70.4998,1.4677 C70.4458,1.3827 70.0798,1.2337 70.1858,1.1607 C69.7318,1.0457 69.0708,1.5417 68.4688,1.3897 C68.4378,1.4277 68.3748,1.4637 68.2468,1.4917 C67.6798,1.4477 67.1788,1.2067 66.5078,1.4757 L66.1268,1.1247 C65.6008,1.2037 66.6418,1.5667 65.7668,1.6997 C65.1478,1.8117 65.5358,1.3997 65.3188,1.3017 C65.0098,1.4797 64.4748,1.8397 63.9048,1.5537 C64.0938,1.4877 64.2418,1.5397 64.4178,1.5137" id="Fill-278"></path>
                    <path d="M49.1979,1.9199 C49.2339,1.9609 49.2429,2.0059 49.2519,2.0509 C49.3009,2.0109 49.3019,1.9639 49.1979,1.9199" id="Fill-280"></path>
                    <path d="M68.449,1.3867 C68.456,1.3887 68.462,1.3877 68.469,1.3897 C68.48,1.3747 68.485,1.3607 68.489,1.3457 L68.449,1.3867 Z" id="Fill-282"></path>
                    <path d="M29.0603,1.7795 C29.1803,1.8145 29.2473,1.8585 29.2913,1.9035 C29.2983,1.8445 29.2433,1.7955 29.0603,1.7795" id="Fill-284"></path>
                    <path d="M16.9644,4.2346 L17.3374,4.1716 C17.1564,4.1836 17.0924,4.1306 17.0014,4.0926 C17.0094,4.1496 17.0814,4.2306 16.9644,4.2346" id="Fill-286"></path>
                    <path d="M13.7295,2.7419 C13.6755,2.7719 13.6145,2.7449 13.5605,2.7749 L13.5755,2.8869 C13.8075,2.8799 13.9695,2.7899 13.7295,2.7419" id="Fill-288"></path>
                    <path d="M16.6194,3.4331 C16.5894,3.2301 16.3564,3.2991 16.0954,3.3371 C16.1104,3.3361 16.1254,3.3341 16.1414,3.3371 C16.0644,3.6201 16.3424,3.5271 16.6194,3.4331" id="Fill-290"></path>
                    <path d="M16.0344,3.3435 C15.9544,3.3535 15.8714,3.3585 15.7934,3.3485 C15.7624,3.4625 15.8914,3.3725 16.0344,3.3435" id="Fill-292"></path>
                    <path d="M19.3096,3.9592 C19.1856,3.9072 19.2316,4.2182 19.1616,4.1362 C19.0236,4.3942 19.9876,3.8232 19.3096,3.9592" id="Fill-294"></path>
                    <path d="M16.408,2.7646 L16.502,3.0146 L16.648,2.8136 L16.408,2.7646 Z" id="Fill-296"></path>
                    <path d="M18.4693,2.9484 L18.0523,2.8794 C18.0583,2.9214 18.0053,2.9454 17.9403,2.9644 C18.1973,2.9724 18.4793,3.0224 18.4693,2.9484" id="Fill-298"></path>
                    <path d="M17.9404,2.9645 C17.8064,2.9595 17.6794,2.9645 17.6044,3.0055 C17.6774,3.0035 17.8334,2.9955 17.9404,2.9645" id="Fill-300"></path>
                    <path d="M16.9782,2.6894 L17.1012,2.7414 L17.3962,2.7604 L16.9782,2.6894 Z" id="Fill-302"></path>
                    <path d="M22.9536,2.9968 L23.4086,2.9248 C23.4556,2.8388 23.3316,2.7868 23.1616,2.8208 C23.0526,2.8808 22.8836,2.9138 22.9536,2.9968" id="Fill-304"></path>
                    <path d="M21.5767,2.3107 C21.6997,2.3627 21.7077,2.4187 21.7777,2.5007 L21.7917,2.1907 L21.5767,2.3107 Z" id="Fill-306"></path>
                    <path d="M22.9044,2.2382 C22.9494,2.1522 23.5654,1.9912 22.9884,2.0102 C22.9414,2.0962 22.4864,2.1672 22.9044,2.2382" id="Fill-308"></path>
                    <path d="M29.7643,2.631 L29.6483,2.635 L29.6653,3.144 L29.7643,2.631 Z" id="Fill-310"></path>
                    <path d="M35.8104,1.4128 C35.2714,1.2908 35.6824,1.7268 35.1944,1.5748 C35.0684,1.6948 35.5934,1.6988 35.4634,1.8028 C35.7894,1.6758 35.9604,1.7478 35.8104,1.4128" id="Fill-312"></path>
                    <path d="M35.4634,1.8029 C35.4114,1.8229 35.3564,1.8469 35.2974,1.8799 C35.3914,1.8489 35.4364,1.8239 35.4634,1.8029" id="Fill-314"></path>
                    <path d="M103.7106,3.988 L104.0576,4.094 L103.8336,3.923 L103.7106,3.988 Z" id="Fill-316"></path>
                    <path d="M104.3766,3.6103 L104.4586,3.9353 L104.6666,3.6413 C104.5886,3.6553 104.4366,3.6833 104.3766,3.6103" id="Fill-318"></path>
                    <path d="M56.9712,1.0153 L56.9452,1.0933 C56.9982,1.1783 57.0792,1.1843 57.2422,1.1973 L56.9712,1.0153 Z" id="Fill-320"></path>
                    <path d="M61.6762,1.2582 L61.5952,1.2512 L61.7462,1.5452 L61.6762,1.2582 Z" id="Fill-322"></path>
                    <path d="M65.625,0.884 C65.464,0.872 65.274,0.937 65.113,0.925 C65.464,0.872 65.669,1.25 65.625,0.884" id="Fill-324"></path>
                </g>
                <g id="Hjerte" transform="translate(114.000000, 44.000000)" sketch:type="MSShapeGroup">
                    <path d="M16.951,8.6893 C16.951,8.6893 16.642,8.9863 16.491,9.1383 C15.809,9.8253 15.122,10.5063 14.448,11.2013 C14.015,11.6483 13.537,12.0363 13.012,12.3663 C12.398,12.7533 11.781,13.1333 11.161,13.5083 C10.954,13.6333 10.744,13.7603 10.52,13.8453 C10.118,13.9953 9.734,14.0893 9.287,13.8723 C8.835,13.6523 8.323,13.5433 7.827,13.4303 C7.234,13.2953 6.725,13.0233 6.258,12.6443 C5.737,12.2213 5.205,11.8113 4.677,11.3963 C4.232,11.0453 3.821,10.6613 3.499,10.1883 C3.393,10.0333 3.269,9.8903 3.16,9.7373 C0.663,6.8933 0.1,4.6513 1.161,1.9853 C1.264,1.8273 1.35,1.6593 1.454,1.5023 C1.915,0.8053 2.575,0.4383 3.399,0.3673 C5.168,0.2153 6.806,0.6463 8.338,1.5133 C8.811,1.7803 9.199,2.1503 9.513,2.5993 C9.656,2.8023 9.763,2.8163 9.895,2.6503 C10.381,2.0363 11.04,1.6843 11.746,1.4053 C12.798,0.9893 13.879,0.6783 15.006,0.5543 C15.246,0.5283 15.49,0.5153 15.731,0.5233 C16.89,0.5613 18.073,1.2513 18.556,1.9423 C20.216,4.1593 16.951,8.6893 16.951,8.6893"></path>
                </g>
                <g id="Jacob-&amp;-Line" transform="translate(46.000000, 0.000000)" sketch:type="MSShapeGroup">
                    <path d="M6.375,3.688 L6.281,11.118 C6.281,13.196 6.426,16.309 6.715,20.458 C7.004,24.606 7.148,27.961 7.148,30.524 C7.148,33.086 6.805,35.286 6.117,37.122 C5.43,38.957 4.219,40.492 2.484,41.727 C1.984,41.727 1.57,41.602 1.242,41.352 C0.914,41.102 0.75,40.758 0.75,40.32 C0.75,39.883 0.949,39.484 1.348,39.125 C1.746,38.766 2.172,38.492 2.625,38.305 C3.906,36.696 4.547,34.438 4.547,31.532 C4.547,29.938 4.465,27.657 4.301,24.688 C4.137,21.719 4.043,19.715 4.02,18.676 C3.996,17.637 3.977,16.309 3.961,14.692 C3.945,13.075 3.93,11.758 3.914,10.743 C3.867,8.04 3.664,5.563 3.305,3.313 C3.195,3.329 2.984,3.376 2.672,3.454 C2.047,3.61 1.566,3.688 1.23,3.688 C0.895,3.688 0.605,3.567 0.363,3.325 C0.121,3.083 0,2.797 0,2.469 C0,1.344 1.914,0.782 5.742,0.782 C7.586,0.782 8.508,1.219 8.508,2.094 C8.508,2.969 7.797,3.383 6.375,3.336 L6.375,3.688 Z" id="Fill-1"></path>
                    <path d="M20.1563,28.3911 C20.0623,27.9221 20.0153,27.1641 20.0153,26.1181 C20.0153,25.0711 19.9493,23.8011 19.8163,22.3091 C19.6833,20.8171 19.4923,19.0861 19.2423,17.1181 C18.9923,15.1491 18.8203,13.7271 18.7263,12.8521 C18.5393,13.7581 18.1723,15.2741 17.6253,17.3991 C16.5153,21.8211 15.9453,25.2271 15.9143,27.6181 C16.4613,27.9771 17.8753,28.2351 20.1563,28.3911 M23.4373,29.4221 L23.1793,30.3831 C23.1793,30.7741 23.3203,31.7271 23.6013,33.2431 C23.8833,34.7581 24.0233,35.7501 24.0233,36.2191 L24.0233,36.2661 C24.0233,36.9851 23.7813,37.4381 23.2973,37.6251 C22.6253,37.6251 22.1013,37.5161 21.7263,37.2971 C21.3513,37.0791 21.1643,36.5281 21.1643,35.6451 C21.1643,34.7621 20.9293,32.9461 20.4613,30.1961 L18.9843,30.0551 L17.3903,30.0551 C17.0313,29.8991 16.3983,29.8211 15.4923,29.8211 C15.4923,29.8521 15.4723,30.0591 15.4333,30.4421 C15.3943,30.8251 15.3633,31.1331 15.3403,31.3681 C15.3163,31.6021 15.2773,31.9501 15.2223,32.4111 C15.1683,32.8711 15.1093,33.2621 15.0473,33.5821 C14.9843,33.9031 14.9063,34.2781 14.8123,34.7071 C14.7193,35.1371 14.6133,35.4961 14.4963,35.7861 C14.3793,36.0751 14.2503,36.3521 14.1093,36.6181 C13.8283,37.1641 13.4843,37.4381 13.0783,37.4381 C12.6723,37.4381 12.3083,37.3171 11.9883,37.0751 C11.6683,36.8321 11.5083,36.5241 11.5083,36.1491 C12.3513,32.9141 13.0743,29.5241 13.6763,25.9771 C14.2773,22.4301 14.6363,20.3251 14.7543,19.6611 C14.8713,18.9961 15.1443,17.7151 15.5743,15.8171 C16.0043,13.9181 16.2613,12.6491 16.3473,12.0081 C16.4333,11.3681 16.5153,10.5391 16.5933,9.5241 C16.7343,7.3051 17.0233,5.8751 17.4613,5.2351 L19.0783,5.2351 C20.1723,5.2351 20.7183,5.5631 20.7183,6.2191 C20.7183,12.3911 21.3203,18.5241 22.5233,24.6181 C22.5863,24.9771 22.7033,25.4771 22.8753,26.1181 C23.2503,27.5081 23.4373,28.6101 23.4373,29.4221" id="Fill-3"></path>
                    <path d="M36.0703,34.9067 C37.0393,34.9067 37.5233,35.2587 37.5233,35.9617 C37.5233,37.2267 36.6323,37.8597 34.8513,37.8597 C34.1173,37.8597 33.3633,37.7547 32.5903,37.5437 C31.8163,37.3327 31.2343,37.1017 30.8433,36.8517 C28.7183,35.4767 27.6563,31.7187 27.6563,25.5787 L27.6323,22.7657 C27.6323,13.5627 28.7583,8.1337 31.0083,6.4767 C32.1643,5.6337 33.7733,5.2117 35.8363,5.2117 C36.1793,5.2117 36.4963,5.3367 36.7853,5.5867 C37.0743,5.8367 37.2183,6.1257 37.2183,6.4537 L37.2183,6.6407 C36.9223,7.3757 36.1483,7.7427 34.8983,7.7427 L34.0313,7.6957 C33.5003,7.6957 33.0273,7.9847 32.6133,8.5627 C32.1993,9.1407 31.8833,9.8367 31.6643,10.6487 C31.4453,11.4617 31.2653,12.3677 31.1253,13.3677 C30.9063,14.9457 30.7973,16.4227 30.7973,17.7977 L30.7973,18.0317 L30.4923,27.2897 C30.4923,29.2427 30.5973,30.5947 30.8083,31.3437 C31.0193,32.0937 31.2383,32.6997 31.4653,33.1607 C31.6913,33.6217 31.9613,34.0007 32.2733,34.2977 C32.9923,34.9847 33.9143,35.3287 35.0393,35.3287 C35.4143,35.3287 35.7583,35.1877 36.0703,34.9067" id="Fill-5"></path>
                    <path d="M43.5938,12.9692 L43.6638,15.7822 L43.6408,20.3752 C43.6408,20.7662 43.6488,21.2272 43.6638,21.7582 C43.6798,22.2892 43.6988,22.9892 43.7228,23.8562 C43.7458,24.7232 43.7928,25.5822 43.8638,26.4342 C43.9338,27.2852 44.0158,28.1842 44.1098,29.1292 C44.2028,30.0742 44.3278,30.9492 44.4848,31.7542 C44.6408,32.5592 44.8128,33.2892 44.9998,33.9462 C45.4218,35.3672 45.9768,36.0782 46.6638,36.0782 C47.5858,36.0782 48.2888,35.2112 48.7738,33.4772 C49.4918,30.8992 49.8518,27.7272 49.8518,23.9612 L49.9218,19.0162 C49.9218,15.5472 49.7698,13.2112 49.4648,12.0082 C49.1598,10.8052 48.8748,9.8992 48.6098,9.2892 C48.0778,8.0552 47.2738,7.4382 46.1958,7.4382 L46.1018,7.4382 C44.4298,7.4382 43.5938,9.2812 43.5938,12.9692 L43.5938,12.9692 Z M52.4998,24.2662 C52.4998,33.4692 50.6168,38.0712 46.8518,38.0712 C43.3828,38.0712 41.4378,33.7112 41.0158,24.9922 C40.9848,24.1642 40.9688,23.3362 40.9688,22.5082 L40.9458,19.5782 L40.9458,18.6412 C40.9458,11.8752 41.9378,7.6962 43.9218,6.1022 C44.4058,5.7112 44.9458,5.5002 45.5388,5.4692 C45.9918,5.6252 46.5468,5.7702 47.2028,5.9032 C47.8598,6.0352 48.3438,6.1722 48.6558,6.3132 C49.2348,6.5782 49.8598,7.2702 50.5308,8.3872 C51.2028,9.5042 51.6988,10.9962 52.0198,12.8642 C52.3398,14.7312 52.4998,16.6022 52.4998,18.4772 L52.4998,24.2662 Z" id="Fill-7"></path>
                    <path d="M59.9766,6.9927 L59.9766,19.2977 C61.5856,19.2507 62.3906,17.3057 62.3906,13.4617 C62.3906,12.4457 62.2736,11.3907 62.0396,10.2977 C61.5706,8.1877 60.8826,7.0867 59.9766,6.9927 L59.9766,6.9927 Z M59.9766,31.4617 C59.7736,31.8047 59.6716,32.3367 59.6716,33.0547 L59.6716,35.2117 C60.7036,34.9617 61.4846,34.3247 62.0156,33.3017 C62.5466,32.2777 62.8126,31.3287 62.8126,30.4537 C62.8126,29.5787 62.8006,28.8797 62.7776,28.3557 C62.7536,27.8327 62.6876,27.1957 62.5786,26.4457 C62.4686,25.6957 62.3206,25.0397 62.1326,24.4767 C61.6796,23.1177 60.9766,22.3287 60.0236,22.1097 C59.8986,23.9537 59.8356,25.8757 59.8356,27.8757 C59.8356,29.8757 59.8826,31.0707 59.9766,31.4617 L59.9766,31.4617 Z M57.4216,24.8987 L57.6326,9.6877 C57.6326,8.5787 57.6176,7.7507 57.5856,7.2037 L57.5856,6.7587 C57.5856,5.4307 58.0396,4.7657 58.9456,4.7657 C59.6646,4.7657 60.6326,4.9697 61.8516,5.3757 C63.0706,5.7817 63.6796,6.2587 63.6796,6.8057 C63.6796,7.5237 63.9176,8.5747 64.3946,9.9577 C64.8716,11.3407 65.1096,12.3837 65.1096,13.0867 C65.1096,15.2587 64.9536,16.8247 64.6406,17.7857 C64.3286,18.7467 63.8356,19.7037 63.1646,20.6567 C64.0856,21.5477 64.6876,22.6687 64.9686,24.0197 C65.2496,25.3717 65.3906,26.7307 65.3906,28.0977 C65.3906,29.4657 65.3126,30.5707 65.1566,31.4147 C64.9996,32.2587 64.7426,33.0627 64.3826,33.8287 C64.0236,34.5947 63.5856,35.2587 63.0706,35.8207 C61.9296,37.0397 60.3906,37.6487 58.4536,37.6487 C57.7656,37.6487 57.3356,37.3517 57.1636,36.7587 C57.0236,36.3207 56.9536,35.7737 56.9536,35.1177 L57.4216,24.8987 Z" id="Fill-9"></path>
                    <path d="M82.1255,8.7036 L82.1725,13.0396 L82.1725,13.5786 C82.5945,12.6726 83.0005,11.5866 83.3915,10.3206 C83.7825,9.0556 83.9775,8.0476 83.9775,7.2976 C83.9775,5.7816 83.6025,5.0086 82.8525,4.9766 C82.6335,5.1646 82.3915,5.5556 82.1255,6.1486 L82.1255,8.7036 Z M80.8125,20.4696 C79.1715,23.1566 78.3515,26.2736 78.3515,29.8206 C78.3515,32.2736 79.0005,34.1486 80.2965,35.4456 C81.0315,36.1806 81.9375,36.5476 83.0165,36.5476 C83.5005,36.5476 84.1065,36.4146 84.8335,36.1486 C85.5595,35.8836 86.0795,35.5866 86.3915,35.2586 C86.2825,35.1016 85.9465,34.7266 85.3835,34.1336 C84.8215,33.5396 84.2585,32.6956 83.6965,31.6016 C83.1335,30.5086 82.6645,29.2266 82.2895,27.7586 C81.7735,25.7896 81.2815,23.3596 80.8125,20.4696 L80.8125,20.4696 Z M86.0405,5.6806 L85.8995,8.1176 C85.8995,8.4456 85.9385,8.7896 86.0165,9.1486 C85.7505,9.7426 85.3875,10.7586 84.9265,12.1956 C84.4655,13.6336 84.1255,14.5626 83.9075,14.9846 C83.6885,15.4066 83.4695,15.7816 83.2505,16.1096 C82.7505,16.8596 82.5005,17.3986 82.5005,17.7266 C82.5005,19.2586 83.0905,22.0046 84.2705,25.9656 C85.4505,29.9266 86.4695,32.3986 87.3295,33.3836 C88.2975,31.0866 88.7825,28.2586 88.7825,24.8986 L88.7825,24.6876 C88.2355,24.6876 87.8365,24.4146 87.5865,23.8676 L87.5865,22.6486 C88.3835,22.6486 89.4225,22.5906 90.7045,22.4736 C91.9855,22.3556 92.8915,22.2116 93.4225,22.0396 C94.3295,22.2266 94.7825,22.6486 94.7825,23.3056 C94.7825,24.1806 93.8995,24.6176 92.1335,24.6176 L90.9385,24.6176 C90.9385,25.5706 90.8995,26.6486 90.8215,27.8516 C91.1495,27.8206 90.9975,28.8286 90.3645,30.8756 C89.7315,32.9226 89.2665,34.2506 88.9695,34.8596 C89.9225,35.8446 90.9385,36.3366 92.0165,36.3366 L93.9615,36.1956 L94.8525,36.9226 C94.8525,37.5626 94.6295,37.9886 94.1845,38.1996 C93.7395,38.4106 93.1495,38.5156 92.4155,38.5156 C90.9305,38.5156 89.3915,37.9146 87.7975,36.7116 C86.0795,37.9306 84.4895,38.5396 83.0285,38.5396 C81.5665,38.5396 80.3285,38.1296 79.3125,37.3086 C78.2965,36.4886 77.5155,35.4766 76.9685,34.2736 C76.4215,33.0706 76.1485,31.8366 76.1485,30.5706 C76.1485,29.3056 76.2265,28.1256 76.3825,27.0316 C76.5395,25.9376 76.8285,24.8126 77.2505,23.6566 C77.8435,22.0316 78.8755,19.7506 80.3435,16.8126 L80.0155,10.2266 L80.0155,6.2426 C80.0155,4.9926 80.2265,4.0866 80.6485,3.5236 C81.0705,2.9616 81.6325,2.6806 82.3365,2.6806 C83.0405,2.6806 83.8335,2.9616 84.7155,3.5236 C85.5985,4.0866 86.0405,4.8056 86.0405,5.6806 L86.0405,5.6806 Z" id="Fill-11"></path>
                    <path d="M107.7666,1.7427 L108.2586,19.0157 C108.2586,19.5787 108.2276,20.0867 108.1646,20.5397 L108.1646,20.7507 C108.2116,21.6727 108.2826,22.9847 108.3756,24.6877 C108.6106,28.4847 108.7276,31.3447 108.7276,33.2657 L108.7276,34.7897 L112.1496,34.7897 C112.6806,35.1017 112.9856,35.3287 113.0636,35.4697 C113.1416,35.6097 113.1806,35.8087 113.1806,36.0667 C113.1806,36.3247 113.0636,36.5907 112.8286,36.8637 C112.5946,37.1377 112.3526,37.2737 112.1026,37.2737 C111.8526,37.2737 111.5636,37.2197 111.2356,37.1097 C110.9696,37.1727 110.6646,37.2037 110.3216,37.2037 L108.7746,37.1337 C108.4466,37.5237 108.0366,37.7197 107.5436,37.7197 C107.0516,37.7197 106.6376,37.5667 106.3016,37.2627 C105.9656,36.9577 105.7976,36.6017 105.7976,36.1957 L106.1026,34.0867 C106.1026,30.4457 105.9426,24.9887 105.6216,17.7157 C105.3016,10.4417 105.1416,4.9847 105.1416,1.3447 C105.1416,1.0477 105.2586,0.8087 105.4936,0.6297 C105.7276,0.4497 106.0206,0.3597 106.3716,0.3597 C106.7236,0.3597 107.0436,0.4927 107.3326,0.7587 C107.6216,1.0237 107.7666,1.3517 107.7666,1.7427" id="Fill-13"></path>
                    <path d="M122.8135,36.6411 L121.0085,36.6641 L118.9225,36.7581 C118.0325,36.7581 117.4385,36.4691 117.1415,35.8911 C117.1415,35.4221 117.2005,35.0591 117.3175,34.8011 C117.4345,34.5431 117.6805,34.4141 118.0555,34.4141 L119.4155,34.4141 L119.5085,33.7821 L119.1805,23.5861 L119.4385,12.8991 C119.4385,11.1021 119.3605,9.3991 119.2045,7.7891 L117.3405,7.7891 C116.7705,7.7891 116.3525,7.7001 116.0865,7.5201 C115.8215,7.3401 115.6885,7.0001 115.6885,6.5001 C115.6885,5.7501 116.5555,5.3831 118.2905,5.3991 L118.4545,5.3991 C122.5635,5.3991 124.6185,5.9461 124.6185,7.0391 C124.6185,7.2111 124.5245,7.5081 124.3365,7.9301 L121.8765,7.9301 C122.0015,9.1021 122.0635,10.4771 122.0635,12.0551 L121.8055,21.2191 L122.1575,31.4141 L122.1575,32.8441 C122.1575,33.1251 122.1025,33.5551 121.9935,34.1331 L124.0325,34.1331 C125.3445,34.1331 126.0015,34.5321 126.0015,35.3291 C126.0015,35.6881 125.8875,35.9931 125.6615,36.2431 C125.4345,36.4931 125.1805,36.6181 124.8995,36.6181 L122.8135,36.6411 Z" id="Fill-16"></path>
                    <path d="M132.3057,18.2427 L132.5867,30.6647 L132.5867,36.1017 C132.5867,36.5237 132.4777,36.8797 132.2587,37.1687 C132.0397,37.4577 131.7357,37.6017 131.3447,37.6017 C130.2977,37.6017 129.7747,36.6257 129.7747,34.6727 L129.6807,17.7507 L129.9617,8.7977 C129.9617,6.6407 130.5477,5.5627 131.7197,5.5627 C132.4227,5.5627 132.9307,6.1017 133.2427,7.1797 C133.6807,9.2427 134.4427,12.2077 135.5287,16.0747 C136.6147,19.9417 137.3607,22.8837 137.7667,24.8987 C138.0637,25.8837 138.4467,27.3407 138.9147,29.2697 C139.3837,31.1997 139.7507,32.6487 140.0167,33.6177 C140.1417,26.6807 140.2037,18.2737 140.2037,8.3987 L140.1337,7.1097 C140.1337,6.6727 140.2157,6.3247 140.3797,6.0667 C140.5437,5.8087 140.8217,5.6797 141.2117,5.6797 C141.6027,5.6797 141.9227,5.7737 142.1727,5.9617 C142.6727,6.3367 142.9227,6.8677 142.9227,7.5547 C142.9227,11.9457 142.7977,17.5867 142.5477,24.4767 C142.2977,31.3677 141.9227,35.6727 141.4227,37.3907 C141.3607,37.4067 141.2277,37.4497 141.0247,37.5197 C140.8217,37.5907 140.6727,37.6337 140.5787,37.6487 C139.6887,37.8517 139.1257,37.8127 138.8917,37.5317 C138.6577,37.2507 138.4897,36.8757 138.3877,36.4067 C138.2857,35.9377 138.1687,35.4807 138.0357,35.0357 C137.9037,34.5907 137.4077,32.4617 136.5477,28.6487 C134.2507,18.5707 132.8367,12.7117 132.3057,11.0707 L132.3057,18.2427 Z" id="Fill-18"></path>
                    <path d="M152.1807,35.3755 L154.0787,35.2585 C155.2977,35.2585 155.9077,35.6485 155.9077,36.4305 C155.9077,36.9145 155.6967,37.2665 155.2747,37.4845 C154.8527,37.7035 154.3757,37.8135 153.8447,37.8135 L149.3217,37.8135 C148.9147,37.8135 148.5677,37.6725 148.2787,37.3915 C147.9897,37.1095 147.8327,36.7505 147.8097,36.3125 C147.7857,35.8755 147.8177,35.3285 147.9037,34.6725 C147.9897,34.0165 148.0327,33.4925 148.0327,33.1025 L147.7977,26.9615 L148.1257,12.9455 L147.8687,8.8915 C147.8687,6.6255 148.5397,5.4925 149.8837,5.4925 C150.2587,5.4925 150.6107,5.6095 150.9387,5.8445 C151.0637,5.8595 151.3647,5.8875 151.8407,5.9265 C152.3177,5.9655 152.7357,6.0165 153.0947,6.0785 C153.4537,6.1415 153.8447,6.2275 154.2667,6.3365 C155.1727,6.5865 155.6257,7.0165 155.6257,7.6255 C155.6257,8.2815 155.1577,8.7815 154.2197,9.1255 C152.7507,8.6255 151.5397,8.3205 150.5867,8.2115 C150.6337,8.8985 150.6577,9.5865 150.6577,10.2735 L150.4467,17.1645 C150.4467,17.1955 150.4937,17.4455 150.5867,17.9145 L152.2977,17.8445 C153.8447,17.8445 154.6187,18.2815 154.6187,19.1565 C154.6187,19.6255 154.4817,20.0395 154.2077,20.3985 C153.9347,20.7585 153.5477,20.9375 153.0477,20.9375 C152.5477,20.9375 152.1107,20.7975 151.7357,20.5165 L150.5167,20.5165 C150.6107,21.7345 150.6577,22.8915 150.6577,23.9845 L150.4467,32.6805 C150.4467,34.4775 151.0247,35.3755 152.1807,35.3755" id="Fill-20"></path>
                </g>
                <g id="Skal-giftes" transform="translate(59.000000, 65.000000)" sketch:type="MSShapeGroup">
                    <path d="M0.0781,31.1641 L2.6091,31.5161 C3.2191,31.5161 3.7501,31.2501 4.2031,30.7191 C4.6561,30.1871 4.9921,29.5231 5.2111,28.7261 C5.6331,27.1951 5.8441,25.8401 5.8441,24.6601 C5.8441,23.4801 5.6481,22.3121 5.2581,21.1561 C4.8671,20.0001 4.3901,18.9261 3.8281,17.9341 C3.2661,16.9411 2.6951,15.9301 2.1171,14.8981 C0.7731,12.4771 0.1011,10.0861 0.1011,7.7271 C0.1011,6.2891 0.3441,5.0161 0.8281,3.9061 C1.7341,1.8441 2.9371,0.8121 4.4371,0.8121 C5.0001,0.8121 5.5351,0.9921 6.0431,1.3521 C6.5511,1.7111 6.8051,2.1021 6.8051,2.5231 C6.8051,3.2581 6.4141,3.6251 5.6331,3.6251 C5.2891,3.6251 4.9531,3.5311 4.6251,3.3441 C3.6091,3.3911 2.9221,4.5231 2.5621,6.7421 C2.4841,7.2271 2.4451,7.7931 2.4451,8.4411 C2.4451,9.0901 2.5861,9.8911 2.8671,10.8441 C3.1481,11.7971 3.5041,12.6441 3.9331,13.3871 C4.3631,14.1291 4.8241,14.9491 5.3161,15.8481 C5.8081,16.7461 6.2731,17.6171 6.7111,18.4611 C7.6951,20.4141 8.1871,22.6481 8.1871,25.1641 C8.1871,27.1641 7.7891,29.0161 6.9921,30.7191 C6.5701,31.5941 5.9731,32.3091 5.1991,32.8631 C4.4261,33.4181 3.5311,33.7031 2.5161,33.7191 L2.5161,33.8361 C1.9221,33.7581 1.3831,33.5591 0.8981,33.2381 C0.4141,32.9181 0.1401,32.5001 0.0781,31.9841 L0.0781,31.1641 Z" id="Fill-23"></path>
                    <path d="M15.8984,2.9922 L15.5004,11.7342 L15.5004,14.2422 C15.5934,14.0702 16.1794,12.8052 17.2574,10.4452 C19.9604,4.6012 21.6484,1.6802 22.3204,1.6802 C22.7894,1.6802 23.2144,1.7892 23.5974,2.0082 C23.9804,2.2262 24.1714,2.5472 24.1714,2.9692 C24.1714,3.0002 23.3594,4.3552 21.7344,7.0352 C20.1094,9.7152 19.2034,11.2502 19.0154,11.6402 L18.9214,14.5002 C18.9214,15.8752 19.4724,18.4452 20.5744,22.2112 C21.6754,25.9762 22.5934,28.4692 23.3284,29.6872 C23.4214,29.8282 23.6284,30.1172 23.9494,30.5542 C24.2694,30.9922 24.5034,31.3752 24.6524,31.7032 C24.8004,32.0312 24.8754,32.3752 24.8754,32.7342 C24.8754,33.0942 24.7384,33.3942 24.4644,33.6372 C24.1914,33.8792 23.8754,34.0002 23.5154,34.0002 C22.7654,34.0002 21.9844,33.2072 21.1714,31.6212 C20.3594,30.0352 19.6324,28.0942 18.9924,25.7972 C17.9144,21.8752 17.1254,18.4612 16.6254,15.5552 C16.0934,16.1012 15.6834,16.8322 15.3944,17.7462 C15.1054,18.6602 14.9614,19.2892 14.9614,19.6332 L14.9614,32.7812 C14.9614,33.5312 14.6094,33.9062 13.9064,33.9062 C13.4214,33.9062 13.0354,33.7692 12.7464,33.4962 C12.4574,33.2222 12.3124,32.8512 12.3124,32.3832 L12.3124,17.8052 C12.3124,16.0702 12.4644,13.4802 12.7694,10.0352 C13.0744,6.5902 13.2264,4.0082 13.2264,2.2892 C13.5074,1.6802 13.9144,1.3752 14.4454,1.3752 C15.4144,1.3752 15.8984,1.9142 15.8984,2.9922" id="Fill-25"></path>
                    <path d="M36.4766,24.3906 C36.3826,23.9216 36.3356,23.1636 36.3356,22.1176 C36.3356,21.0706 36.2696,19.8006 36.1366,18.3086 C36.0036,16.8166 35.8126,15.0856 35.5626,13.1176 C35.3126,11.1486 35.1406,9.7266 35.0466,8.8516 C34.8596,9.7576 34.4926,11.2736 33.9456,13.3986 C32.8356,17.8206 32.2656,21.2266 32.2346,23.6176 C32.7816,23.9766 34.1956,24.2346 36.4766,24.3906 M39.7576,25.4216 L39.4996,26.3826 C39.4996,26.7736 39.6406,27.7266 39.9216,29.2426 C40.2036,30.7576 40.3436,31.7496 40.3436,32.2186 L40.3436,32.2656 C40.3436,32.9846 40.1016,33.4376 39.6176,33.6246 C38.9456,33.6246 38.4216,33.5156 38.0466,33.2966 C37.6716,33.0786 37.4846,32.5276 37.4846,31.6446 C37.4846,30.7616 37.2496,28.9456 36.7816,26.1956 L35.3046,26.0546 L33.7106,26.0546 C33.3516,25.8986 32.7186,25.8206 31.8126,25.8206 C31.8126,25.8516 31.7926,26.0586 31.7536,26.4416 C31.7146,26.8246 31.6836,27.1326 31.6606,27.3676 C31.6366,27.6016 31.5976,27.9496 31.5426,28.4106 C31.4886,28.8706 31.4296,29.2616 31.3676,29.5816 C31.3046,29.9026 31.2266,30.2776 31.1326,30.7066 C31.0396,31.1366 30.9336,31.4956 30.8166,31.7856 C30.6996,32.0746 30.5706,32.3516 30.4296,32.6176 C30.1486,33.1636 29.8046,33.4376 29.3986,33.4376 C28.9926,33.4376 28.6286,33.3166 28.3086,33.0746 C27.9886,32.8316 27.8286,32.5236 27.8286,32.1486 C28.6716,28.9136 29.3946,25.5236 29.9966,21.9766 C30.5976,18.4296 30.9566,16.3246 31.0746,15.6606 C31.1916,14.9956 31.4646,13.7146 31.8946,11.8166 C32.3246,9.9176 32.5816,8.6486 32.6676,8.0076 C32.7536,7.3676 32.8356,6.5386 32.9136,5.5236 C33.0546,3.3046 33.3436,1.8746 33.7816,1.2346 L35.3986,1.2346 C36.4926,1.2346 37.0386,1.5626 37.0386,2.2186 C37.0386,8.3906 37.6406,14.5236 38.8436,20.6176 C38.9066,20.9766 39.0236,21.4766 39.1956,22.1176 C39.5706,23.5076 39.7576,24.6096 39.7576,25.4216" id="Fill-28"></path>
                    <path d="M47.2813,6.2734 L47.4223,17.8044 C47.2343,18.2574 47.1403,19.1254 47.1403,20.4064 L46.9533,28.0464 C46.9533,30.2504 47.4923,31.3514 48.5703,31.3514 L50.5623,31.2814 C52.2813,31.2814 53.1403,31.7504 53.1403,32.6874 C53.1403,33.0314 52.9923,33.3164 52.6953,33.5434 C52.3983,33.7694 52.0623,33.9064 51.6873,33.9534 C50.5153,33.5784 49.0863,33.3904 47.3983,33.3904 C46.8833,33.6874 46.3863,33.8354 45.9103,33.8354 C45.4333,33.8354 45.0623,33.6714 44.7973,33.3434 C44.5313,33.0154 44.3983,32.6564 44.3983,32.2654 L44.8673,10.8204 L44.8673,10.4684 C44.7733,9.4684 44.7263,7.9684 44.7263,5.9684 C44.7263,2.9374 45.2813,1.4214 46.3903,1.4214 C46.7193,1.4214 47.0043,1.5394 47.2463,1.7734 C47.4883,2.0074 47.6093,2.2894 47.6093,2.6174 L47.2813,6.2734 Z" id="Fill-30"></path>
                    <path d="M70.6963,21.0156 L69.8523,21.0386 C69.3993,21.0386 69.0393,20.9646 68.7733,20.8166 C68.5083,20.6676 68.3753,20.3706 68.3753,19.9256 C68.3753,19.4806 68.5193,19.1406 68.8083,18.9066 C69.0983,18.6716 69.4533,18.5546 69.8753,18.5546 L69.8753,18.5776 C73.0013,18.5776 74.5633,19.0706 74.5633,20.0546 L74.0483,23.5466 L74.2823,28.6326 C74.2823,29.5546 74.2123,30.3436 74.0713,30.9996 C72.2123,32.7036 70.5633,33.5546 69.1253,33.5546 C68.3593,33.5546 67.6563,33.3476 67.0153,32.9336 C66.3753,32.5196 65.7503,31.8126 65.1403,30.8126 C64.5313,29.8126 64.0003,27.9106 63.5473,25.1056 C63.0933,22.3006 62.8673,20.3516 62.8673,19.2576 C62.8673,18.1636 62.8903,17.2576 62.9373,16.5386 C62.9843,15.8206 63.0543,15.0036 63.1483,14.0896 C63.2423,13.1756 63.2973,12.5816 63.3123,12.3086 C63.3283,12.0356 63.3553,11.6446 63.3943,11.1366 C63.4333,10.6286 63.4723,10.1446 63.5113,9.6836 C63.5503,9.2226 63.6363,8.5746 63.7693,7.7386 C63.9023,6.9026 64.0473,6.2426 64.2033,5.7576 C64.3593,5.2736 64.5863,4.7226 64.8833,4.1056 C65.1793,3.4886 65.5233,3.0076 65.9143,2.6636 C66.8673,1.8516 67.9723,1.4456 69.2313,1.4456 C70.4893,1.4456 71.1183,1.8516 71.1183,2.6636 C71.1183,3.0386 70.9813,3.3476 70.7083,3.5896 C70.4343,3.8316 70.1183,3.9536 69.7583,3.9536 L68.8903,3.8356 C67.9533,3.8356 67.2423,4.9296 66.7583,7.1176 C66.2893,9.2426 66.0153,11.1566 65.9373,12.8596 C65.7973,15.4686 65.7263,17.2066 65.7263,18.0746 C65.7263,18.9416 65.7303,19.6136 65.7383,20.0896 C65.7463,20.5666 65.7613,21.1606 65.7853,21.8706 C65.8083,22.5816 65.8473,23.2106 65.9023,23.7576 C65.9573,24.3046 66.0313,24.9106 66.1253,25.5746 C66.2183,26.2386 66.3323,26.8166 66.4653,27.3086 C66.5973,27.8006 66.7613,28.2926 66.9573,28.7856 C67.1523,29.2776 67.3753,29.6796 67.6253,29.9926 C68.1873,30.6956 68.8593,31.0466 69.6413,31.0466 C71.0323,31.0466 71.7123,28.3516 71.6803,22.9606 L71.6803,21.2026 C71.4773,21.0776 71.1493,21.0156 70.6963,21.0156" id="Fill-32"></path>
                    <path d="M84.876,32.6406 L83.071,32.6636 L80.985,32.7576 C80.095,32.7576 79.501,32.4686 79.204,31.8906 C79.204,31.4216 79.263,31.0586 79.38,30.8006 C79.497,30.5426 79.743,30.4136 80.118,30.4136 L81.478,30.4136 L81.571,29.7816 L81.243,19.5856 L81.501,8.8986 C81.501,7.1016 81.423,5.3986 81.267,3.7886 L79.403,3.7886 C78.833,3.7886 78.415,3.6996 78.149,3.5196 C77.884,3.3396 77.751,2.9996 77.751,2.4996 C77.751,1.7496 78.618,1.3826 80.353,1.3986 L80.517,1.3986 C84.626,1.3986 86.681,1.9456 86.681,3.0386 C86.681,3.2106 86.587,3.5076 86.399,3.9296 L83.939,3.9296 C84.064,5.1016 84.126,6.4766 84.126,8.0546 L83.868,17.2186 L84.22,27.4136 L84.22,28.8436 C84.22,29.1246 84.165,29.5546 84.056,30.1326 L86.095,30.1326 C87.407,30.1326 88.064,30.5316 88.064,31.3286 C88.064,31.6876 87.95,31.9926 87.724,32.2426 C87.497,32.4926 87.243,32.6176 86.962,32.6176 L84.876,32.6406 Z" id="Fill-34"></path>
                    <path d="M94.7197,15.5312 L95.6107,15.5082 C97.1577,15.5082 97.9307,15.9292 97.9307,16.7732 C97.9307,17.1952 97.7587,17.5352 97.4147,17.7932 C97.0717,18.0512 96.6217,18.1792 96.0677,18.1792 C95.5127,18.1792 94.9387,18.0862 94.3447,17.8982 L94.3447,31.4922 C94.3447,33.0862 93.8057,33.8832 92.7277,33.8832 L91.3917,32.8752 C91.6417,30.1092 91.8097,26.1682 91.8957,21.0512 C91.9817,15.9332 92.1067,11.9372 92.2707,9.0622 C92.4347,6.1872 92.5167,4.0472 92.5167,2.6402 C92.5167,2.1872 92.7077,1.8362 93.0907,1.5862 C93.4737,1.3362 93.9037,1.2112 94.3797,1.2112 C94.8567,1.2112 95.3757,1.2262 95.9387,1.2582 C99.0947,1.4922 100.6727,2.1252 100.6727,3.1562 C100.6727,4.0622 99.8607,4.5152 98.2357,4.5152 C97.5947,4.2032 96.5717,4.0472 95.1647,4.0472 L95.1647,4.6092 L94.7197,14.2422 L94.7197,15.5312 Z" id="Fill-36"></path>
                    <path d="M108.6416,28.7266 L108.7356,27.0856 C108.6106,26.6796 108.3526,23.0666 107.9616,16.2466 C107.5716,9.4256 107.3606,5.2656 107.3296,3.7656 C105.4856,3.7186 104.3446,3.5506 103.9076,3.2616 C103.4696,2.9726 103.2506,2.6716 103.2506,2.3596 C103.2506,2.0466 103.4226,1.7926 103.7666,1.5976 C104.1106,1.4026 104.4466,1.3046 104.7746,1.3046 L111.2896,1.7496 L112.0636,1.7266 C113.0636,1.7266 113.5636,2.1096 113.5636,2.8746 C113.5636,3.2656 113.3996,3.5816 113.0716,3.8246 C112.7436,4.0666 112.3756,4.1876 111.9696,4.1876 L109.7666,3.8596 L109.6726,4.3516 C109.6726,7.3826 109.9386,11.9216 110.4696,17.9686 C111.0006,24.0156 111.2666,28.5626 111.2666,31.6096 C111.2666,31.9996 111.1216,32.3356 110.8326,32.6176 C110.5436,32.8986 110.2036,33.0386 109.8136,33.0386 L108.7356,33.0386 L108.6416,28.7266 Z" id="Fill-38"></path>
                    <path d="M121.8369,31.375 L123.7349,31.258 C124.9539,31.258 125.5639,31.648 125.5639,32.43 C125.5639,32.914 125.3529,33.266 124.9309,33.484 C124.5089,33.703 124.0319,33.813 123.5009,33.813 L118.9779,33.813 C118.5709,33.813 118.2239,33.672 117.9349,33.391 C117.6459,33.109 117.4889,32.75 117.4659,32.312 C117.4419,31.875 117.4739,31.328 117.5599,30.672 C117.6459,30.016 117.6889,29.492 117.6889,29.102 L117.4539,22.961 L117.7819,8.945 L117.5249,4.891 C117.5249,2.625 118.1959,1.492 119.5399,1.492 C119.9149,1.492 120.2669,1.609 120.5949,1.844 C120.7199,1.859 121.0209,1.887 121.4969,1.926 C121.9739,1.965 122.3919,2.016 122.7509,2.078 C123.1099,2.141 123.5009,2.227 123.9229,2.336 C124.8289,2.586 125.2819,3.016 125.2819,3.625 C125.2819,4.281 124.8139,4.781 123.8759,5.125 C122.4069,4.625 121.1959,4.32 120.2429,4.211 C120.2899,4.898 120.3139,5.586 120.3139,6.273 L120.1029,13.164 C120.1029,13.195 120.1499,13.445 120.2429,13.914 L121.9539,13.844 C123.5009,13.844 124.2749,14.281 124.2749,15.156 C124.2749,15.625 124.1379,16.039 123.8639,16.398 C123.5909,16.758 123.2039,16.937 122.7039,16.937 C122.2039,16.937 121.7669,16.797 121.3919,16.516 L120.1729,16.516 C120.2669,17.734 120.3139,18.891 120.3139,19.984 L120.1029,28.68 C120.1029,30.477 120.6809,31.375 121.8369,31.375" id="Fill-40"></path>
                    <path d="M128.915,31.1641 L131.446,31.5161 C132.056,31.5161 132.587,31.2501 133.04,30.7191 C133.493,30.1871 133.829,29.5231 134.048,28.7261 C134.47,27.1951 134.681,25.8401 134.681,24.6601 C134.681,23.4801 134.485,22.3121 134.095,21.1561 C133.704,20.0001 133.227,18.9261 132.665,17.9341 C132.103,16.9411 131.532,15.9301 130.954,14.8981 C129.61,12.4771 128.938,10.0861 128.938,7.7271 C128.938,6.2891 129.181,5.0161 129.665,3.9061 C130.571,1.8441 131.774,0.8121 133.274,0.8121 C133.837,0.8121 134.372,0.9921 134.88,1.3521 C135.388,1.7111 135.642,2.1021 135.642,2.5231 C135.642,3.2581 135.251,3.6251 134.47,3.6251 C134.126,3.6251 133.79,3.5311 133.462,3.3441 C132.446,3.3911 131.759,4.5231 131.399,6.7421 C131.321,7.2271 131.282,7.7931 131.282,8.4411 C131.282,9.0901 131.423,9.8911 131.704,10.8441 C131.985,11.7971 132.341,12.6441 132.77,13.3871 C133.2,14.1291 133.661,14.9491 134.153,15.8481 C134.645,16.7461 135.11,17.6171 135.548,18.4611 C136.532,20.4141 137.024,22.6481 137.024,25.1641 C137.024,27.1641 136.626,29.0161 135.829,30.7191 C135.407,31.5941 134.81,32.3091 134.036,32.8631 C133.263,33.4181 132.368,33.7031 131.353,33.7191 L131.353,33.8361 C130.759,33.7581 130.22,33.5591 129.735,33.2381 C129.251,32.9181 128.977,32.5001 128.915,31.9841 L128.915,31.1641 Z" id="Fill-42"></path>
                </g>
                <text id="den-27.-august-2016" sketch:type="MSTextLayer" font-family="Amatic SC" font-size="16" font-weight="normal">
                    <tspan x="84" y="131">den 27. august 2016</tspan>
                </text>
            </g>
        </g>
    </g>
</svg>