<?xml version="1.0" encoding="utf-8"?>
<!-- Generator: Adobe Illustrator 20.1.0, SVG Export Plug-In . SVG Version: 6.00 Build 0)  -->
<svg version="1.1" id="Layer_1" xmlns="http://www.w3.org/2000/svg" xmlns:xlink="http://www.w3.org/1999/xlink" x="0px" y="0px"
	 viewBox="0 0 632.1 372.3" style="enable-background:new 0 0 632.1 372.3;" xml:space="preserve">
<style type="text/css">
	.st0{fill:#FFFFFF;}
	.st1{display:none;fill:#FFFFFF;}
</style>
<g>
	<g>
		<g>
			<g>
				<g>
					<g>
						<path class="st0" d="M618.4,149.2c0.4,0,0.2-0.2,0.3-0.2C618,149,618.4,149.2,618.4,149.2z"/>
						<polygon class="st0" points="612.1,149.6 612.2,149.6 611.3,149.8 						"/>
						<path class="st0" d="M606.2,149.6c0.6,0.4,2.1-0.1,3.2,0.1l0.2,0.1l0.5-0.3C608.8,149.6,607.1,149.7,606.2,149.6z"/>
						<path class="st0" d="M603.1,148.9c0.2,0.1-0.7,0.1,0.7,0c-0.1,0-0.1,0-0.1,0C603.6,148.9,603.4,148.9,603.1,148.9z"/>
						<path class="st0" d="M603.7,148.9C604.3,148.9,603.3,148.8,603.7,148.9L603.7,148.9z"/>
						<path class="st0" d="M600.9,149l0.8-0.1c-0.2-0.1-0.9-0.1-0.6-0.2C600.2,148.7,600.4,148.8,600.9,149z"/>
						<path class="st0" d="M600.1,149.2l0.4-0.1C600.4,149.1,600.3,149.1,600.1,149.2z"/>
						<path class="st0" d="M601.4,149.1l-0.9,0.1c0.1,0.1,0.1,0.2,0.4,0C600.9,149.2,601,149.1,601.4,149.1z"/>
						<path class="st0" d="M601.9,149.1c0.5,0.1,1,0.1,0.2,0.2C603.7,149.3,603.5,149.1,601.9,149.1z"/>
						<path class="st0" d="M605.9,150l0.6,0.1l0.5-0.1C606.8,150.1,605.9,149.9,605.9,150z"/>
						<path class="st0" d="M595.8,148.8c-0.1,0.1,0.3,0.2,0.3,0.3l0.6-0.1C596.4,148.9,595.8,148.9,595.8,148.8z"/>
						<path class="st0" d="M596.1,149.1l-0.9,0.1C596,149.2,596.2,149.2,596.1,149.1z"/>
						<polygon class="st0" points="599.9,149.6 601.4,149.3 599.7,149.6 						"/>
						<polygon class="st0" points="592.4,148.8 592.9,148.6 592,148.9 						"/>
						<path class="st0" d="M590.1,148.8c0.4-0.1-0.5-0.2-0.1-0.3c-0.6,0-1.1,0.2-1.6,0.3C588.9,148.7,589.4,148.7,590.1,148.8z"/>
						<path class="st0" d="M587.6,148.9c0.3,0,0.5-0.1,0.8-0.2C588.1,148.8,587.8,148.8,587.6,148.9z"/>
						<path class="st0" d="M593.7,149.2c-0.1,0-0.2-0.2-0.7-0.2l0.4,0.2C593.5,149.2,593.6,149.2,593.7,149.2z"/>
						<path class="st0" d="M593.4,149.2L593.4,149.2c-0.4,0-0.7,0-0.8,0C592.7,149.2,592.9,149.2,593.4,149.2z"/>
						<path class="st0" d="M593.8,149.2C593.8,149.2,593.7,149.2,593.8,149.2C593.7,149.2,593.8,149.2,593.8,149.2z"/>
						<path class="st0" d="M597.6,149.4c-0.5,0.1-1.6,0.2-0.6,0.4C597.4,149.7,596.8,149.6,597.6,149.4z"/>
						<path class="st0" d="M594.2,149.4h1c0-0.1-0.2-0.1,0.1-0.2L594.2,149.4z"/>
						<polygon class="st0" points="593.8,149.5 594.2,149.4 593.9,149.4 						"/>
						<path class="st0" d="M589.2,149.1c-0.4,0.1-0.9,0.1-1.4,0.1c0.5,0,1.1,0.1,1.6,0.1C589.5,149.2,589.8,149.1,589.2,149.1z"/>
						<path class="st0" d="M591.2,149.1C591.2,149.2,591.2,149.2,591.2,149.1C591.2,149.2,591.2,149.2,591.2,149.1z"/>
						<path class="st0" d="M582.8,149.2C582.8,149.2,582.9,149.2,582.8,149.2C582.9,149.2,582.9,149.2,582.8,149.2L582.8,149.2z"/>
						<path class="st0" d="M589.6,149.3c0.4,0,0.7,0,0.9-0.1C590.1,149.3,589.8,149.3,589.6,149.3S589.4,149.3,589.6,149.3z"/>
						<path class="st0" d="M586.2,149c0.2,0,0.5,0.1,0.7,0.1C586.7,149,586.2,148.9,586.2,149z"/>
						<path class="st0" d="M591,149.1L591,149.1C590.9,149,590.9,149.1,591,149.1z"/>
						<path class="st0" d="M591,149.1c-0.2,0-0.4,0.1-0.5,0.1c0.2,0,0.5,0,0.7-0.1C591.1,149.1,591,149.1,591,149.1z"/>
						<path class="st0" d="M581.3,150.6c0.1-0.2,1.2-0.4,2.1-0.2c0.9-0.1,0.3-0.8-0.5-1.2c0,0.1,0,0.2-1,0.3
							c0.3,0.1,2.1,0.3,1.3,0.4c-1.2,0.1-1-0.1-1.6-0.2c0.5,0.2-1.6,0.4-1.3,0.7l1.1-0.1C581.4,150.4,581,150.5,581.3,150.6z"/>
						<path class="st0" d="M584.7,149.3h0.4c-0.4,0-0.8-0.1-1.3-0.3c-0.6,0.1-0.8,0.2-0.8,0.2h1.9L584.7,149.3z"/>
						<path class="st0" d="M586.8,149.2c-0.3,0.2-1.2,0.3-0.7,0.5c1.1,0,0.8-0.2,1.5-0.3C585.8,149.6,588.1,149.4,586.8,149.2
							c0.4,0,0.7,0,1,0c-0.3,0-0.7-0.1-1-0.1l0,0l0,0l0,0c0.1,0,0.1,0,0,0C586.9,149.2,586.9,149.2,586.8,149.2
							C586.9,149.2,586.8,149.2,586.8,149.2C586.3,149.2,586.7,149.2,586.8,149.2c0.1-0.1,0.1-0.1,0.1-0.1l0,0l-1.8,0.1
							C585.5,149.3,585.9,149.3,586.8,149.2z"/>
						<path class="st0" d="M596,150.3L596,150.3C595.9,150.3,595.8,150.3,596,150.3z"/>
						<path class="st0" d="M595.3,150.2c0.1,0,0.2-0.1,0.7-0.1c0.4,0.1,0,0.1,0,0.2c0.3-0.1,0.9-0.2,0.1-0.3H596
							c-0.7-0.1-1.7-0.3-1.6-0.4C594.6,149.9,594.8,150,595.3,150.2z"/>
						<path class="st0" d="M591,149.8l-1.5,0.1l0.8,0.2V150C591.1,150,590.9,149.9,591,149.8z"/>
						<polygon class="st0" points="582.6,149.1 582.8,148.9 581.9,149.2 						"/>
						<polygon class="st0" points="580.6,149.1 580.7,148.9 580.2,149 						"/>
						<path class="st0" d="M468.2,151.6l-0.5,0.1C468,151.6,468.1,151.6,468.2,151.6z"/>
						<path class="st0" d="M471.5,151.6L471.5,151.6C471.4,151.5,471.3,151.6,471.5,151.6z"/>
						<path class="st0" d="M531.7,149.1c-0.7-0.2-1.4-0.5-1.3-0.2l0.2,0.2C531,149.1,531.4,149.1,531.7,149.1z"/>
						<path class="st0" d="M498.2,150.4c0.1,0,0.1,0,0.2,0.1c0.2-0.1,0.3-0.1,0.4-0.2C498.6,150.3,498.4,150.4,498.2,150.4z"/>
						<path class="st0" d="M497.7,151.3l-0.9-0.1C497.1,151.2,497.3,151.3,497.7,151.3z"/>
						<path class="st0" d="M450.4,151.8l-0.5,0.2C450.7,152,450.3,151.9,450.4,151.8z"/>
						<path class="st0" d="M560.2,149.2c-0.6-0.1-1-0.1-1.4-0.1C559.5,149.2,560,149.4,560.2,149.2z"/>
						<path class="st0" d="M469.5,149.3c-0.3,0-0.4,0.1-0.4,0.1C469.4,149.4,469.5,149.3,469.5,149.3z"/>
						<path class="st0" d="M557.2,149.1c0.1,0,0.2,0,0.3,0.1c0.4,0,0.8-0.1,1.3-0.1C558.3,149,557.7,148.9,557.2,149.1z"/>
						<path class="st0" d="M385.8,151.6L385.8,151.6C385.6,151.6,385.7,151.6,385.8,151.6z"/>
						<path class="st0" d="M367,149.4c0.2,0,0.5,0,0.8,0C367.6,149.4,367.4,149.4,367,149.4z"/>
						<path class="st0" d="M572.6,149C573,149,572.7,149,572.6,149L572.6,149z"/>
						<path class="st0" d="M574.7,149.9c-0.1,0-0.2,0.1-0.2,0.1C574.5,149.9,574.6,149.9,574.7,149.9z"/>
						<path class="st0" d="M553,150.4C553,150.4,552.9,150.4,553,150.4C553.1,150.5,553,150.5,553,150.4z"/>
						<path class="st0" d="M573.2,149.1c-0.2,0-0.3,0-0.5-0.1C572.8,149.1,573,149.1,573.2,149.1z"/>
						<path class="st0" d="M573.2,149c0.1,0,0.3,0,0.4,0C573.6,149,573.5,149,573.2,149z"/>
						<path class="st0" d="M572,149c0.2,0,0.5,0,0.7,0c-0.1,0-0.1,0-0.1,0C572.5,149,572.3,149,572,149z"/>
						<path class="st0" d="M420.4,151C420.4,151,420.3,151,420.4,151C419.9,151.1,420.1,151.1,420.4,151z"/>
						<path class="st0" d="M520.7,151.4L520.7,151.4L520.7,151.4L520.7,151.4z"/>
						<path class="st0" d="M519.2,151.6c0.6-0.3,1-0.2,1.5-0.2l-0.5-0.6L519.2,151.6z"/>
						<path class="st0" d="M460.4,151.6l1.1,0.2c-1.3,0.3-2.2,0.2-1.2,0.5c0.2-0.7,4.1-0.1,4.3-0.7l0.7,0.1c-0.2,0-0.2,0-0.4,0
							c1.4,0.3,1-0.5,2.8-0.4c0.6,0.1,1,0.2,0.6,0.2l1.4-0.2c0.4,0,0.3,0.1-0.1,0.1l2.1-0.1l0,0c0.3-0.1,1-0.3,1.3-0.3
							c0.5,0.1-0.3,0.1-0.1,0.2l1.2-0.2c0.5,0.2-0.5,0.3-1.3,0.3c1.1,0.7,1-0.2,3.3,0.2l-1.1,0.1c0.7,0.4,1.6,0.2,2.8,0.5
							c-0.3-0.1-2.5-0.6-1.2-0.8c0.4,0.1,0.8,0.1,1.5-0.1c0,0.2,0.7,0.2,1.5,0.2l-0.1,0.3c0.9-0.1,0.8-0.3,1.3-0.4
							c1,0,1.2,0.3,1.4,0.5c1.6,0.1-1.1-0.4,0.8-0.5c1.3,0.1,2.3,0,3.8-0.2c0.9,0.1-0.2,0.2,0.2,0.3l0.8-0.3c0.2,0,0.1,0.1,0.1,0.1
							c0.7-0.1,0.1-0.3,1.1-0.4c0.3-0.4,2.2,0.5,3.6,0.1c0.3,0.1-0.2,0.2-0.1,0.3c1.8-0.3,1.6-0.2,3.1-0.5l1.3,0.2
							c-1-0.2,0.3-0.5,1.3-0.8c-0.3-0.1-0.6-0.2-0.8-0.3l1.7-0.2c0.2,0.1,0,0.2-0.2,0.3c0.1,0,0.2-0.1,0.3-0.1
							c0.6,0.1,0.3,0.3-0.1,0.5c-0.2-0.1-0.4-0.1-0.6-0.2c-0.4,0.2-0.8,0.4-0.7,0.6c0.1,0,0.3-0.1,0.6-0.1c-0.1,0.1-0.2,0.1-0.1,0.1
							s0.2,0,0.5-0.1l0.4,0.4l0.1-0.1l2.2,0.2c1.6-0.4,3-0.9,5.5-1c-0.6,0.3-0.1,0.4-0.2,0.7c-0.7-0.3-2,0.1-3.3,0.1
							c0.7,0,0.5,0.2,0.4,0.2l2.3-0.3c-0.1,0.3,0.5,0.2,1.1,0.3c-0.5-0.5,1.7-0.3,2.7-0.5c0.1,0.2-0.2,0.3-1.3,0.3
							c1.3,0.4,1.7-0.6,2.9-0.3c-0.3,0-0.4,0-0.5,0.1c0.7-0.1,2.3,0,1.9,0.1h-0.3c1.9,0.1,5.7,0,6-0.4c0,0.1-0.2,0.5-0.4,0.6
							l3.3-1.4c-0.3,0.4,0.8,1.2-0.7,1.4c0.4,0.1,1,0.1,1.9,0c-0.3-0.1-0.8-0.5-0.3-0.6c1.1,0.4,0.8,0.2,2.2,0.6
							c-0.5-0.1,0.1-0.7,0.8-0.6c-0.1,0.1,0.1,0.6-0.2,0.6l1.8-0.6c-0.4,0.1-0.1,0.5,0.3,0.6c-0.2-0.1,1.6,0,2,0l-0.8-0.1
							c2,0.1,2-0.8,4-0.8c-0.2,0.1-0.6,0.7,0.4,0.8c0.5-0.3,2.1-1.4,3.9-1.6l0.3,0.2l1.4-0.2c-0.9,0.4-3.2,1.3-4.5,1.7
							c0.8,0.1,0.2,0.2,1.3,0.2c0.4,0.2-0.6,0.2-1,0.2l2.6,0.1c-0.1-0.3,2-0.3,1.9-0.6l-2.9,0.3c-0.1-0.3,1.7-1,3.5-0.9
							c0.5,0.1-0.4,0.6-0.3,0.7c0.2-0.1,1.8-0.2,2-0.1l-0.8,0.2c1,0.1,1.7-0.4,3-0.1c0.4,0,1.3,0.4,1.4,0.2
							c-0.7-0.4-0.8-1.6-0.4-1.9c0.2,0,2.3,0.4,2.8,0.6c0.7,0.3-1.1,0.7-0.5,1c0-0.1,0.4-0.2,0.6-0.2c0.5,0.1-0.2,0.3,0.8,0.2
							c0.2-0.3,2,0,0.5-0.3c1-0.1,1,0.1,2.2,0.1c-0.4-0.2,1-0.7,2-0.8c-0.1,0.1,0.2,0.2,0.3,0.3c2,0,3,0.2,4.9,0.2
							c0.2,0.1,1.1,0.2,0.7,0.3c0.3-0.1,0.5-0.2,1.1-0.2c1.1,0.3-1.3,0-0.4,0.4c0.1-0.2,1.5-0.3,2.3-0.4c-0.2-0.3-1.9-0.1-2.7,0.1
							c0-0.4,1.4-0.9,3.3-1.1c1.5-0.1,0.7,0.3,0.9,0.2c2.9,0.1,2.5-0.7,4.9-0.4c1,0.3,0,0.5,0.3,0.7c-1.3,0.1-1.9-0.2-2.8-0.2l1,0.1
							c-0.4,0.1-1.2,0.2-1.7,0.1c0.8,0.2,4.9,0,7.1,0.3c0.4-0.1,1.1-0.2,0.8-0.3h-0.7c-0.6-0.2,1.3-0.3,0.4-0.4
							c0.9-0.2,2-0.4,3.3-0.3l0.2,0.3c0-0.1-0.9-0.2-1.2-0.1c0.6-0.1,2,0.4,2.6,0l-0.9-0.2c0.9-0.2,2.1-0.5,3.3-0.4
							c-0.5-0.3-0.3,0-1.1-0.3c0.7,0.4-3,0-1.8,0.4c-0.9-0.4-1.5-0.2-2.6-0.5c0,0.1,0.4,0.2-0.6,0.1l-0.2,0.1c0,0,0,0-0.1,0
							c0,0,0,0,0.1,0l0,0c0.2,0,0.4,0.1,0.5,0.2c-0.5,0.2-2.1,0.2-2.6,0.3c-0.6,0,0.2-0.1-0.1-0.2l-0.8,0.2
							c-0.1-0.2-1.6-0.4-0.2-0.5h-1.2c-0.7-0.1-1.7-0.2-2.4-0.1c-0.6,0-1.5,0.2-1,0.1l-2,0.1v-0.1c-1.9,0-4,0.4-6.2,0
							c-0.6,0.1-1.3,0.1-2.4,0.1l-0.2-0.2c-0.8,0.1-2.5-0.2-2.9,0c-0.9-0.5-4-0.1-5.5-0.2l-0.1,0.3c-1,0-2,0.1-3.2,0.2l0.1,0.2
							c-1.1,0.2-2.8-0.2-4.5-0.1c0.1-0.1,0.5-0.1,0.9,0c-2-0.5-4.3,0.4-6.1,0c-0.5,0.1-0.8,0.1-1.1,0h0.1c0,0-0.1,0-0.2,0
							c-0.2,0-0.4-0.1-0.6-0.1c0.2,0.1,0.4,0.1,0.5,0.1c-0.4,0-0.9,0-1.4,0.1l-0.2-0.2h-0.1c-0.5-0.1-0.4,0.1-0.1,0.3
							c-0.3,0-0.5,0.1-0.7,0.1c-0.4-0.4-1.4,0.1-2-0.3c-0.4,0.2-2.7,0.2-2.9,0.6c0-0.1-0.2-0.1,0.1-0.1c-0.6,0-1.2-0.1-1.7,0
							l-0.2-0.3l-1.3,0.4c-0.8-0.2-1.1-0.3-0.3-0.5c-1.9,0.4-1.5,0.1-3.1,0.5l0.1-0.2c-0.6,0-1.5,0.3-1.8,0.1
							c-1.3-0.4-6.3-0.1-9.6-0.4c0.6,0.6-1.5-0.3-1.6,0.2c-0.2-0.1-0.6-0.2-0.1-0.3c-1.7,0.1-2.5-0.2-3.7,0.2
							c-0.2-0.1,0.4-0.2,0.2-0.3c-0.1,0-0.5,0.1-0.7,0s0.2-0.1,0.5-0.2c-1.7,0-1.9,0.4-2,0.8c-0.9-0.2-1.3-0.2-1.9,0.1
							c-0.3-0.1-0.8-0.3,0.3-0.3c-0.6,0-3.6-0.2-3.7,0.1c-0.2-0.1-0.8,0-1,0c-1.3,0-1.5,0-2.8,0l0.4,0.1c-0.5,0.4-1.1,0.1-2.1,0.1
							l0,0c-2.4-0.3-1,0.1-3.4-0.2l0.1,0.2c-0.2,0.5-2.1-0.3-3.5-0.1l0.5,0.1c-0.8,0.2-2.1-0.7-2.9-0.8c-0.2,0,0.3-0.1,0.5-0.1
							c-2-0.3-0.3,0.3-1.7,0.4c-0.3-0.2,0.4-0.4-0.6-0.5c-0.5-0.1-2.9,0.6-4.3,0.2c0.3,0.1,0.6,0.3-0.1,0.4c-1.1,0-2.9-0.5-3.8-0.1
							c-0.1,0-0.2-0.1-0.2-0.1c-0.8,0.1-2.6,0.2-3.1,0.4c-0.7-0.8-5,0.4-5-0.4h-2.5l0.1-0.1c-1.6-0.1-2.2,0.1-2.7,0.3
							c-0.4-0.1-0.1-0.1-0.1-0.2c-2.3-0.2-2.6-0.1-4.5,0.3l-0.2-0.2c-0.5,0.1-3.4-0.4-5.6-0.1c0,0,0.1-0.1,0.3-0.1
							c-2.6,0.3-6.1-0.7-7.1,0.2l-1.7,0.2c2.2,0.1-0.3,0.4,0.6,0.5c-0.9,0.1-2.2-0.3-1.2-0.3h0.2c0.4-0.5-2.7-0.2-2.7-0.5
							c-4.3,0-8.5-0.2-12.5-0.3l0.5,0.4h-1.4c-0.4-0.1-0.5-0.3,0.5-0.3c-0.5-0.2-1.7,0.2-1.7,0.3c-2-0.1,0.8-0.4,0.2-0.4h-0.8h0.2
							c-0.7,0.1-0.7,0.3-1.9,0.3c-0.8-0.1-0.4-0.2-0.7-0.2c0,0-0.1,0-0.5,0h-1.8l0.7,0.3c-0.8,0.1-1.7,0-0.8,0.3
							c-1.2-0.5-6.6-0.2-7.4-0.3c-1.1,0.2-2.2,0.2-3.5,0.2c0.3,0.1,0.5,0.4-0.6,0.3c0.4-0.7-2.1-0.3-3.1-0.8c0.8,0.3-3.3,0.1-2,0.5
							c-1-0.1-0.1-0.3-0.8-0.4c-2.3,0.3-5.1-0.2-7.9-0.1c0,0.1,0.4,0.2-0.2,0.4l-1.5-0.4c-0.6,0-0.5,0.5-1.5,0.2
							c0.1,0.1,0.4,0.2,0,0.2c-5.6-0.4-11.4,0.4-17.1-0.5c0.8,0.2,0.3,0.2-0.3,0.2c0.4,0,0,0.2,0.1,0.3l-2.4-0.3
							c-0.4,0.3-2.5,0-2.8,0.3l0.8-0.1c-1,0.4,1.4,0.8,1.3,1.3c1.1-0.4,3,0.6,4.8,0c0.4,0.1-0.3,0.2-0.1,0.3c0.5-0.2,1-0.2,2.1-0.2
							l-0.1,0.1c2.9-0.1,4.2,0.2,7.5,0.3l-0.2-0.2c0.7,0,0.9,0.1,1.2,0.2c0.8-0.4-2,0-1.2-0.4c0.9,0.5,5,0,5.6,0.6
							c1.1,0-0.3-0.3,0.8-0.3l0.3,0.1l0.3-0.2c0.7,0,1.1,0.2,1.1,0.3c-0.2,0-0.5,0-0.7,0c0.9,0.2,2.6-0.1,2.9,0l-1-0.1
							c3-0.1,6.6,0.1,9.5-0.2l-0.2-0.1c2.2-0.2,1.8,0.1,4.2,0h-0.1c0.5-0.1,1.1-0.2,1.8-0.2c-0.6,0.1,1.1,0.3,0.3,0.4
							c2.4-0.2,1.2-0.2,2.7-0.6l0.4,0.2c0.5-0.2,0.6-0.3,1.8-0.3c-1,0.2,0.8,0.3-0.3,0.5c2.5,0.4,3.7-0.4,4.9,0.2
							c1.2-0.5-2.2-0.3-1.5-0.4c-0.5-0.2,1-0.4,1.7-0.3c0.8,0,1.4,0.7,3.4,0.6c-0.2,0-0.2,0-0.4,0c0.8,0.1,1.5-0.2,2.4,0
							c0.5-0.3,1.2,0,1.4-0.4l-1.9,0.1c1.1-0.1,2-0.6,3.8-0.3c-0.1,0.1-0.7,0.2-1,0.2c0.5,0.1,1-0.1,1.5,0c-0.1,0.4-2.3,0.1-3.4,0.4
							c0.5,0.2,2.1-0.3,1.6,0.1c0.8-0.5,2,0.1,3.4-0.3l-0.1,0.2c0.2,0,0.7-0.1,1.1-0.1l-0.7,0.3c1.1-0.3,2.1,0.2,3.2,0.1
							c-2.2,0-0.5-0.3-1.4-0.5c2.7-0.3,1.6,0.6,4.7,0.5c-0.4,0-1.6-0.1-0.9-0.3c0.6,0,1.4,0.1,1.7,0.3c2,0-0.3-0.2,0.6-0.4
							c0.7,0.3,1-0.1,1.9-0.2v0.2c2.3,0.2,0.6-0.5,2.7-0.3l-0.9,0.3l1.1-0.1l-0.2,0.3c1.2-0.2,1.6-0.2,2.7-0.1
							c-0.3-0.2,0.2-0.4,1.2-0.4c0.7,0.1-0.4,0.2,1.1,0.2c-0.3,0.2-0.7,0.3-1.3,0.1c-0.1,0.1-0.3,0.2-0.4,0.2c0.8,0.2,1.9,0,2.4,0
							c-0.2,0-0.4,0-0.6-0.1l2.1-0.3c0.3,0.1,0.1,0.2-0.2,0.2c0.4,0,0.7-0.1,1.4-0.2c-0.2,0.2-0.1,0.4-1,0.5l2-0.2
							c0.1,0.1,1,0.2,0.8,0.3c1.1,0.1,2.7-0.4,4.2-0.2c0.1,0,0.2-0.1,0.5-0.1c1.4,0,2.6,0.3,4.3,0l0.9,0.4c1.3-0.1-1.3-0.4,0.9-0.6
							c1.5-0.1,0.6,0.3,1.1,0.4c0.8-0.2,2.1-0.5,3.5-0.3C461.2,151.7,460.8,151.6,460.4,151.6z M476.3,151.5
							c-0.3,0.1-0.9,0.2-1.1,0.1C475.5,151.3,475.8,151.4,476.3,151.5z M500.5,150.9c-0.2,0.1-0.6,0-1-0.1
							C499.8,150.8,500.2,150.8,500.5,150.9z M568,149.2L568,149.2C567.3,149.1,567.5,149.2,568,149.2z M569.4,149.3
							c0.1,0,0.1-0.1,0.1-0.1c-0.1,0.1-0.4,0.1-0.8,0C568.8,149.3,569,149.4,569.4,149.3z M415.9,149.4l0.3,0.1
							C415.5,149.6,415.7,149.5,415.9,149.4z"/>
						<path class="st0" d="M497.8,151.2c-0.1,0-0.1-0.1-0.1-0.1C497.5,151.1,497.5,151.2,497.8,151.2z"/>
						<path class="st0" d="M450.5,151.8L450.5,151.8C450.4,151.8,450.4,151.8,450.5,151.8L450.5,151.8z"/>
						<path class="st0" d="M547.3,151.4c-0.3,0-0.5-0.1-0.6-0.1C546.7,151.3,546.8,151.4,547.3,151.4z"/>
						<path class="st0" d="M577,148.9l-0.9,0.1c0.4,0,0.6,0,0.8,0.1C576.9,149,576.7,148.9,577,148.9z"/>
						<path class="st0" d="M584.9,150.4c0.1,0,0.3,0,0.4,0v-0.1C584.7,150.3,584.3,150.4,584.9,150.4z"/>
						<path class="st0" d="M577.8,149.7c0.1,0.2,0.6,0.1,1.3,0.1H579C579.2,149.5,578.5,149.6,577.8,149.7z"/>
						<path class="st0" d="M579.3,149.8c0.2,0,0.4,0,0.6,0C579.9,149.7,579.6,149.8,579.3,149.8z"/>
						<path class="st0" d="M571.2,149.2c0.3,0.1,0.2-0.3,0.4-0.2C571.9,148.8,569.6,149.3,571.2,149.2z"/>
						<polygon class="st0" points="578.4,150.4 578.1,150.1 577.8,150.3 						"/>
						<path class="st0" d="M573.3,150.2l1,0.1c0,0,0.1-0.1,0.3-0.1C574,150.2,573.3,150.1,573.3,150.2z"/>
						<path class="st0" d="M574.6,150.2c0.3,0,0.6,0,0.8,0C575.2,150.2,574.9,150.2,574.6,150.2z"/>
						<polygon class="st0" points="577,150.5 576.7,150.4 575.9,150.4 						"/>
						<path class="st0" d="M562.3,150.2l-1.1,0.1c-0.1,0.1,0.2,0.1,0.6,0.1C562,150.3,562.4,150.2,562.3,150.2z"/>
						<path class="st0" d="M565.7,150.8c-0.3-0.1-0.3-0.1-0.5-0.2v0.3L565.7,150.8z"/>
						<path class="st0" d="M562.4,150.9c-0.1,0.1-1.6,0.2-0.2,0.2C562.3,151.1,563.4,151,562.4,150.9z"/>
						<polygon class="st0" points="545.5,150.5 545.8,150.5 545.8,150 						"/>
						<path class="st0" d="M530.7,151.7c1.3,0.1,0.3-0.3,1.5-0.2c0.3-0.1-1-0.1-0.7-0.2C530.7,151.5,530.3,151.4,530.7,151.7z"/>
						<path class="st0" d="M531.5,151.4c0.1,0,0.3,0,0.4-0.1C531.7,151.3,531.6,151.3,531.5,151.4z"/>
						<polygon class="st0" points="363.8,149.2 363,149.1 363.5,149.2 						"/>
						<path class="st0" d="M362.2,149.5l-0.2-0.3l-0.5,0.3C361.7,149.5,362.1,149.5,362.2,149.5z"/>
						<path class="st0" d="M478.7,152.1L478.7,152.1c-0.1-0.2-0.3-0.2-0.7-0.2L478.7,152.1z"/>
						<polygon class="st0" points="467.1,151.9 467.3,151.9 467,151.6 						"/>
						<path class="st0" d="M457.4,152.3c0.4,0,0.9-0.1,1.3,0C457.8,152.3,457.3,151.9,457.4,152.3z"/>
					</g>
				</g>
			</g>
		</g>
	</g>
	<g>
		<g>
			<g>
				<g>
					<g>
						<path class="st0" d="M13.7,151.6c-0.4,0-0.2,0.2-0.3,0.2C14,151.8,13.7,151.6,13.7,151.6z"/>
						<polygon class="st0" points="20,151.1 19.9,151.2 20.8,151 						"/>
						<path class="st0" d="M25.8,151.1c-0.6-0.4-2.1,0.1-3.2-0.1l-0.2-0.1l-0.5,0.3C23.3,151.2,24.9,151,25.8,151.1z"/>
						<path class="st0" d="M28.9,151.9c-0.2-0.1,0.7-0.1-0.7,0c0.1,0,0.1,0,0.1,0C28.5,151.9,28.7,151.9,28.9,151.9z"/>
						<path class="st0" d="M28.4,151.9C27.7,151.9,28.8,152,28.4,151.9L28.4,151.9z"/>
						<path class="st0" d="M31.2,151.8l-0.8,0.1c0.2,0.1,0.9,0.1,0.6,0.2C31.8,152,31.7,152,31.2,151.8z"/>
						<path class="st0" d="M32,151.6l-0.4,0.1C31.6,151.6,31.7,151.7,32,151.6z"/>
						<path class="st0" d="M30.7,151.7l0.9-0.1c-0.1-0.1-0.1-0.2-0.4,0C31.2,151.5,31,151.6,30.7,151.7z"/>
						<path class="st0" d="M30.2,151.7c-0.5-0.1-1-0.1-0.2-0.2C28.4,151.5,28.6,151.7,30.2,151.7z"/>
						<path class="st0" d="M26.1,150.8l-0.6-0.1l-0.5,0.1C25.2,150.7,26.2,150.9,26.1,150.8z"/>
						<path class="st0" d="M36.3,152c0.1-0.1-0.3-0.2-0.3-0.3l-0.6,0.1C35.6,151.8,36.2,151.9,36.3,152z"/>
						<path class="st0" d="M35.9,151.7l0.9-0.1C36,151.6,35.9,151.6,35.9,151.7z"/>
						<polygon class="st0" points="32.1,151.2 30.6,151.4 32.4,151.2 						"/>
						<polygon class="st0" points="39.7,152 39.2,152.2 40.1,151.9 						"/>
						<path class="st0" d="M42,152c-0.4,0.1,0.5,0.2,0.1,0.3c0.6,0,1.1-0.2,1.6-0.3C43.2,152.1,42.7,152.1,42,152z"/>
						<path class="st0" d="M44.5,151.9c-0.3,0-0.5,0.1-0.8,0.2C44,152,44.2,152,44.5,151.9z"/>
						<path class="st0" d="M38.4,151.6c0.1,0,0.2,0.2,0.7,0.2l-0.4-0.2C38.6,151.6,38.5,151.6,38.4,151.6z"/>
						<path class="st0" d="M38.7,151.6L38.7,151.6c0.4,0,0.7,0,0.8,0C39.4,151.6,39.1,151.6,38.7,151.6z"/>
						<path class="st0" d="M38.3,151.6L38.3,151.6L38.3,151.6z"/>
						<path class="st0" d="M34.5,151.4c0.5-0.1,1.6-0.2,0.6-0.4C34.7,151.1,35.3,151.2,34.5,151.4z"/>
						<path class="st0" d="M37.8,151.3h-1c0,0.1,0.2,0.1-0.1,0.2L37.8,151.3z"/>
						<polygon class="st0" points="38.3,151.3 37.8,151.3 38.2,151.4 						"/>
						<path class="st0" d="M42.9,151.7c0.4-0.1,0.9-0.1,1.4-0.1c-0.5,0-1.1-0.1-1.6-0.1C42.5,151.6,42.3,151.7,42.9,151.7z"/>
						<path class="st0" d="M40.8,151.6C40.9,151.6,40.9,151.6,40.8,151.6C40.9,151.6,40.8,151.6,40.8,151.6z"/>
						<path class="st0" d="M49.3,151.6C49.2,151.6,49.2,151.6,49.3,151.6C49.2,151.6,49.2,151.6,49.3,151.6L49.3,151.6z"/>
						<path class="st0" d="M42.5,151.5c-0.4,0-0.7,0-0.9,0.1C41.9,151.5,42.3,151.5,42.5,151.5C42.6,151.5,42.6,151.5,42.5,151.5z"
							/>
						<path class="st0" d="M45.9,151.8c-0.2,0-0.5-0.1-0.7-0.1C45.4,151.7,45.8,151.8,45.9,151.8z"/>
						<path class="st0" d="M41.1,151.7C41.1,151.7,41,151.7,41.1,151.7S41.1,151.7,41.1,151.7z"/>
						<path class="st0" d="M41.1,151.7c0.2,0,0.4-0.1,0.5-0.1c-0.2,0-0.5,0-0.7,0.1C41,151.6,41,151.7,41.1,151.7z"/>
						<path class="st0" d="M50.8,150.2c-0.1,0.2-1.2,0.4-2.1,0.2c-0.9,0.1-0.3,0.8,0.5,1.2c0-0.1,0-0.2,1-0.3
							c-0.3-0.1-2.1-0.3-1.3-0.4c1.2-0.1,1,0.1,1.6,0.2c-0.5-0.2,1.6-0.4,1.3-0.7l-1.1,0.1C50.7,150.3,51.1,150.3,50.8,150.2z"/>
						<path class="st0" d="M47.4,151.5H47c0.4,0,0.8,0.1,1.3,0.3c0.6-0.1,0.8-0.2,0.8-0.2h-1.9L47.4,151.5z"/>
						<path class="st0" d="M45.3,151.5c0.3-0.2,1.2-0.3,0.7-0.5c-1.1,0-0.8,0.2-1.5,0.3C46.3,151.2,43.9,151.4,45.3,151.5
							c-0.4,0-0.7,0-1,0c0.3,0,0.7,0.1,1,0.1l0,0l0,0l0,0c-0.1,0-0.1,0,0,0C45.1,151.6,45.2,151.6,45.3,151.5
							C45.2,151.6,45.2,151.6,45.3,151.5C45.8,151.6,45.3,151.6,45.3,151.5c-0.1,0.1-0.1,0.1-0.1,0.1l0,0l1.8-0.1
							C46.6,151.5,46.1,151.5,45.3,151.5z"/>
						<path class="st0" d="M36,150.5C36.1,150.5,36.1,150.5,36,150.5C36.2,150.5,36.2,150.5,36,150.5z"/>
						<path class="st0" d="M36.8,150.6c-0.1,0-0.2,0.1-0.7,0.1c-0.4-0.1,0-0.1,0-0.2c-0.3,0.1-0.9,0.2-0.1,0.3h0.1
							c0.7,0.1,1.7,0.3,1.6,0.4C37.5,150.9,37.3,150.8,36.8,150.6z"/>
						<path class="st0" d="M41.1,151l1.5-0.1l-0.8-0.2v0.1C41,150.8,41.2,150.9,41.1,151z"/>
						<polygon class="st0" points="49.4,151.7 49.2,151.9 50.1,151.6 						"/>
						<polygon class="st0" points="51.4,151.7 51.4,151.9 51.9,151.7 						"/>
						<path class="st0" d="M163.9,149.2l0.5-0.1C164.1,149.2,164,149.2,163.9,149.2z"/>
						<path class="st0" d="M160.6,149.2L160.6,149.2C160.7,149.2,160.7,149.2,160.6,149.2z"/>
						<path class="st0" d="M100.4,151.6c0.7,0.2,1.4,0.5,1.3,0.2l-0.2-0.2C101,151.7,100.7,151.7,100.4,151.6z"/>
						<path class="st0" d="M133.9,150.3c-0.1,0-0.1,0-0.2-0.1c-0.2,0.1-0.3,0.1-0.4,0.2C133.4,150.4,133.7,150.4,133.9,150.3z"/>
						<path class="st0" d="M134.3,149.4l0.9,0.1C135,149.5,134.7,149.5,134.3,149.4z"/>
						<path class="st0" d="M181.7,149l0.5-0.2C181.4,148.8,181.7,148.9,181.7,149z"/>
						<path class="st0" d="M71.8,151.6c0.6,0.1,1,0.1,1.4,0.1C72.6,151.6,72,151.4,71.8,151.6z"/>
						<path class="st0" d="M162.6,151.5c0.3,0,0.4-0.1,0.4-0.1C162.7,151.4,162.5,151.5,162.6,151.5z"/>
						<path class="st0" d="M74.9,151.7c-0.1,0-0.2,0-0.3-0.1c-0.4,0-0.8,0.1-1.3,0.1C73.8,151.8,74.3,151.9,74.9,151.7z"/>
						<path class="st0" d="M246.3,149.2L246.3,149.2C246.4,149.1,246.4,149.1,246.3,149.2z"/>
						<path class="st0" d="M265.1,151.3c-0.2,0-0.5,0-0.8,0C264.5,151.4,264.7,151.4,265.1,151.3z"/>
						<path class="st0" d="M59.5,151.8C59,151.8,59.4,151.8,59.5,151.8L59.5,151.8z"/>
						<path class="st0" d="M57.4,150.9c0.1,0,0.2-0.1,0.2-0.1C57.5,150.8,57.5,150.9,57.4,150.9z"/>
						<path class="st0" d="M79.1,150.4L79.1,150.4C79,150.3,79,150.3,79.1,150.4z"/>
						<path class="st0" d="M58.8,151.7c0.2,0,0.3,0,0.5,0.1C59.3,151.7,59.1,151.7,58.8,151.7z"/>
						<path class="st0" d="M58.9,151.8c-0.1,0-0.3,0-0.4,0C58.5,151.8,58.5,151.8,58.9,151.8z"/>
						<path class="st0" d="M60,151.7c-0.2,0-0.5,0-0.7,0c0.1,0,0.1,0,0.1,0C59.6,151.7,59.7,151.7,60,151.7z"/>
						<path class="st0" d="M211.7,149.7L211.7,149.7C212.2,149.7,212,149.7,211.7,149.7z"/>
						<path class="st0" d="M111.4,149.4C111.3,149.4,111.3,149.4,111.4,149.4C111.3,149.4,111.4,149.4,111.4,149.4L111.4,149.4z"/>
						<path class="st0" d="M112.9,149.2c-0.6,0.3-1,0.2-1.5,0.2l0.5,0.6L112.9,149.2z"/>
						<path class="st0" d="M171.7,149.1l-1.1-0.2c1.3-0.3,2.2-0.2,1.2-0.5c-0.2,0.7-4.1,0.1-4.3,0.7l-0.7-0.1c0.2,0,0.2,0,0.4,0
							c-1.4-0.3-1,0.5-2.8,0.4c-0.6-0.1-1-0.2-0.6-0.2l-1.4,0.2c-0.4,0-0.3-0.1,0.1-0.1l-2.1,0.1l0,0c-0.3,0.1-1,0.3-1.3,0.3
							c-0.5-0.1,0.3-0.1,0.1-0.2l-1.2,0.2c-0.5-0.2,0.5-0.3,1.3-0.3c-1.1-0.7-1,0.2-3.3-0.2l1.1-0.1c-0.7-0.4-1.6-0.2-2.8-0.5
							c0.3,0.1,2.5,0.6,1.2,0.8c-0.4-0.1-0.8-0.1-1.5,0.1c0-0.2-0.7-0.2-1.5-0.2l0.1-0.3c-0.9,0.1-0.8,0.3-1.3,0.4
							c-1,0-1.2-0.3-1.4-0.5c-1.6-0.1,1.1,0.4-0.8,0.5c-1.3-0.1-2.3,0-3.8,0.2c-0.9-0.1,0.2-0.2-0.2-0.3l-0.8,0.3
							c-0.2,0-0.1-0.1-0.1-0.1c-0.7,0.1-0.1,0.3-1.1,0.4c-0.3,0.4-2.2-0.5-3.6-0.1c-0.3-0.1,0.2-0.2,0.1-0.3
							c-1.8,0.3-1.6,0.2-3.1,0.5l-1.3-0.2c1,0.2-0.3,0.5-1.3,0.8c0.3,0.1,0.6,0.2,0.8,0.3l-1.7,0.2c-0.2-0.1,0-0.2,0.2-0.3
							c-0.1,0-0.2,0.1-0.3,0.1c-0.6-0.1-0.3-0.3,0.1-0.5c0.2,0.1,0.4,0.1,0.6,0.2c0.4-0.2,0.8-0.4,0.7-0.6c-0.1,0-0.3,0.1-0.6,0.1
							c0.1-0.1,0.2-0.1,0.1-0.1c-0.1,0-0.2,0-0.5,0.1l-0.4-0.4l-0.1,0.1l-2.2-0.2c-1.6,0.4-3,0.9-5.5,1c0.6-0.3,0.1-0.4,0.2-0.7
							c0.7,0.3,2-0.1,3.3-0.1c-0.7,0-0.5-0.2-0.4-0.2l-2.3,0.3c0.1-0.3-0.5-0.2-1.1-0.3c0.5,0.5-1.7,0.3-2.7,0.5
							c-0.1-0.2,0.2-0.3,1.3-0.3c-1.3-0.4-1.7,0.6-2.9,0.3c0.3,0,0.4,0,0.5-0.1c-0.7,0.1-2.3,0-1.9-0.1h0.3c-1.9-0.1-5.7,0-6,0.4
							c0-0.1,0.2-0.5,0.4-0.6l-3.3,1.4c0.3-0.4-0.8-1.2,0.7-1.4c-0.4-0.1-1-0.1-1.9,0c0.3,0.1,0.8,0.5,0.3,0.6
							c-1.1-0.4-0.8-0.2-2.2-0.6c0.5,0.1-0.1,0.7-0.8,0.6c0.1-0.1-0.1-0.6,0.2-0.6l-1.8,0.6c0.4-0.1,0.1-0.5-0.3-0.6
							c0.2,0.1-1.6,0-2,0l0.8,0.1c-2-0.1-2,0.8-4,0.8c0.2-0.1,0.6-0.7-0.4-0.8c-0.5,0.3-2.1,1.4-3.9,1.6l-0.3-0.2l-1.4,0.2
							c0.9-0.4,3.2-1.3,4.5-1.7c-0.8-0.1-0.2-0.2-1.3-0.2c-0.4-0.2,0.6-0.2,1-0.2l-2.6-0.1c0.1,0.3-2,0.3-1.9,0.6l2.9-0.3
							c0.1,0.3-1.7,1-3.5,0.9c-0.5-0.1,0.4-0.6,0.3-0.7c-0.2,0.1-1.8,0.2-2,0.1l0.8-0.2c-1-0.1-1.7,0.4-3,0.1
							c-0.4,0-1.3-0.4-1.4-0.2c0.7,0.4,0.8,1.6,0.4,1.9c-0.2,0-2.3-0.4-2.8-0.6c-0.7-0.3,1.1-0.7,0.5-1c0,0.1-0.4,0.2-0.6,0.2
							c-0.5-0.1,0.2-0.3-0.8-0.2c-0.2,0.3-2,0-0.5,0.3c-1,0.1-1-0.1-2.2-0.1c0.4,0.2-1,0.7-2,0.8c0.1-0.1-0.2-0.2-0.3-0.3
							c-2,0-3-0.2-4.9-0.2c-0.2-0.1-1.1-0.2-0.7-0.3c-0.3,0.1-0.5,0.2-1.1,0.2c-1.1-0.3,1.3,0,0.4-0.4c-0.1,0.2-1.5,0.3-2.3,0.4
							c0.2,0.3,1.9,0.1,2.7-0.1c0,0.4-1.4,0.9-3.3,1.1c-1.5,0.1-0.7-0.3-0.9-0.2c-2.9-0.1-2.5,0.7-4.9,0.4c-1-0.3,0-0.5-0.3-0.7
							c1.3-0.1,1.9,0.2,2.8,0.2l-1-0.1c0.4-0.1,1.2-0.2,1.7-0.1c-0.8-0.2-4.9,0-7.1-0.3c-0.4,0.1-1.1,0.2-0.8,0.3H60
							c0.6,0.2-1.3,0.3-0.4,0.4c-0.9,0.2-2,0.4-3.3,0.3l-0.2-0.3c0,0.1,0.9,0.2,1.2,0.1c-0.6,0.1-2-0.4-2.6,0l0.9,0.2
							c-0.9,0.2-2.1,0.5-3.3,0.4c0.5,0.3,0.3,0,1.1,0.3c-0.7-0.4,3,0,1.8-0.4c0.9,0.4,1.5,0.2,2.6,0.5c0-0.1-0.4-0.2,0.6-0.1
							c0,0,0.1-0.1,0.2-0.1c0,0,0,0,0.1,0c0,0,0,0-0.1,0l0,0c-0.2,0-0.4-0.1-0.5-0.2c0.5-0.2,2.1-0.2,2.6-0.3c0.6,0-0.2,0.1,0.1,0.2
							l0.8-0.2c0.1,0.2,1.6,0.4,0.2,0.5H63c0.7,0.1,1.7,0.2,2.4,0.1c0.6,0,1.5-0.2,1-0.1l2-0.1v0.1c1.9,0,4-0.4,6.2,0
							c0.6-0.1,1.3-0.1,2.4-0.1l0.2,0.2c0.8-0.1,2.5,0.2,2.9,0c0.9,0.5,4,0.1,5.5,0.2l0.1-0.3c1,0,2-0.1,3.2-0.2l-0.1-0.2
							c1.1-0.2,2.8,0.2,4.5,0.1c-0.1,0.1-0.5,0.1-0.9,0c2,0.5,4.3-0.4,6.1,0c0.5-0.1,0.8-0.1,1.1,0h-0.1c0,0,0.1,0,0.2,0
							c0.2,0,0.4,0.1,0.6,0.1c-0.2-0.1-0.4-0.1-0.5-0.1c0.4,0,0.9,0,1.4-0.1l0.2,0.2h0.1c0.5,0.1,0.4-0.1,0.1-0.3
							c0.3,0,0.5-0.1,0.7-0.1c0.4,0.4,1.4-0.1,2,0.3c0.4-0.2,2.7-0.2,2.9-0.6c0,0.1,0.2,0.1-0.1,0.1c0.6,0,1.2,0.1,1.7,0l0.2,0.3
							l1.3-0.4c0.8,0.2,1.1,0.3,0.3,0.5c1.9-0.4,1.5-0.1,3.1-0.5l-0.1,0.2c0.6,0,1.5-0.3,1.8-0.1c1.3,0.4,6.3,0.1,9.6,0.4
							c-0.6-0.6,1.5,0.3,1.6-0.2c0.2,0.1,0.6,0.2,0.1,0.3c1.7-0.1,2.5,0.2,3.7-0.2c0.2,0.1-0.4,0.2-0.2,0.3c0.1,0,0.5-0.1,0.7,0
							s-0.2,0.1-0.5,0.2c1.7,0,1.9-0.4,2-0.8c0.9,0.2,1.3,0.2,1.9-0.1c0.3,0.1,0.8,0.3-0.3,0.3c0.6,0,3.6,0.2,3.7-0.1
							c0.2,0.1,0.8,0,1,0c1.3,0,1.5,0,2.8,0l-0.4-0.1c0.5-0.4,1.1-0.1,2.1-0.1l0,0c2.4,0.3,1-0.1,3.4,0.2l-0.1-0.2
							c0.2-0.5,2.1,0.3,3.5,0.1l-0.5-0.1c0.8-0.2,2.1,0.7,2.9,0.8c0.2,0-0.3,0.1-0.5,0.1c2,0.3,0.3-0.3,1.7-0.4
							c0.3,0.2-0.4,0.4,0.6,0.5c0.5,0.1,2.9-0.6,4.3-0.2c-0.3-0.1-0.6-0.3,0.1-0.4c1.1,0,2.9,0.5,3.8,0.1c0.1,0,0.2,0.1,0.2,0.1
							c0.8-0.1,2.6-0.2,3.1-0.4c0.7,0.8,5-0.4,5,0.4h2.5l-0.1,0.1c1.6,0.1,2.2-0.1,2.7-0.3c0.4,0.1,0.1,0.1,0.1,0.2
							c2.3,0.2,2.6,0.1,4.5-0.3l0.2,0.2c0.5-0.1,3.4,0.4,5.6,0.1c0,0-0.1,0.1-0.3,0.1c2.6-0.3,6.1,0.7,7.1-0.2l1.7-0.2
							c-2.2-0.1,0.3-0.4-0.6-0.5c0.9-0.1,2.2,0.3,1.2,0.3h-0.2c-0.4,0.5,2.7,0.2,2.7,0.5c4.3,0,8.5,0.2,12.5,0.3l-0.5-0.4h1.4
							c0.4,0.1,0.5,0.3-0.5,0.3c0.5,0.2,1.7-0.2,1.7-0.3c2,0.1-0.8,0.4-0.2,0.4h0.8h-0.2c0.7-0.1,0.7-0.3,1.9-0.3
							c0.8,0.1,0.4,0.2,0.7,0.2c0,0,0.1,0,0.5,0h1.8l-0.7-0.3c0.8-0.1,1.7,0,0.8-0.3c1.2,0.5,6.6,0.2,7.4,0.3
							c1.1-0.2,2.2-0.2,3.5-0.2c-0.3-0.1-0.5-0.4,0.6-0.3c-0.4,0.7,2.1,0.3,3.1,0.8c-0.8-0.3,3.3-0.1,2-0.5c1,0.1,0.1,0.3,0.8,0.4
							c2.3-0.3,5.1,0.2,7.9,0.1c0-0.1-0.4-0.2,0.2-0.4l1.5,0.4c0.6,0,0.5-0.5,1.5-0.2c-0.1-0.1-0.4-0.2,0-0.2
							c5.6,0.4,11.4-0.4,17.1,0.5c-0.8-0.2-0.3-0.2,0.3-0.2c-0.4,0,0-0.2-0.1-0.3l2.4,0.3c0.4-0.3,2.5,0,2.8-0.3l-0.8,0.1
							c1-0.4-1.4-0.8-1.3-1.3c-1.1,0.4-3-0.6-4.8,0c-0.4-0.1,0.3-0.2,0.1-0.3c-0.5,0.2-1,0.2-2.1,0.2l0.1-0.1
							c-2.9,0.1-4.2-0.2-7.5-0.3l0.2,0.2c-0.7,0-0.9-0.1-1.2-0.2c-0.8,0.4,2,0,1.2,0.4c-0.9-0.5-5,0-5.6-0.6c-1.1,0,0.3,0.3-0.8,0.3
							l-0.3-0.1l-0.3,0.2c-0.7,0-1.1-0.2-1.1-0.3c0.2,0,0.5,0,0.7,0c-0.9-0.2-2.6,0.1-2.9,0l1,0.1c-3,0.1-6.6-0.1-9.5,0.2l0.2,0.1
							c-2.2,0.2-1.8-0.1-4.2,0h0.1c-0.5,0.1-1.1,0.2-1.8,0.2c0.6-0.1-1.1-0.3-0.3-0.4c-2.4,0.2-1.2,0.2-2.7,0.6l-0.4-0.2
							c-0.5,0.2-0.6,0.3-1.8,0.3c1-0.2-0.8-0.3,0.3-0.5c-2.5-0.4-3.7,0.4-4.9-0.2c-1.2,0.5,2.2,0.3,1.5,0.4c0.5,0.2-1,0.4-1.7,0.3
							c-0.8,0-1.4-0.7-3.4-0.6c0.2,0,0.2,0,0.4,0c-0.8-0.1-1.5,0.2-2.4,0c-0.5,0.3-1.2,0-1.4,0.4l1.9-0.1c-1.1,0.1-2,0.6-3.8,0.3
							c0.1-0.1,0.7-0.2,1-0.2c-0.5-0.1-1,0.1-1.5,0c0.1-0.4,2.3-0.1,3.4-0.4c-0.5-0.2-2.1,0.3-1.6-0.1c-0.8,0.5-2-0.1-3.4,0.3
							l0.1-0.2c-0.2,0-0.7,0.1-1.1,0.1l0.7-0.3c-1.1,0.3-2.1-0.2-3.2-0.1c2.2,0,0.5,0.3,1.4,0.5c-2.7,0.3-1.6-0.6-4.7-0.5
							c0.4,0,1.6,0.1,0.9,0.3c-0.6,0-1.4-0.1-1.7-0.3c-2,0,0.3,0.2-0.6,0.4c-0.7-0.3-1,0.1-1.9,0.2v-0.2c-2.3-0.2-0.6,0.5-2.7,0.3
							l0.9-0.3l-1.1,0.1l0.2-0.3c-1.2,0.2-1.6,0.2-2.7,0.1c0.3,0.2-0.2,0.4-1.2,0.4c-0.7-0.1,0.4-0.2-1.1-0.2
							c0.3-0.2,0.7-0.3,1.3-0.1c0.1-0.1,0.3-0.2,0.4-0.2c-0.8-0.2-1.9,0-2.4,0c0.2,0,0.4,0,0.6,0.1l-2.1,0.3
							c-0.3-0.1-0.1-0.2,0.2-0.2c-0.4,0-0.7,0.1-1.4,0.2c0.2-0.2,0.1-0.4,1-0.5l-2,0.2c-0.1-0.1-1-0.2-0.8-0.3
							c-1.1-0.1-2.7,0.4-4.2,0.2c-0.1,0-0.2,0.1-0.5,0.1c-1.4,0-2.6-0.3-4.3,0l-0.9-0.4c-1.3,0.1,1.3,0.4-0.9,0.6
							c-1.5,0.1-0.6-0.3-1.1-0.4c-0.8,0.2-2.1,0.5-3.5,0.3C170.9,149.1,171.2,149.2,171.7,149.1z M155.7,149.3
							c0.3-0.1,0.9-0.2,1.1-0.1C156.5,149.5,156.3,149.4,155.7,149.3z M131.5,149.9c0.2-0.1,0.6,0,1,0.1
							C132.2,149.9,131.9,149.9,131.5,149.9z M64.1,151.6C64.1,151.6,64.1,151.5,64.1,151.6C64.8,151.6,64.6,151.6,64.1,151.6z
							 M62.7,151.5c-0.1,0-0.1,0.1-0.1,0.1c0.1-0.1,0.4-0.1,0.8,0C63.3,151.4,63.1,151.4,62.7,151.5z M216.2,151.4l-0.3-0.1
							C216.5,151.2,216.4,151.3,216.2,151.4z"/>
						<path class="st0" d="M134.3,149.5c0.1,0,0.1,0.1,0.1,0.1C134.5,149.6,134.5,149.6,134.3,149.5z"/>
						<path class="st0" d="M181.6,149L181.6,149C181.7,149,181.7,149,181.6,149L181.6,149z"/>
						<path class="st0" d="M84.8,149.4c0.3,0,0.5,0.1,0.6,0.1C85.4,149.5,85.2,149.4,84.8,149.4z"/>
						<path class="st0" d="M55.1,151.9l0.9-0.1c-0.4,0-0.6,0-0.8-0.1C55.2,151.8,55.4,151.9,55.1,151.9z"/>
						<path class="st0" d="M47.1,150.4c-0.1,0-0.3,0-0.4,0v0.1C47.3,150.5,47.7,150.4,47.1,150.4z"/>
						<path class="st0" d="M54.2,151.1c-0.1-0.2-0.6-0.1-1.3-0.1H53C52.9,151.2,53.5,151.2,54.2,151.1z"/>
						<path class="st0" d="M52.8,151c-0.2,0-0.4,0-0.6,0C52.1,151.1,52.4,151,52.8,151z"/>
						<path class="st0" d="M60.8,151.6c-0.3-0.1-0.2,0.3-0.4,0.2C60.1,152,62.5,151.5,60.8,151.6z"/>
						<polygon class="st0" points="53.7,150.4 53.9,150.6 54.3,150.4 						"/>
						<path class="st0" d="M58.8,150.6l-1-0.1c0,0-0.1,0.1-0.3,0.1C58.1,150.6,58.8,150.6,58.8,150.6z"/>
						<path class="st0" d="M57.5,150.6c-0.3,0-0.6,0-0.8,0C56.8,150.6,57.2,150.6,57.5,150.6z"/>
						<polygon class="st0" points="55.1,150.3 55.4,150.4 56.1,150.4 						"/>
						<path class="st0" d="M69.8,150.6l1.1-0.1c0.1-0.1-0.2-0.1-0.6-0.1C70,150.5,69.6,150.5,69.8,150.6z"/>
						<path class="st0" d="M66.4,149.9c0.3,0.1,0.3,0.1,0.5,0.2v-0.3L66.4,149.9z"/>
						<path class="st0" d="M69.7,149.9c0.1-0.1,1.6-0.2,0.2-0.2C69.8,149.7,68.6,149.8,69.7,149.9z"/>
						<polygon class="st0" points="86.5,150.3 86.2,150.3 86.3,150.8 						"/>
						<path class="st0" d="M101.4,149c-1.3-0.1-0.3,0.3-1.5,0.2c-0.3,0.1,1,0.1,0.7,0.2C101.3,149.3,101.8,149.4,101.4,149z"/>
						<path class="st0" d="M100.5,149.4c-0.1,0-0.3,0-0.4,0.1C100.4,149.5,100.5,149.5,100.5,149.4z"/>
						<polygon class="st0" points="268.2,151.6 269.1,151.7 268.5,151.5 						"/>
						<path class="st0" d="M269.9,151.2l0.2,0.3l0.5-0.3C270.4,151.3,270,151.3,269.9,151.2z"/>
						<path class="st0" d="M153.4,148.6L153.4,148.6c0.1,0.2,0.3,0.2,0.7,0.2L153.4,148.6z"/>
						<polygon class="st0" points="164.9,148.9 164.7,148.9 165.1,149.2 						"/>
						<path class="st0" d="M174.6,148.5c-0.4,0-0.9,0.1-1.3,0C174.2,148.5,174.8,148.9,174.6,148.5z"/>
					</g>
				</g>
			</g>
		</g>
	</g>
</g>
<g>
	<path class="st0" d="M333.5,150.2c0,0-0.8,0.7-1.1,1.1c-1.7,1.7-3.4,3.4-5,5.1c-1.1,1.1-2.2,2.1-3.5,2.9c-1.5,0.9-3,1.9-4.5,2.8
		c-0.5,0.3-1,0.6-1.6,0.8c-1,0.4-1.9,0.6-3,0.1s-2.4-0.8-3.6-1.1c-1.5-0.3-2.7-1-3.9-1.9c-1.3-1-2.6-2-3.9-3.1
		c-1.1-0.9-2.1-1.8-2.9-3c-0.3-0.4-0.6-0.7-0.8-1.1c-6.1-7-7.5-12.5-4.9-19c0.3-0.4,0.5-0.8,0.7-1.2c1.1-1.7,2.8-2.6,4.8-2.8
		c4.3-0.4,8.4,0.7,12.1,2.8c1.2,0.7,2.1,1.6,2.9,2.7c0.4,0.5,0.6,0.5,0.9,0.1c1.2-1.5,2.8-2.4,4.5-3.1c2.6-1,5.2-1.8,8-2.1
		c0.6-0.1,1.2-0.1,1.8-0.1c2.8,0.1,5.8,1.8,6.9,3.5C341.5,139.1,333.5,150.2,333.5,150.2z"/>
	<path class="st1" d="M318.5,125.7c-3.2-0.1-6.4-0.5-9.6-1.2c-0.3-0.1-0.5-0.2-0.8-0.2c-1.6-0.3-2.4-2.9-1.1-4.2
		c0.5-0.5,1-0.9,1.6-1.1c1.7-0.7,3.4-1.1,5.2-1.1c2.6,0,5.1,0.3,7.6,1.2c0.9,0.3,1.8,0.5,2.6,0.8c0.6,0.2,1.2,0.4,1.8,0.7
		c0.4,0.2,0.7,0.4,1,0.7c0.9,0.9,0.8,2.2-0.3,2.9c-0.6,0.3-1.2,0.6-1.8,0.8C322.7,125.3,320.6,125.8,318.5,125.7z M315.2,119.8
		c-0.8,0-1.6,0-2.4,0c-1.3,0-2.5,0.4-3.6,0.8c-0.7,0.3-1.1,0.9-1.3,1.6c-0.1,0.4,0.1,0.6,0.4,0.8c0.2,0.1,0.5,0.3,0.7,0.3
		c2.1,0.3,4.1,0.7,6.2,0.9c2.3,0.2,4.6-0.3,6.9-0.5c0.8,0,1.5-0.4,2.2-0.8c0.2-0.2,0.3-0.5,0.1-0.7c-0.2-0.1-0.3-0.2-0.5-0.3
		C321.2,120.4,318.3,119.5,315.2,119.8z"/>
	<path class="st1" d="M299.5,139.1c-0.1-0.1-0.2-0.2-0.2-0.3c0.1-0.7,0.1-1.4,0.3-2.1c0.3-1,1-1.7,1.9-2.1c0.3-0.1,0.8-0.1,1.1,0
		c0.1,0,0.3,0.2,0.4,0.4c0,0.2,0,0.4-0.1,0.5c0,0.1-0.2,0.2-0.3,0.2c-1.1,0.5-1.7,1.4-2.2,2.4c-0.1,0.3-0.3,0.6-0.5,0.8
		C299.8,139.1,299.7,139,299.5,139.1z"/>
</g>
<path class="st0" d="M140.2,16.2L140,34.5c0,5.1,0.4,12.8,1.1,22.9s1.1,18.4,1.1,24.7s-0.8,11.7-2.5,16.2s-4.7,8.3-8.9,11.3
	c-1.2,0-2.2-0.3-3.1-0.9c-0.8-0.6-1.2-1.5-1.2-2.5c0-1.1,0.5-2.1,1.5-2.9c1-0.9,2-1.6,3.1-2c3.1-4,4.7-9.5,4.7-16.6
	c0-3.9-0.2-9.5-0.6-16.8c-0.4-7.3-0.6-12.2-0.7-14.8s-0.1-5.8-0.1-9.8s-0.1-7.2-0.1-9.7c-0.1-6.6-0.6-12.7-1.5-18.3
	c-0.3,0-0.8,0.2-1.6,0.3c-1.5,0.4-2.7,0.6-3.5,0.6s-1.5-0.3-2.1-0.9c-0.6-0.6-0.9-1.3-0.9-2.1c0-2.8,4.7-4.1,14.1-4.1
	c4.5,0,6.8,1.1,6.8,3.2c0,2.2-1.7,3.2-5.2,3.1v0.8H140.2z"/>
<path class="st0" d="M182.1,79.5l-0.6,2.4c0,1,0.3,3.3,1,7s1,6.2,1,7.3v0.1c0,1.8-0.6,2.9-1.8,3.3c-1.7,0-2.9-0.3-3.9-0.8
	s-1.4-1.9-1.4-4.1s-0.6-6.6-1.7-13.4l-3.6-0.3h-3.9c-0.9-0.4-2.4-0.6-4.7-0.6c0,0.1,0,0.6-0.1,1.5s-0.2,1.7-0.2,2.3
	c-0.1,0.6-0.2,1.4-0.3,2.6c-0.1,1.1-0.3,2.1-0.4,2.9c-0.2,0.8-0.3,1.7-0.6,2.8s-0.5,1.9-0.8,2.6s-0.6,1.4-1,2c-0.7,1.3-1.5,2-2.5,2
	s-1.9-0.3-2.7-0.9s-1.2-1.4-1.2-2.3c2.1-7.9,3.8-16.3,5.3-25s2.4-13.9,2.6-15.5s1-4.8,2-9.4c1.1-4.7,1.7-7.8,1.9-9.4
	s0.4-3.6,0.6-6.1c0.3-5.5,1.1-9,2.1-10.5h4c2.7,0,4,0.8,4,2.4c0,15.2,1.5,30.2,4.4,45.2c0.2,0.9,0.4,2.1,0.9,3.7
	C181.6,74.8,182.1,77.5,182.1,79.5z M174,76.9c-0.2-1.2-0.3-3-0.3-5.6s-0.2-5.7-0.5-9.4c-0.3-3.7-0.8-7.9-1.4-12.8
	c-0.6-4.8-1-8.3-1.3-10.5c-0.5,2.2-1.4,6-2.7,11.2c-2.7,10.9-4.1,19.2-4.2,25.1C164.9,75.9,168.4,76.5,174,76.9z"/>
<path class="st0" d="M213.1,92.9c2.4,0,3.6,0.9,3.6,2.6c0,3.1-2.2,4.7-6.6,4.7c-1.8,0-3.7-0.3-5.6-0.8s-3.3-1.1-4.3-1.7
	c-5.2-3.4-7.8-12.6-7.8-27.7l-0.1-6.9c0-22.6,2.8-36,8.3-40c2.8-2.1,6.8-3.1,11.9-3.1c0.8,0,1.6,0.3,2.3,0.9s1.1,1.3,1.1,2.1v0.5
	c-0.7,1.8-2.6,2.7-5.7,2.7l-2.1-0.1c-1.3,0-2.5,0.7-3.5,2.1s-1.8,3.1-2.3,5.1s-1,4.2-1.3,6.7c-0.5,3.9-0.8,7.5-0.8,10.9v0.6
	l-0.7,22.7c0,4.8,0.3,8.1,0.8,10s1.1,3.3,1.6,4.5s1.2,2.1,2,2.8c1.8,1.7,4,2.5,6.8,2.5C211.5,94,212.4,93.6,213.1,92.9z"/>
<path class="st0" d="M253.5,66.8c0,22.6-4.6,33.9-13.9,33.9c-8.5,0-13.3-10.7-14.3-32.1c-0.1-2-0.1-4.1-0.1-6.1l-0.1-7.2V53
	c0-16.6,2.4-26.9,7.3-30.8c1.2-1,2.5-1.5,4-1.6c1.1,0.4,2.5,0.7,4.1,1.1c1.6,0.3,2.8,0.7,3.6,1c1.4,0.7,3,2.4,4.6,5.1
	c1.7,2.7,2.9,6.4,3.7,11s1.2,9.2,1.2,13.8L253.5,66.8L253.5,66.8z M231.6,39l0.2,6.9l-0.1,11.3c0,1,0,2.1,0.1,3.4s0.1,3,0.1,5.2
	c0.1,2.1,0.2,4.2,0.3,6.3c0.2,2.1,0.4,4.3,0.6,6.6c0.2,2.3,0.5,4.5,0.9,6.5s0.8,3.8,1.3,5.4c1,3.5,2.4,5.2,4.1,5.2
	c2.3,0,4-2.1,5.2-6.4c1.8-6.3,2.6-14.1,2.6-23.4l0.2-12.2c0-8.5-0.4-14.3-1.1-17.2s-1.4-5.2-2.1-6.7c-1.3-3-3.3-4.5-5.9-4.5
	c-0.1,0-0.2,0-0.2,0C233.7,25.4,231.6,30,231.6,39z"/>
<path class="st0" d="M265.6,68.3l0.5-37.4c0-2.7,0-4.8-0.1-6.1v-1.1c0-3.3,1.1-4.9,3.3-4.9c1.8,0,4.1,0.5,7.1,1.5s4.5,2.2,4.5,3.5
	c0,1.8,0.6,4.3,1.8,7.7c1.2,3.4,1.8,6,1.8,7.7c0,5.3-0.4,9.2-1.2,11.5c-0.8,2.4-2,4.7-3.6,7.1c2.3,2.2,3.7,4.9,4.4,8.3
	c0.7,3.3,1,6.7,1,10c0,3.4-0.2,6.1-0.6,8.1c-0.4,2.1-1,4.1-1.9,5.9c-0.9,1.9-2,3.5-3.2,4.9c-2.8,3-6.6,4.5-11.3,4.5
	c-1.7,0-2.7-0.7-3.2-2.2c-0.3-1.1-0.5-2.4-0.5-4L265.6,68.3z M271.9,84.5c-0.5,0.8-0.7,2.2-0.7,3.9v5.3c2.5-0.6,4.5-2.2,5.8-4.7
	s2-4.8,2-7s0-3.9-0.1-5.2c-0.1-1.3-0.2-2.9-0.5-4.7c-0.3-1.8-0.6-3.5-1.1-4.8c-1.1-3.3-2.8-5.3-5.2-5.8c-0.3,4.5-0.5,9.3-0.5,14.2
	C271.5,80.6,271.6,83.5,271.9,84.5z M271.9,24.3v30.2c4-0.1,5.9-4.9,5.9-14.3c0-2.5-0.3-5.1-0.9-7.8
	C275.8,27.3,274.1,24.6,271.9,24.3z"/>
<path class="st0" d="M335.9,21.1l-0.3,6c0,0.8,0.1,1.7,0.3,2.5c-0.7,1.5-1.5,4-2.7,7.5s-2,5.8-2.5,6.9c-0.5,1-1.1,2-1.6,2.8
	c-1.2,1.8-1.8,3.2-1.8,4c0,3.8,1.5,10.5,4.3,20.2c2.9,9.7,5.4,15.8,7.5,18.2c2.4-5.6,3.6-12.6,3.6-20.8v-0.5c-1.3,0-2.3-0.7-2.9-2
	v-3c2,0,4.5-0.1,7.7-0.4c3.1-0.3,5.4-0.6,6.7-1.1c2.2,0.5,3.3,1.5,3.3,3.1c0,2.1-2.2,3.2-6.5,3.2h-2.9c0,2.3-0.1,5-0.3,7.9
	c0.8-0.1,0.4,2.4-1.1,7.4c-1.6,5-2.7,8.3-3.4,9.8c2.3,2.4,4.8,3.6,7.5,3.6l4.8-0.3l2.2,1.8c0,1.6-0.5,2.6-1.6,3.1s-2.5,0.8-4.3,0.8
	c-3.6,0-7.4-1.5-11.3-4.4c-4.2,3-8.1,4.5-11.7,4.5s-6.6-1-9.1-3s-4.4-4.5-5.8-7.5s-2-6-2-9.1s0.2-6,0.6-8.7s1.1-5.5,2.1-8.3
	c1.5-4,4-9.6,7.6-16.8l-0.8-16.2v-9.8c0-3.1,0.5-5.3,1.6-6.7c1.1-1.4,2.4-2.1,4.1-2.1s3.7,0.7,5.8,2.1
	C335.1,17.2,335.9,19,335.9,21.1z M323.1,57.5c-4,6.6-6,14.3-6,23c0,6,1.6,10.6,4.8,13.8c1.8,1.8,4,2.7,6.7,2.7c1.2,0,2.7-0.3,4.5-1
	s3.1-1.4,3.8-2.2c-0.3-0.4-1.1-1.3-2.5-2.8s-2.8-3.5-4.1-6.2c-1.4-2.7-2.5-5.8-3.5-9.4C325.4,70.5,324.2,64.6,323.1,57.5z
	 M326.3,28.6l0.1,10.7v1.3c1-2.2,2-4.9,3-8s1.4-5.6,1.4-7.4c0-3.7-0.9-5.6-2.8-5.7c-0.5,0.5-1.1,1.4-1.8,2.9L326.3,28.6L326.3,28.6z
	"/>
<path class="st0" d="M389.3,11.4l1.2,42.4c0,1.4-0.1,2.6-0.2,3.7V58c0.1,2.3,0.3,5.5,0.5,9.7c0.6,9.3,0.9,16.4,0.9,21.1v3.7h8.4
	c1.3,0.8,2.1,1.3,2.2,1.7c0.2,0.3,0.3,0.8,0.3,1.5s-0.3,1.3-0.9,2s-1.2,1-1.8,1c-0.6,0-1.3-0.1-2.1-0.4c-0.7,0.2-1.4,0.2-2.2,0.2
	l-3.8-0.2c-0.8,1-1.8,1.4-3,1.4s-2.2-0.4-3.1-1.1c-0.8-0.7-1.2-1.6-1.2-2.6l0.7-5.2c0-8.9-0.4-22.4-1.2-40.2s-1.2-31.3-1.2-40.2
	c0-0.7,0.3-1.3,0.9-1.8c0.6-0.4,1.3-0.7,2.2-0.7c0.9,0,1.7,0.3,2.4,1C388.9,9.7,389.3,10.5,389.3,11.4z"/>
<path class="st0" d="M426.3,97.2l-4.4,0.1l-5.1,0.2c-2.2,0-3.6-0.7-4.4-2.1c0-1.2,0.1-2,0.4-2.7s0.9-1,1.8-1h3.3l0.2-1.6L417.3,65
	l0.6-26.3c0-4.4-0.2-8.6-0.6-12.6c-1.7,0-3.2,0-4.6,0s-2.4-0.2-3.1-0.7s-1-1.3-1-2.5c0-1.8,2.1-2.7,6.4-2.7h0.4
	c10.1,0,15.1,1.3,15.1,4c0,0.4-0.2,1.2-0.7,2.2h-6c0.3,2.9,0.5,6.3,0.5,10.1L423.7,59l0.9,25.1v3.5c0,0.7-0.1,1.7-0.4,3.2h5
	c3.2,0,4.8,1,4.8,2.9c0,0.9-0.3,1.6-0.8,2.2c-0.6,0.6-1.2,0.9-1.9,0.9L426.3,97.2z"/>
<path class="st0" d="M449.6,52l0.7,30.5v13.4c0,1-0.3,1.9-0.8,2.6s-1.3,1.1-2.2,1.1c-2.6,0-3.9-2.4-3.9-7.2l-0.2-41.6l0.7-22
	c0-5.3,1.4-7.9,4.3-7.9c1.7,0,3,1.3,3.7,4c1.1,5.1,2.9,12.4,5.6,21.9s4.5,16.7,5.5,21.7c0.7,2.4,1.7,6,2.8,10.7
	c1.2,4.7,2.1,8.3,2.7,10.7c0.3-17,0.5-37.7,0.5-62l-0.2-3.2c0-1.1,0.2-1.9,0.6-2.6c0.4-0.6,1.1-1,2-1s1.7,0.2,2.4,0.7
	c1.2,0.9,1.8,2.2,1.8,3.9c0,10.8-0.3,24.6-0.9,41.6c-0.6,16.9-1.5,27.5-2.8,31.7c-0.2,0-0.5,0.1-1,0.3c-0.5,0.2-0.9,0.3-1.1,0.3
	c-2.2,0.5-3.6,0.4-4.1-0.3c-0.6-0.7-1-1.6-1.2-2.8c-0.2-1.2-0.5-2.3-0.9-3.4c-0.3-1.1-1.5-6.3-3.7-15.7
	c-5.6-24.8-9.1-39.2-10.4-43.2L449.6,52L449.6,52z"/>
<path class="st0" d="M498.4,94.1l4.7-0.3c3,0,4.5,1,4.5,2.9c0,1.2-0.5,2.1-1.6,2.6s-2.2,0.8-3.5,0.8h-11.1c-1,0-1.9-0.3-2.6-1
	s-1.1-1.6-1.2-2.6c-0.1-1.1,0-2.4,0.2-4s0.3-2.9,0.3-3.9l-0.6-15.1l0.8-34.4l-0.6-10c0-5.6,1.7-8.4,5-8.4c0.9,0,1.8,0.3,2.6,0.9
	c0.3,0,1,0.1,2.2,0.2s2.2,0.2,3.1,0.4c0.9,0.2,1.8,0.4,2.9,0.6c2.2,0.6,3.3,1.7,3.3,3.2c0,1.6-1.2,2.8-3.5,3.7
	c-3.6-1.2-6.6-2-8.9-2.2c0.1,1.7,0.2,3.4,0.2,5.1l-0.5,16.9c0,0.1,0.1,0.7,0.3,1.8l4.2-0.2c3.8,0,5.7,1.1,5.7,3.2
	c0,1.2-0.3,2.2-1,3.1s-1.6,1.3-2.9,1.3c-1.2,0-2.3-0.3-3.2-1h-3c0.2,3,0.3,5.8,0.3,8.5L494,87.6C494.2,91.9,495.6,94.1,498.4,94.1z"
	/>
<g>
	<path class="st0" d="M211.5,348.3l-0.1,2.3v2.5c0,3.1-0.1,5.1-0.4,6.2c-0.3,1.1-0.5,2-0.8,2.7s-0.6,1.3-1,1.9
		c-0.9,1.2-2.1,2.2-3.4,3h-3.2c-0.8,0-1.2-2-1.2-6.1l0.1-14.6c0-2.7-0.1-5.2-0.2-7.6c-0.3-0.3-0.4-0.7-0.4-1.1s0.2-0.8,0.5-1.1
		s0.8-0.5,1.3-0.5s0.9,0.3,1.3,0.8c0.2,0.1,0.6,0.2,1,0.2c0.4,0.1,0.8,0.2,1,0.3c1.7,0.8,3.1,2.2,4,4.2
		C211,343.6,211.5,345.9,211.5,348.3z M203.9,343l0.5,20.5v1.1h0.8c1.6-2,2.7-3.8,3.1-5.4c0.4-1.5,0.7-3.7,0.7-6.4
		c0-9.3-1.6-14.2-4.8-14.6C204,339.4,203.9,341,203.9,343z"/>
	<path class="st0" d="M220.2,364.9l1.8-0.1c1.2,0,1.8,0.4,1.8,1.1c0,0.5-0.2,0.8-0.6,1c-0.4,0.2-0.9,0.3-1.4,0.3h-4.4
		c-0.4,0-0.7-0.1-1-0.4s-0.4-0.6-0.5-1c0-0.4,0-1,0.1-1.6s0.1-1.1,0.1-1.5l-0.2-5.9l0.3-13.6l-0.2-3.9c0-2.2,0.6-3.3,1.9-3.3
		c0.4,0,0.7,0.1,1,0.3c0.1,0,0.4,0,0.9,0.1s0.9,0.1,1.2,0.1c0.3,0.1,0.7,0.1,1.1,0.2c0.9,0.2,1.3,0.7,1.3,1.2c0,0.6-0.5,1.1-1.4,1.5
		c-1.4-0.5-2.6-0.8-3.5-0.9c0,0.7,0.1,1.3,0.1,2l-0.2,6.7c0,0,0,0.3,0.1,0.7l1.7-0.1c1.5,0,2.2,0.4,2.2,1.3c0,0.5-0.1,0.9-0.4,1.2
		c-0.3,0.3-0.6,0.5-1.1,0.5s-0.9-0.1-1.3-0.4h-1.2c0.1,1.2,0.1,2.3,0.1,3.4l-0.2,8.4C218.5,364,219.1,364.9,220.2,364.9z"/>
	<path class="st0" d="M230.1,348.3l0.3,12v5.3c0,0.4-0.1,0.8-0.3,1c-0.2,0.3-0.5,0.4-0.9,0.4c-1,0-1.5-0.9-1.5-2.8l-0.1-16.4
		l0.3-8.7c0-2.1,0.6-3.1,1.7-3.1c0.7,0,1.2,0.5,1.5,1.6c0.4,2,1.2,4.9,2.2,8.6s1.8,6.6,2.2,8.5c0.3,1,0.7,2.4,1.1,4.2
		c0.5,1.9,0.8,3.3,1.1,4.2c0.1-6.7,0.2-14.8,0.2-24.4l-0.1-1.2c0-0.4,0.1-0.8,0.2-1s0.4-0.4,0.8-0.4s0.7,0.1,0.9,0.3
		c0.5,0.4,0.7,0.9,0.7,1.5c0,4.2-0.1,9.7-0.4,16.4c-0.2,6.7-0.6,10.8-1.1,12.5c-0.1,0-0.2,0.1-0.4,0.1c-0.2,0.1-0.3,0.1-0.4,0.1
		c-0.9,0.2-1.4,0.2-1.6-0.1c-0.2-0.3-0.4-0.6-0.5-1.1s-0.2-0.9-0.3-1.3s-0.6-2.5-1.4-6.2c-2.2-9.7-3.6-15.4-4.1-17v7H230.1z"/>
	<path class="st0" d="M259.4,366.5l-7.1,0.4c-0.4,0-0.8-0.1-1.2-0.4c-0.3-0.3-0.5-0.6-0.5-1v-0.2c0.6-0.8,1.2-1.8,1.6-3
		c0.4-1.3,0.7-2.1,0.9-2.5c1.8-3.9,3.1-7.5,3.9-10.8c0.9-3.3,1.3-6.8,1.3-10.6s-0.7-5.7-2.2-5.9c-0.5,0.3-0.8,1-1,2.2
		c-0.2,1.1-0.6,1.7-1.4,1.7c-0.7,0-1.1-0.5-1.1-1.4c0-1.5,0.4-2.7,1.3-3.7c0.5-0.5,1-0.8,1.7-0.8l0,0c1.6,0,2.8,0.5,3.5,1.5
		c0.5,0.7,0.9,1.4,1,2s0.2,1.1,0.3,1.4c0.1,0.3,0.1,0.8,0.1,1.3c0,0.8,0.1,1.7,0.1,2.5c0,2.7-0.3,5.7-1,9.1s-1.5,6.2-2.6,8.6
		c-0.2,0.4-0.7,1.5-1.6,3.3s-1.5,3.2-1.9,4.3c1.9-0.3,3.6-0.5,5.3-0.5l1.4,1.2L259.4,366.5z"/>
	<path class="st0" d="M265,332.9c-0.7-0.3-1.1-0.8-1.1-1.4c0-0.5,1.4-0.7,4.3-0.7h0.9c0.8,0,1.4,0.1,1.7,0.4s0.5,0.6,0.6,1
		c-0.1,0.4-0.3,2.2-0.5,5.5c-0.3,3.3-0.8,7.8-1.6,13.6s-1.6,10-2.6,12.7c0,0.1,0,0.3,0,0.7s-0.1,0.9-0.4,1.4s-0.7,0.8-1.2,0.8
		l-1.1-0.8c0-0.6,0.1-1.3,0.4-2.1c0.2-0.8,0.5-1.8,0.9-3c0.3-1.3,0.7-3.1,1.1-5.7c0.4-2.5,0.7-5.5,1.1-8.9s0.6-5.6,0.7-6.6
		c0.1-0.9,0.2-1.8,0.4-2.7c0.3-1.8,0.5-3.2,0.5-4.3c-0.5-0.1-0.9-0.1-1.3-0.1C267.4,332.7,266.5,332.8,265,332.9z"/>
	<path class="st0" d="M277,367.4c-0.5,0-0.9-0.2-1.2-0.5s-0.5-0.7-0.5-1.2s0.2-0.8,0.5-1.2s0.7-0.5,1.2-0.5s0.8,0.2,1.2,0.5
		c0.3,0.4,0.5,0.8,0.5,1.3s-0.2,0.9-0.5,1.2S277.5,367.4,277,367.4z"/>
	<path class="st0" d="M300.5,359.1l-0.2,0.9c0,0.4,0.1,1.3,0.4,2.8s0.4,2.4,0.4,2.9l0,0c0,0.7-0.2,1.1-0.7,1.3
		c-0.6,0-1.2-0.1-1.5-0.3c-0.4-0.2-0.5-0.7-0.5-1.6s-0.2-2.6-0.7-5.3l-1.4-0.1h-1.5c-0.3-0.2-1-0.2-1.8-0.2c0,0,0,0.2-0.1,0.6
		c0,0.4-0.1,0.7-0.1,0.9s-0.1,0.6-0.1,1c-0.1,0.4-0.1,0.8-0.2,1.1c-0.1,0.3-0.1,0.7-0.2,1.1s-0.2,0.8-0.3,1
		c-0.1,0.3-0.2,0.5-0.4,0.8c-0.3,0.5-0.6,0.8-1,0.8s-0.7-0.1-1.1-0.4c-0.3-0.2-0.5-0.5-0.5-0.9c0.8-3.1,1.5-6.4,2.1-9.8
		s0.9-5.5,1-6.1s0.4-1.9,0.8-3.7c0.4-1.8,0.7-3.1,0.7-3.7c0.1-0.6,0.2-1.4,0.2-2.4c0.1-2.1,0.4-3.5,0.8-4.1h1.6c1.1,0,1.6,0.3,1.6,1
		c0,6,0.6,11.9,1.7,17.8c0.1,0.3,0.2,0.8,0.3,1.5C300.4,357.3,300.5,358.4,300.5,359.1z M297.4,358.1c-0.1-0.5-0.1-1.2-0.1-2.2
		s-0.1-2.2-0.2-3.7c-0.1-1.4-0.3-3.1-0.6-5c-0.2-1.9-0.4-3.3-0.5-4.1c-0.2,0.9-0.5,2.3-1.1,4.4c-1.1,4.3-1.6,7.6-1.7,9.9
		C293.8,357.7,295.2,358,297.4,358.1z"/>
	<path class="st0" d="M316,346v0.8c-0.2,1.1-0.4,3-0.4,5.6c-0.1,2.7-0.2,4.8-0.4,6.4s-0.5,3.1-0.8,4.3s-0.9,2.3-1.6,3.1
		c-0.7,0.8-1.5,1.2-2.4,1.2s-1.6-0.2-2.2-0.5s-1-0.8-1.4-1.4s-0.7-1.3-0.9-2s-0.4-1.5-0.5-2.4c-0.2-1.6-0.3-3.3-0.3-5.1l0.2-12.2
		c0-2.7-0.2-4.9-0.6-6.6v-1.1c0.7,0,1.3,0.3,1.8,0.9s0.6,1.2,0.6,1.9v22.5c0,1.2,0.3,2.3,0.9,3.3s1.5,1.5,2.6,1.5
		c1.3,0,2.2-3.8,2.6-11.5v-0.2v-0.3c0.4-7,0.6-12.6,0.6-17v-0.8c0-0.4,0.1-0.6,0.2-0.8c0.2-0.2,0.5-0.3,1-0.3s0.8,0.1,1,0.4
		s0.4,0.5,0.4,0.8s0.1,0.6,0.1,1.1l-0.3,4.7L316,346z"/>
	<path class="st0" d="M327.9,354.9h-0.8c-0.4,0-0.8-0.1-1-0.2c-0.3-0.1-0.4-0.4-0.4-0.9c0-0.4,0.1-0.8,0.4-1s0.6-0.3,1-0.3l0,0
		c3,0,4.5,0.5,4.5,1.4l-0.5,3.4l0.2,4.9c0,0.9-0.1,1.7-0.2,2.3c-1.8,1.6-3.4,2.5-4.8,2.5c-0.7,0-1.4-0.2-2-0.6s-1.2-1.1-1.8-2.1
		s-1.1-2.8-1.5-5.5s-0.7-4.6-0.7-5.7s0-1.9,0.1-2.6c0-0.7,0.1-1.5,0.2-2.4s0.1-1.5,0.2-1.7c0-0.3,0-0.6,0.1-1.1c0-0.5,0.1-1,0.1-1.4
		s0.1-1.1,0.2-1.9s0.3-1.4,0.4-1.9c0.2-0.5,0.4-1,0.7-1.6s0.6-1.1,1-1.4c0.9-0.8,2-1.2,3.2-1.2s1.8,0.4,1.8,1.2
		c0,0.4-0.1,0.7-0.4,0.9c-0.3,0.2-0.6,0.4-0.9,0.4l-0.8-0.1c-0.9,0-1.6,1.1-2.1,3.2s-0.7,3.9-0.8,5.6c-0.1,2.5-0.2,4.2-0.2,5
		s0,1.5,0,1.9s0,1,0,1.7s0.1,1.3,0.1,1.8c0.1,0.5,0.1,1.1,0.2,1.8c0.1,0.6,0.2,1.2,0.3,1.7s0.3,1,0.5,1.4c0.2,0.5,0.4,0.9,0.6,1.2
		c0.5,0.7,1.2,1,1.9,1c1.3,0,2-2.6,2-7.8v-1.7C328.6,354.9,328.3,354.9,327.9,354.9z"/>
	<path class="st0" d="M346.7,346v0.8c-0.2,1.1-0.4,3-0.4,5.6c-0.1,2.7-0.2,4.8-0.4,6.4s-0.5,3.1-0.8,4.3s-0.9,2.3-1.6,3.1
		c-0.7,0.8-1.5,1.2-2.4,1.2s-1.6-0.2-2.2-0.5s-1-0.8-1.4-1.4s-0.7-1.3-0.9-2s-0.4-1.5-0.5-2.4c-0.2-1.6-0.3-3.3-0.3-5.1l0.2-12.2
		c0-2.7-0.2-4.9-0.6-6.6v-1.1c0.7,0,1.3,0.3,1.8,0.9s0.6,1.2,0.6,1.9v22.5c0,1.2,0.3,2.3,0.9,3.3s1.5,1.5,2.6,1.5
		c1.3,0,2.2-3.8,2.6-11.5v-0.2v-0.3c0.4-7,0.6-12.6,0.6-17v-0.8c0-0.4,0.1-0.6,0.2-0.8c0.2-0.2,0.5-0.3,1-0.3s0.8,0.1,1,0.4
		s0.4,0.5,0.4,0.8s0.1,0.6,0.1,1.1l-0.3,4.7L346.7,346z"/>
	<path class="st0" d="M351,364.7l2.4,0.3c0.6,0,1.1-0.3,1.5-0.8s0.8-1.2,1-1.9c0.4-1.5,0.6-2.8,0.6-3.9s-0.2-2.3-0.6-3.4
		s-0.8-2.2-1.4-3.1c-0.5-1-1.1-1.9-1.7-2.9c-1.3-2.3-1.9-4.7-1.9-6.9c0-1.4,0.2-2.6,0.7-3.7c0.9-2,2-3,3.5-3c0.5,0,1.1,0.2,1.6,0.5
		s0.7,0.7,0.7,1.1c0,0.7-0.4,1.1-1.1,1.1c-0.3,0-0.7-0.1-1-0.3c-1,0-1.6,1.1-2,3.3c-0.1,0.5-0.1,1-0.1,1.6s0.1,1.4,0.4,2.3
		s0.6,1.7,1,2.5c0.4,0.7,0.9,1.5,1.3,2.4c0.5,0.9,0.9,1.7,1.3,2.5c1,1.9,1.4,4,1.4,6.5c0,1.9-0.4,3.7-1.2,5.4
		c-0.4,0.8-1,1.5-1.7,2.1s-1.6,0.8-2.6,0.8v0.1c-0.6-0.1-1.1-0.3-1.6-0.6s-0.7-0.7-0.8-1.2v-0.8H351z"/>
	<path class="st0" d="M367,362.3l0.1-1.6c-0.1-0.4-0.4-3.9-0.7-10.5s-0.6-10.6-0.6-12.1c-1.8,0-2.9-0.2-3.3-0.5s-0.6-0.6-0.6-0.9
		s0.2-0.5,0.5-0.7s0.7-0.3,1-0.3l6.3,0.4h0.7c1,0,1.5,0.4,1.5,1.1c0,0.4-0.2,0.7-0.5,0.9s-0.7,0.4-1.1,0.4l-2.1-0.3l-0.1,0.5
		c0,2.9,0.3,7.3,0.8,13.2s0.8,10.2,0.8,13.2c0,0.4-0.1,0.7-0.4,1s-0.6,0.4-1,0.4h-1L367,362.3z"/>
	<path class="st0" d="M389.8,366.5l-7.1,0.4c-0.4,0-0.8-0.1-1.2-0.4c-0.3-0.3-0.5-0.6-0.5-1v-0.2c0.6-0.8,1.2-1.8,1.6-3
		c0.4-1.3,0.7-2.1,0.9-2.5c1.8-3.9,3.1-7.5,3.9-10.8c0.9-3.3,1.3-6.8,1.3-10.6s-0.7-5.7-2.2-5.9c-0.5,0.3-0.8,1-1,2.2
		c-0.2,1.1-0.6,1.7-1.4,1.7c-0.7,0-1.1-0.5-1.1-1.4c0-1.5,0.4-2.7,1.3-3.7c0.5-0.5,1-0.8,1.7-0.8l0,0c1.6,0,2.8,0.5,3.5,1.5
		c0.5,0.7,0.9,1.4,1,2s0.2,1.1,0.3,1.4s0.1,0.8,0.1,1.3c0,0.8,0.1,1.7,0.1,2.5c0,2.7-0.3,5.7-1,9.1s-1.5,6.2-2.6,8.6
		c-0.2,0.4-0.7,1.5-1.6,3.3s-1.5,3.2-1.9,4.3c1.9-0.3,3.6-0.5,5.3-0.5l1.4,1.2L389.8,366.5z"/>
	<path class="st0" d="M395,338.7c0-2.6,0.2-4.4,0.6-5.3c0.4-1,1-1.6,1.7-1.9c0.4-0.2,0.9-0.2,1.4-0.2s1,0.2,1.6,0.5s1,0.6,1.2,0.8
		c0.3,0.2,0.5,0.5,0.7,0.7c0.2,0.3,0.4,0.5,0.5,0.7c0.2,0.2,0.3,0.5,0.4,0.9s0.2,0.6,0.3,0.8c0.1,0.2,0.1,0.5,0.2,1s0.1,0.8,0.1,0.9
		c0.2,1,0.2,1.7,0.3,2.1c0,0.4,0.2,1.2,0.3,2.4s0.3,2.1,0.4,2.7s0.2,1.4,0.3,2.4c0.1,1.1,0.2,2,0.3,2.7c0.2,1.8,0.2,3.5,0.2,5.1
		c0,7.8-1.7,11.6-5.1,11.6c-0.8,0-1.5-0.4-2.2-1.1c-0.6-0.7-1.2-1.7-1.5-2.9c-0.4-1.2-0.7-2.4-1-3.7s-0.5-2.7-0.6-4.2
		c-0.2-2.5-0.3-4.5-0.3-6.2v-9.8H395z M397.2,344.2l0.5,4.5c0,2.4,0.1,5,0.4,7.7c0.5,5.3,1.5,8,2.9,8c0.5,0,0.9-0.5,1.3-1.4
		s0.6-2,0.8-3.4c0.3-2.6,0.5-4.5,0.5-5.9c0-3.2-0.6-8.4-1.7-15.5c-0.2-1.5-0.6-2.7-1.2-3.5s-1.1-1.2-1.7-1.2s-1,0.3-1.4,0.8
		s-0.5,1.2-0.5,2L397.2,344.2z"/>
	<path class="st0" d="M416.2,364.5c0.7-0.1,1.3-0.1,1.7-0.1l0,0c1.3,0,1.9,0.4,1.9,1.2c0,0.9-1.8,1.4-5.3,1.4h-1.4
		c-0.6,0-1-0.1-1.4-0.2s-0.5-0.5-0.5-1v-1c1,0.1,1.5,0.1,1.6,0.1c0.7,0,1-0.3,1-0.8c0-4.7-0.3-10.8-0.8-18.2c0-0.6-0.1-1.6-0.2-2.7
		c-0.2-2.6-0.4-4.6-0.4-6l0.1-1.7c0-1.5-0.5-2.2-1.6-2.2h-1.1c-0.9,0-1.3-0.3-1.3-1c0-0.8,1.2-1.2,3.7-1.2c1.1,0,1.8,0.3,2,0.8
		c-0.1,0.1-0.1,0.4,0,1c0.1,0.5,0.1,1.1,0.1,1.6s0.1,1.7,0.4,3.6s0.4,3.7,0.4,5.4s0.2,5,0.5,9.9s0.5,8.6,0.5,11L416.2,364.5
		L416.2,364.5L416.2,364.5z"/>
	<path class="st0" d="M430.6,365.8c-0.3,0.3-0.6,0.6-1.1,0.8s-1,0.3-1.7,0.3s-1.2-0.2-1.7-0.5s-0.8-0.7-1.1-1.2
		c-0.2-0.5-0.5-1.1-0.6-1.8s-0.3-1.4-0.3-2s-0.1-1.3-0.1-2c0-0.8-0.1-1.3-0.1-1.7c-0.5-3.8-0.7-7.5-0.7-11.1c0-10.7,1.6-16,4.9-16
		c0.2,0,0.5,0.1,0.7,0.3s0.4,0.4,0.4,0.8c0,0.3-0.2,0.6-0.5,0.9s-0.7,0.5-1.2,0.6c-0.5,0.5-1,2.2-1.3,4.8c-0.3,2.7-0.5,5-0.6,7.1
		c0.2,0,0.6-0.1,1.1-0.1s1,0.2,1.6,0.7s1.1,1.1,1.4,1.8s0.7,1.6,1,2.7s0.5,2.1,0.6,3c0.1,1,0.2,2,0.3,3.1c0.1,1.6,0.2,2.9,0.2,4.1
		s0,1.9,0,2.4s-0.1,1-0.3,1.5S430.9,365.4,430.6,365.8z M429,354.8c-0.5-5.2-1.4-7.9-2.6-8.2c-0.4,0.3-0.7,0.6-0.8,1
		c-0.1,0.4-0.2,0.9-0.2,1.5c0,2.9,0.4,7.2,1.1,12.8c0,0.1,0,0.3,0.1,0.6s0.1,0.6,0.1,0.7s0.1,0.4,0.1,0.6c0.1,0.3,0.2,0.4,0.3,0.6
		c0.3,0.3,0.7,0.5,1.2,0.5c0.8,0,1.2-1,1.2-3.1C429.4,359.8,429.2,357.5,429,354.8z"/>
</g>
<g>
	<path class="st0" d="M198.1,203.5c0-4.6,1.3-6.8,3.9-6.8c3.2,0,6,0.8,8.3,2.3c4.8,3,7.1,8,7.1,14.8c0,5.3-2.1,10.9-6.4,16.9
		c3,4.2,4.8,6.6,5.4,7.4c0.6,0.7,1.2,1.5,1.7,2.3s0.7,1.3,0.8,1.5s0.2,0.7,0.4,1.6s0.3,1.6,0.3,2.3c0,1.7,0.2,3.6,0.5,5.9
		s0.5,3.6,0.6,3.8c0.1,0.3,0,1.1-0.4,2.6s-0.6,2.5-0.7,3c-0.1,0.5-0.3,1.2-0.6,2c-0.2,0.9-0.4,1.5-0.6,1.9c-0.2,0.4-0.4,1-0.7,1.7
		s-0.6,1.2-0.9,1.6c-0.3,0.4-0.7,0.8-1.1,1.4c-0.4,0.6-0.9,1-1.4,1.4s-1.1,0.8-1.7,1.2c-2.1,1.5-4.1,2.5-5.7,2.9s-2.6,0.6-2.8,0.6
		h-0.5c-1.9,0-3.1-0.1-3.6-0.4c-1-0.5-1.5-1.3-1.5-2.2l0.5-25.7l-0.7-42.4v-1.6L198.1,203.5L198.1,203.5z M205.2,202.5
		c-1,0-1.4,1.2-1.4,3.7s0.1,6.4,0.2,11.8c0.1,5.4,0.2,9.2,0.2,11.7c2.5-0.6,4.6-3.6,6.4-9.2c1-3,1.6-4.7,1.8-5.4v-3.6
		c0-2-0.7-4-2.2-6S207.1,202.5,205.2,202.5z M207.7,235L207.7,235l-3.6-0.1c0.3,8.6,0.5,20.5,0.5,35.5c3.4-0.5,6-2.1,8-4.8
		c1.9-2.7,2.9-5.8,2.9-9.4C215.4,244.4,212.8,237.3,207.7,235z"/>
	<path class="st0" d="M234.8,197.9l1.1,37.6c0,1.2-0.1,2.3-0.2,3.3v0.5c0.1,2,0.3,4.9,0.5,8.6c0.5,8.3,0.8,14.5,0.8,18.7v3.3h7.4
		c1.2,0.7,1.8,1.2,2,1.5s0.3,0.7,0.3,1.3s-0.3,1.1-0.8,1.7s-1,0.9-1.6,0.9c-0.5,0-1.2-0.1-1.9-0.4c-0.6,0.1-1.2,0.2-2,0.2l-3.4-0.2
		c-0.7,0.8-1.6,1.3-2.7,1.3s-2-0.3-2.7-1s-1.1-1.4-1.1-2.3l0.7-4.6c0-7.9-0.3-19.8-1-35.6s-1-27.7-1-35.6c0-0.6,0.3-1.2,0.8-1.6
		c0.5-0.4,1.1-0.6,1.9-0.6s1.5,0.3,2.1,0.9C234.5,196.3,234.8,197.1,234.8,197.9z"/>
	<path class="st0" d="M265.4,236.8l-2.6-0.1c-0.8,0-1.4,0.3-1.8,0.8v32.2c3.6-0.2,5.4-0.3,5.5-0.3c3.9,0,5.8,0.9,5.8,2.8v0.4
		c-0.5,1-1.3,1.7-2.4,2.2s-2.1,0.8-3,0.9s-2,0.1-3.4,0.1h-3.2c-2.7,0-4.3-0.5-4.9-1.5c-0.3-0.5-0.4-1.1-0.4-1.9V197l9-0.9
		c1.1,0,2.1,0.3,3.2,0.9c1.1,0.6,1.6,1.5,1.6,2.5c0,2.1-1.6,3.1-4.7,3.1l-3-0.1c-0.5,0-0.9,0-1.1,0.1l0.8,17.2
		c0,1.4-0.1,3.4-0.3,6.1c-0.2,2.7-0.3,4.6-0.3,5.8c0.4-0.1,0.9-0.2,1.5-0.4c1.4-0.4,2.5-0.6,3.3-0.6s1.5,0.3,2.1,0.9
		c0.6,0.6,0.9,1.3,0.9,2.1s-0.3,1.5-0.8,2.2C266.9,236.4,266.3,236.8,265.4,236.8z"/>
	<path class="st0" d="M303.4,195h2.2c-0.5,4.5-1.7,14.4-3.7,29.6s-3.2,25.2-3.6,29.9c-0.4,4.7-0.6,7.9-0.6,9.6s-0.1,3.2-0.1,4.5
		c-0.1,1.3-0.2,2.6-0.4,3.9c-0.4,2.9-1.5,4.3-3.1,4.3c-1,0-1.8-0.4-2.4-1.1c-1.6-6.6-4-19.9-7.1-39.8c-3.2-19.9-5.4-32.7-6.7-38.5
		c0.4-1.4,1.4-2,3.1-2c0.8,0,1.3,0.2,1.6,0.5c0.3,0.4,0.5,0.6,0.6,0.8s0.3,0.5,0.4,0.9s0.2,0.7,0.2,0.9c0.1,0.2,0.1,0.6,0.2,1
		s0.2,1.7,0.6,3.7c0.3,2.1,1.1,7.1,2.3,15.1c2.5,17.3,4.7,30.5,6.5,39.4c0.4-3.9,1.3-10.2,2.5-18.8c2.5-17.8,3.8-31.8,3.8-41.8
		C300.6,195.7,301.9,195,303.4,195z"/>
	<path class="st0" d="M351.3,256.1l-3.9,0.4c-2.3,0-3.5-1-3.5-3c0-1.7,2.2-2.8,6.5-3.3c0.8-0.1,1.8-0.2,2.8-0.2s1.9,0.5,2.7,1.6
		c0.7,1.1,1.1,2.5,1.1,4.4c0,1.8,0.3,4.8,1,8.9s1,6.9,1,8.3c0,2.5-0.9,3.8-2.6,3.8s-2.9-0.7-3.5-2.2v-0.1c-0.4,0.2-1.1,0.6-2.2,1.2
		c-2.1,1.2-3.9,1.7-5.5,1.7s-3.2-0.3-4.8-1c-1.6-0.6-2.9-1.5-4.1-2.5c-1.1-1-2.2-2.3-3.1-3.9s-1.6-3.2-2.2-4.7
		c-0.6-1.6-1.1-3.4-1.5-5.5s-0.7-4-0.9-5.7s-0.4-3.6-0.5-5.8c-0.2-2.7-0.3-6-0.3-9.9l-0.1-7.7c0-16.3,2.3-27.2,6.9-32.5
		c2.7-3.1,6.2-4.7,10.5-4.7c2.8,0,4.2,1,4.2,3c0,0.7-0.3,1.3-0.8,1.8s-1.1,0.7-1.9,0.7l-2.9-0.5c-2.5,0-4.5,1.6-6,4.7
		c-1.5,3.3-2.5,6.5-2.9,9.7s-0.8,5.7-1,7.6c-0.2,1.9-0.3,4-0.4,6.4c-0.1,3.3-0.2,6.6-0.2,9.9l-0.1,6.5c0,6.8,0.3,11.6,0.9,14.4
		c0.6,2.7,1.2,4.9,1.8,6.6c0.6,1.7,1.3,3.1,2.1,4.2c1.9,2.5,4.3,3.7,7.3,3.7s5.4-1.5,7.4-4.4C352.8,261.8,352.3,257.8,351.3,256.1z"
		/>
	<path class="st0" d="M378.6,269.1l2.1-0.1c2.8,0,4.2,0.6,4.2,1.7c0.3,1.2,0.1,2-0.4,2.5s-1.3,0.7-2.2,0.7h-13c-2,0-3-0.8-3-2.4
		s1.1-2.4,3.2-2.4l3.2,0.1c0.3,0,0.5-1.7,0.5-5.2s-0.3-10.6-1-21.3c-0.6-10.7-1-18.8-1-24.1l0.2-10.7c0-2.2-0.1-4.2-0.3-5.8
		c-0.9,0.3-1.7,0.5-2.4,0.5c-1.6,0-2.4-0.8-2.4-2.5c0-0.8,0.5-1.6,1.6-2.2c1.1-0.6,2.4-1.1,3.9-1.4c2.9-0.5,5.1-0.8,6.5-0.8
		s2.4,0.3,3,0.8c0.6,0.6,0.9,1.2,0.9,2s-0.2,1.4-0.7,2s-1,0.8-1.8,0.8l-1.8-0.1c-0.7,0-1.2,0.1-1.5,0.4c-0.3,0.3-0.5,0.9-0.5,1.7
		c0,6.8,0.4,17,1.3,30.5c0.9,13.6,1.3,23.7,1.3,30.5L378.6,269.1L378.6,269.1z"/>
	<path class="st0" d="M408,232.8c0,2.3-2.9,3.4-8.7,3.4c0,3.8,0.3,9.4,1,17c0.7,7.5,1,13.2,1,17l-0.2,0.7c0.1,0.3,0.2,0.8,0.2,1.5
		s-0.3,1.3-1,1.9c-0.6,0.5-1.5,0.8-2.5,0.8c-2,0-3-2.2-3-6.7c0-6.6-0.3-19.2-1-37.6s-1.4-28.2-2.1-29.3c0-3.6,2.5-5.5,7.4-5.8
		c0.7,0,1.7-0.1,3-0.1s2.3,0.2,3,0.7s1.1,1.4,1.1,2.9s-1,2.2-2.9,2.2l-2.5-0.1c-1.9,0-2.9,0.4-2.9,1.2c0,3.2,0.3,8,0.8,14.2
		s0.8,10.9,0.8,13.8c3-0.7,4.9-1.1,5.7-1.1c0.8,0,1.5,0.3,2.1,1C407.7,231.2,408,232,408,232.8z"/>
	<path class="st0" d="M428.8,214.4l-0.2,13.5c0,6.4,0.5,11.7,1.6,16v0.1c-0.5,2.2-0.7,4.9-0.7,8l0.9,18.8c0,3.4-1,5.1-3,5.1
		c-1.2,0-2-0.5-2.5-1.6s-0.8-2.3-0.8-3.6l0.8-16.7c0-3.6-0.2-9-0.7-16.3c-0.5-7.2-0.7-12.7-0.7-16.3l0.2-9.1c0-5-0.3-8.2-1-9.7
		l-5.7,0.6c-0.9,0-1.7-0.3-2.4-0.8c-0.7-0.5-1-1.2-1-2s0.8-1.5,2.5-2.1s3.7-1,6.1-1.3c4.2-0.5,7.7-0.7,10.6-0.7
		c0.8,0,1.6,0.3,2.3,0.8c0.7,0.6,1,1.3,1,2.1s-0.3,1.5-0.9,2s-1.4,0.7-2.2,0.7l-3.7-0.2c-0.5,0-0.8,0-1.1,0.1
		C428.5,205.5,428.8,209.8,428.8,214.4z"/>
</g>
</svg>
