<?xml version="1.0" encoding="UTF-8" standalone="no"?>
<svg width="71px" height="95px" viewBox="0 0 71 95" version="1.1" xmlns="http://www.w3.org/2000/svg" xmlns:xlink="http://www.w3.org/1999/xlink" xmlns:sketch="http://www.bohemiancoding.com/sketch/ns">
    <!-- Generator: Sketch 3.5.2 (25235) - http://www.bohemiancoding.com/sketch -->
    <title>Hjerte Copy</title>
    <desc>Created with Sketch.</desc>
    <defs></defs>
    <g id="Website" stroke="none" stroke-width="1" fill="none" fill-rule="evenodd" sketch:type="MSPage">
        <g id="Mobile-Portrait" sketch:type="MSArtboardGroup" transform="translate(-126.000000, -672.000000)" fill-opacity="0.9" fill="#1C0D0A">
            <g id="Rectangle-3-+-Hjerte-Copy" sketch:type="MSLayerGroup" transform="translate(0.000000, 651.000000)">
                <g id="Hjerte-Copy" transform="translate(126.000000, 21.000000)" sketch:type="MSShapeGroup">
                    <path d="M32.0486582,35.40186 L31.9989283,39.3429532 C31.9989283,40.4453045 32.0755944,42.0967345 32.228929,44.2972928 C32.3822636,46.4978511 32.4589297,48.2777487 32.4589297,49.637039 C32.4589297,50.9963292 32.2765886,52.1628977 31.911901,53.1367795 C31.5472133,54.1106612 30.9048754,54.9249799 29.984868,55.57976 C29.7196406,55.57976 29.5000025,55.5134541 29.3259471,55.3808404 C29.1518916,55.2482267 29.0648652,55.0658857 29.0648652,54.8338117 C29.0648652,54.6017378 29.1705401,54.3903879 29.3818932,54.1997557 C29.5932462,54.0091235 29.8191005,53.8640795 30.0594628,53.7646192 C30.739108,52.9109186 31.0789254,51.7132693 31.0789254,50.1716352 C31.0789254,49.326223 31.0354122,48.1161413 30.9483845,46.5413538 C30.8613568,44.9665663 30.8116274,43.9036006 30.7991948,43.352425 C30.7867623,42.8012494 30.776402,42.0967498 30.7681137,41.238905 C30.7598253,40.3810602 30.7515371,39.6827768 30.7432487,39.1440337 C30.7183837,37.7101482 30.6106367,36.3964636 30.4200045,35.2029405 C30.361986,35.2112288 30.2500949,35.2360935 30.0843278,35.2775353 C29.7527936,35.3604189 29.4979305,35.40186 29.3197308,35.40186 C29.1415312,35.40186 28.9881989,35.3376262 28.8597294,35.2091567 C28.7312599,35.0806872 28.6670261,34.929427 28.6670261,34.7553715 C28.6670261,34.15861 29.6823344,33.8602336 31.7129814,33.8602336 C32.6910074,33.8602336 33.180013,34.0923041 33.180013,34.556452 C33.180013,35.0205999 32.8028985,35.240238 32.0486582,35.2153729 L32.0486582,35.40186 Z M37.6929999,44.4029688 L37.5438102,42.5380982 C37.5438102,41.6015141 37.8173218,41.133229 38.3643533,41.133229 C38.5632738,41.133229 38.7373266,41.205751 38.886517,41.3507972 C39.0357074,41.4958435 39.1103015,41.6678242 39.1103015,41.8667448 L39.1103015,42.1775565 C39.1103015,42.2272867 39.1082295,42.3536822 39.1040853,42.5567469 C39.0999411,42.7598116 39.0999411,42.9587291 39.1040853,43.1535055 C39.1082295,43.3482818 39.1144456,43.5492714 39.122734,43.7564803 C39.1393107,44.2206282 39.2139048,44.4526987 39.3465185,44.4526987 L40.8259825,44.3532389 C41.7045481,44.3532389 42.1438244,44.6101741 42.1438244,45.1240521 C42.1438244,45.3229726 42.0733744,45.4887372 41.9324724,45.6213509 C41.7915703,45.7539646 41.6216616,45.8202705 41.4227411,45.8202705 L39.9184121,45.6835133 C39.379669,45.6835133 39.1103015,45.8865749 39.1103015,46.2927043 L39.3465185,48.3316295 C39.3465185,48.5388384 39.2615641,48.7066751 39.0916528,48.8351446 C38.9217415,48.9636141 38.7331843,49.0278479 38.5259754,49.0278479 C38.3187665,49.0278479 38.1281372,48.9677582 37.9540817,48.8475771 C37.7800263,48.7273959 37.6929999,48.5719916 37.6929999,48.3813594 L37.7675947,45.9072978 L37.7675947,45.7208107 L36.1140761,45.8327029 C35.3929892,45.8327029 35.0324511,45.5633354 35.0324511,45.0245923 C35.0324511,44.8505369 35.0842526,44.6972046 35.187857,44.5645909 C35.2914614,44.4319772 35.4302893,44.3656714 35.6043448,44.3656714 L37.1086737,44.4526987 C37.324171,44.4526987 37.5189444,44.4361222 37.6929999,44.4029688 L37.6929999,44.4029688 Z M45.674646,34.3699649 L45.9357279,43.5326958 C45.9357279,43.8310766 45.9191515,44.1004441 45.885998,44.3408064 L45.885998,44.4526987 C45.9108631,44.9417116 45.9481602,45.637923 45.9978903,46.5413538 C46.1222156,48.5554241 46.1843773,50.0721703 46.1843773,51.091638 L46.1843773,51.8997486 L47.9995181,51.8997486 C48.2813221,52.0655157 48.4429426,52.1856951 48.4843844,52.2602903 C48.5258262,52.3348855 48.5465468,52.4405604 48.5465468,52.5773183 C48.5465468,52.7140761 48.484385,52.8549761 48.3600597,53.0000223 C48.2357344,53.1450685 48.1072668,53.2175905 47.9746531,53.2175905 C47.8420394,53.2175905 47.6887072,53.1885817 47.5146517,53.1305632 C47.3737497,53.1637167 47.2121292,53.1802931 47.0297854,53.1802931 L46.2092423,53.1429957 C46.0351868,53.3502046 45.8176208,53.4538075 45.5565376,53.4538075 C45.2954544,53.4538075 45.0758163,53.3729972 44.8976166,53.2113743 C44.719417,53.0497514 44.6303185,52.8611941 44.6303185,52.6456969 C44.6303185,52.6456969 44.684192,52.2727265 44.7919406,51.5267745 C44.7919406,49.5955877 44.7069863,46.7009231 44.537075,42.8426937 C44.3671637,38.9844644 44.2822093,36.0897997 44.2822093,34.1586129 C44.2822093,34.0011342 44.3443711,33.8747387 44.4686964,33.7794226 C44.5930217,33.6841065 44.748426,33.6364492 44.934914,33.6364492 C45.121402,33.6364492 45.2913108,33.7068991 45.4446453,33.8478012 C45.5979799,33.9887032 45.674646,34.1627561 45.674646,34.3699649 L45.674646,34.3699649 Z" id="J+L"></path>
                    <g id="Group-95">
                        <path d="M46.7915,93.1169 L47.0845,91.8009 C45.0855,91.7389 45.9895,91.0339 43.9465,92.3629 C43.9165,93.1339 43.8435,94.8399 44.5895,94.9519 C44.7345,94.4479 44.4055,93.4659 44.9265,92.8599 C45.2765,93.3789 44.8805,94.1049 45.3505,94.7439 C46.3855,93.8459 45.2645,93.8469 46.0575,92.7059 L46.7915,93.1169 Z" id="Fill-2"></path>
                        <path d="M45.7418,90.9449 C45.9838,91.1829 46.2228,91.4269 46.4698,91.5119 C46.2298,91.2699 46.1278,90.5279 45.7418,90.9449" id="Fill-4"></path>
                        <path d="M45.8894,90.1359 C46.2854,89.4049 46.5084,90.4229 46.6354,90.3869 L45.9214,89.0459 L45.8894,90.1359 Z" id="Fill-6"></path>
                        <path d="M47.3372,87.0124 C47.3602,86.8764 47.3782,86.7454 47.3852,86.6144 C47.1582,86.6614 47.2642,86.8244 47.3372,87.0124" id="Fill-8"></path>
                        <path d="M47.8734,85.4025 C47.3614,85.5515 47.4174,86.0385 47.3854,86.6135 C47.4154,86.6075 47.4344,86.6005 47.4774,86.5955 C47.9814,86.2955 48.5894,87.0435 48.0804,87.6595 C47.9344,88.4715 47.1954,88.0705 47.4234,88.9275 L48.4334,88.3255 C48.8404,87.1255 47.9914,85.9835 47.8734,85.4025" id="Fill-10"></path>
                        <path d="M47.3372,87.0124 C47.3102,87.1554 47.2702,87.3024 47.2082,87.4464 C47.4172,87.3204 47.3932,87.1644 47.3372,87.0124" id="Fill-12"></path>
                        <path d="M46.5575,88.5599 L46.5475,89.0239 L46.9185,89.0719 L46.5575,88.5599 Z" id="Fill-14"></path>
                        <path d="M48.9098,82.7747 C49.8998,83.4067 48.0128,84.5877 48.7548,85.1397 C49.1448,84.0977 50.2698,83.6007 50.7638,84.0737 L50.9098,82.7927 C50.6668,82.2427 49.6618,82.3927 48.9098,82.7747" id="Fill-16"></path>
                        <path d="M52.5442,81.6644 C52.4852,81.5534 52.4602,81.4414 52.4702,81.3284 C52.4612,81.4714 52.4712,81.5994 52.5442,81.6644" id="Fill-18"></path>
                        <path d="M53.0502,75.1186 L53.0572,78.2336 C52.8132,77.8456 52.4352,77.8076 52.5592,77.1486 C51.9352,78.2746 52.5612,78.7076 52.0522,79.6376 C50.9352,79.5246 52.6812,77.8876 51.5592,78.0866 C51.3122,78.7846 50.9322,79.8326 51.5522,80.7316 L50.4192,81.5406 L51.6692,81.6256 C52.1672,81.3106 51.1802,80.3786 52.0532,80.4176 C52.5792,80.4726 52.4872,80.9526 52.4672,81.3126 C52.5392,80.5166 54.1182,79.7286 54.5572,78.2256 C55.0552,76.6586 53.1812,76.3276 53.0502,75.1186" id="Fill-20"></path>
                        <path d="M54.3015,75.4974 L54.8025,75.4884 L54.1725,75.3814 L54.3015,75.4974 Z" id="Fill-22"></path>
                        <path d="M54.0157,71.9984 L54.1617,73.6684 C54.0067,73.7814 53.7457,73.7744 53.5027,73.7954 C53.7797,73.8424 54.0617,74.3874 54.2937,74.4104 C55.5447,74.1554 54.6487,72.5684 54.7637,71.7514 C55.9817,69.9344 55.2647,72.0484 56.5057,71.6374 C56.2647,72.1864 56.0197,72.1174 55.6497,72.8634 C57.2487,72.0774 56.8067,70.1384 56.8217,69.2494 C56.6347,69.4404 56.3027,69.3814 56.2277,69.8484 L56.2087,68.9104 C55.0947,69.4504 54.6117,70.0854 54.0157,71.9984" id="Fill-24"></path>
                        <path d="M53.0455,74.4994 C53.1775,73.9504 53.3265,73.7884 53.4865,73.7974 C53.1655,73.8274 52.9005,73.9264 53.0455,74.4994" id="Fill-26"></path>
                        <path d="M56.9545,68.8162 C56.8585,68.8802 56.8255,69.0322 56.8215,69.2492 C56.8985,69.1702 56.9585,69.0482 56.9545,68.8162" id="Fill-28"></path>
                        <path d="M55.4647,69.1657 L55.9437,68.2217 L55.3227,68.4307 C55.3227,68.5867 55.2137,69.0977 55.4647,69.1657" id="Fill-30"></path>
                        <path d="M68.6492,30.8726 C68.2062,30.8906 67.9282,31.2376 67.8492,32.0616 C67.3002,31.8546 67.6142,30.8296 67.3682,30.2786 C66.8112,31.2796 66.7012,30.1416 66.1012,30.3116 C65.8312,31.4736 66.4692,32.1426 66.0582,33.3716 C65.9112,33.2776 65.6552,33.2486 65.4232,33.3696 C65.4812,34.9476 65.4042,37.6266 64.5542,38.9686 C63.9892,40.3226 63.9822,41.4296 63.8132,43.0406 C62.1342,48.0116 61.0562,53.4146 58.7022,58.5726 L59.5072,59.6956 C58.8832,59.7696 59.0662,60.9686 58.4272,60.5746 C58.6612,60.3296 58.6462,60.0146 58.7552,59.6596 C57.4242,60.4716 57.7682,62.7046 56.9382,63.9466 C57.1842,63.8606 58.1872,63.9726 58.2032,64.4426 C57.0632,63.9026 57.6342,66.0606 56.1332,65.9576 C55.2922,67.1906 57.1442,66.3936 56.4292,67.7366 C57.0662,68.1466 57.2742,66.5056 57.8912,66.4416 C58.2912,67.0976 57.1742,67.6376 57.9272,67.8476 C59.1302,65.6956 59.2222,60.9226 60.0052,57.2876 L60.5392,57.8796 C60.6842,55.9186 61.6172,53.0076 63.1482,51.8906 C62.4162,52.0396 64.3252,49.3116 62.8012,49.1406 C63.2722,48.7836 63.2582,48.6266 63.5762,48.0076 L63.1722,47.6956 C63.4632,46.7646 64.1212,47.1236 64.3872,46.0326 C63.5662,46.5556 63.6032,45.7236 63.1782,45.2646 C64.2252,44.2366 65.2342,42.9656 66.0982,42.0096 C65.8722,42.0436 65.6162,42.0806 65.2472,42.3866 C65.6662,41.6976 65.0342,41.6656 64.8742,41.4096 C65.0342,40.6806 65.8252,40.9666 66.2222,41.1076 C66.8102,39.8306 65.4202,38.8536 66.1762,37.9846 L65.4442,38.1736 C65.6182,36.7726 66.6022,35.7756 66.7082,34.2016 C67.7612,33.6496 67.2132,35.6266 67.4442,36.3466 C67.7012,36.0766 67.9012,35.4276 68.2412,35.2786 C67.9232,34.5186 67.5512,33.2846 67.2732,32.3816 C68.1562,33.3746 68.4942,31.3956 68.6492,30.8726" id="Fill-32"></path>
                        <path d="M68.2415,35.2784 C68.3375,35.5024 68.4205,35.6884 68.4965,35.8024 C68.4745,35.6424 68.4475,35.4884 68.5395,35.2724 C68.4295,35.2264 68.3315,35.2384 68.2415,35.2784" id="Fill-34"></path>
                        <path d="M68.6492,30.8726 C68.6892,30.8726 68.7222,30.8576 68.7612,30.8596 C68.7272,30.6926 68.6942,30.7336 68.6492,30.8726" id="Fill-36"></path>
                        <path d="M64.4476,39.1483 C64.4886,39.0963 64.5166,39.0273 64.5546,38.9683 C64.5836,38.8863 64.6096,38.8133 64.6406,38.7263 L64.4476,39.1483 Z" id="Fill-38"></path>
                        <path d="M67.0934,41.0278 C66.7934,41.2668 66.4494,41.6128 66.0984,42.0098 C66.4214,41.9568 66.6794,41.9138 67.0934,41.0278" id="Fill-40"></path>
                        <path d="M63.7546,50.0312 C63.7806,50.3462 64.0216,50.2432 64.1696,50.5022 C64.3726,49.9332 64.2256,49.6722 63.7546,50.0312" id="Fill-42"></path>
                        <path d="M68.77,33.6158 L68.804,32.3928 L68.712,31.9258 L68.77,33.6158 Z" id="Fill-44"></path>
                        <path d="M65.8564,9.5364 C65.4674,10.7414 66.2934,11.9824 66.3344,13.2584 C67.0344,15.4844 68.1324,13.3084 68.4304,15.5744 L66.7664,15.3094 C67.0694,17.5004 66.6154,20.5674 67.8724,22.5774 C67.6584,22.7264 67.3794,23.0974 67.1974,22.5024 C67.1274,23.9794 69.4584,23.4974 68.6874,25.4534 C67.8924,23.4654 67.6584,25.9484 66.7114,25.3074 L66.6304,25.0084 C66.5894,26.2594 66.8714,27.9854 66.6674,28.7984 C67.0764,28.9034 67.8304,28.2804 67.6974,29.4024 C67.8584,28.9664 68.2934,29.2254 68.7034,29.3324 C68.4274,28.0954 68.8184,27.5124 68.3594,26.7254 C68.9954,26.1524 68.4774,27.1904 69.1044,26.6104 L68.7294,25.6094 C68.9354,24.9284 69.1924,26.3934 69.4304,25.3254 C69.1244,25.1594 68.8924,24.2484 69.0384,23.4094 L69.2044,23.6714 C69.0454,23.0024 69.3954,22.1054 68.4614,22.3484 L69.4184,21.6454 L68.7924,21.7394 C69.1444,19.9964 70.6654,19.3304 69.8574,16.9454 C69.6944,17.5184 69.3394,17.0034 69.2104,16.7074 C68.8244,17.6934 69.6904,17.9004 69.7864,18.8404 C69.1684,18.9574 68.4224,17.4194 68.0554,18.5174 C68.8044,17.3044 67.9174,16.2714 69.4364,15.6524 C69.4044,14.1184 68.6184,13.6584 68.6874,12.0784 L68.9234,12.0774 C68.3884,12.0294 68.4624,11.7044 68.4664,11.2614 C68.4604,10.8244 68.4674,10.2504 67.7664,9.8524 C67.7664,9.8524 67.7764,10.0654 67.7854,10.2784 C67.7804,10.4904 67.7764,10.7024 67.7764,10.7024 C67.3634,10.7724 67.2624,10.4004 67.0114,9.9164 C67.1864,9.9244 67.1874,9.9264 67.3214,9.6944 C66.5884,9.7494 65.8664,8.2664 65.5414,8.2094 C65.7354,8.8534 66.6114,9.4014 67.0454,10.1524 C66.4974,9.8854 65.9604,10.2054 65.8564,9.5364" id="Fill-46"></path>
                        <path d="M69.512,24.1789 L69.205,23.6709 C69.249,23.8699 69.336,24.0569 69.512,24.1789" id="Fill-48"></path>
                        <path d="M62.7323,3.6218 C61.9743,3.0288 63.2843,3.1988 62.6473,2.4858 C61.5393,2.4808 63.1083,3.9228 61.8993,4.1528 C61.6083,3.5018 60.4503,3.7398 60.1153,3.6148 C60.6783,3.3818 60.8923,2.4078 60.8133,2.1498 C60.3623,2.2558 59.8023,1.4838 59.2193,1.2058 C60.4133,2.3768 57.8973,1.0518 58.9293,2.2068 C58.6223,2.6668 57.1903,2.6808 56.7913,2.0678 C56.9453,1.6768 57.3623,1.9058 57.7253,2.0058 C58.2753,1.3488 56.9513,1.2958 56.9213,0.5358 C56.4773,0.7188 55.8663,0.7898 55.2223,0.8288 C54.5753,0.8778 53.8733,0.9898 53.2873,1.0858 C52.0843,1.4098 51.3803,1.8548 52.0143,2.7358 C52.4503,3.0858 52.8043,2.6198 53.2933,2.5838 C51.9583,2.2028 53.3143,1.6078 53.4913,1.3418 C54.0803,1.6898 55.2273,1.2588 54.8813,1.8668 C54.8813,1.8668 54.6123,1.9908 54.3533,2.1328 C54.0993,2.2728 53.8453,2.4118 53.8453,2.4118 C54.5793,2.5388 55.3573,2.7998 56.1813,3.0108 C56.5893,3.1358 57.0013,3.3008 57.4253,3.4378 C57.8523,3.5668 58.2773,3.7298 58.7003,3.9198 C59.1283,4.0938 59.5593,4.2688 59.9903,4.4448 C60.4103,4.6448 60.8303,4.8458 61.2463,5.0448 C62.1523,5.4118 62.7403,5.8668 63.4023,6.4068 C63.4023,6.4068 63.1493,6.1578 62.8963,5.9078 C62.7753,5.7728 62.6303,5.6798 62.5283,5.5978 C62.4243,5.5178 62.3563,5.4648 62.3563,5.4648 C62.5573,5.3148 62.8083,5.3378 63.0853,5.4228 C63.3443,5.5338 63.6233,5.7058 63.9163,5.8218 C63.9383,5.8428 64.1423,4.4288 64.1193,4.4088 C64.4383,4.8218 64.9173,5.0408 64.5823,5.3008 C65.3383,5.4258 65.4113,5.0358 65.4273,4.4498 C66.5483,5.4178 66.2633,5.8578 67.5003,6.3928 C67.2853,5.1048 66.7523,4.7598 66.2153,4.4728 C65.9523,4.3198 65.6783,4.1728 65.3533,3.9228 C65.0413,3.6628 64.7153,3.2838 64.1883,2.6698 C64.1883,2.6698 63.7923,2.8748 63.4293,3.1028 C63.0703,3.3438 62.7323,3.6218 62.7323,3.6218" id="Fill-51"></path>
                        <path d="M66.5966,6.6246 L66.1956,6.5556 L65.8016,6.4996 C65.8016,6.4996 66.4956,7.0066 66.4776,7.0196 L66.5966,6.6246 Z" id="Fill-53"></path>
                        <path d="M64.0094,7.4003 C64.2074,7.2323 64.4514,7.3903 64.6524,7.2303 C64.4884,6.8083 64.3204,6.6873 64.2104,6.7543 C64.0994,6.8213 64.0584,7.0543 64.0094,7.4003" id="Fill-55"></path>
                        <path d="M55.6572,0.2008 C55.6572,0.2008 55.3352,0.1858 55.0142,0.1698 C54.6872,0.1848 54.3602,0.1988 54.3602,0.1988 C54.3602,0.1988 55.1572,0.5068 55.1462,0.5318 C55.1682,0.2698 55.4922,0.2278 55.6572,0.2008" id="Fill-57"></path>
                        <path d="M47.9465,3.9281 C48.2475,3.7311 48.5235,3.6001 48.7655,3.4301 C49.0085,3.2621 49.2405,3.1151 49.4995,3.0221 C49.7535,2.9181 50.0235,2.8311 50.3345,2.7811 C50.6535,2.7661 51.0175,2.8041 51.4335,2.8971 C51.7985,2.4641 51.6985,2.1161 51.5035,1.7871 C51.3155,1.4581 51.0345,1.1491 51.2025,0.7771 C50.2175,0.7521 50.5035,1.9481 49.7095,2.4301 C49.4705,2.1561 49.1375,2.2551 48.7925,2.4781 C48.4515,2.7261 48.0845,3.0251 47.6665,3.1331 C47.8765,3.3291 47.9995,3.6141 47.9465,3.9281" id="Fill-60"></path>
                        <path d="M42.1293,5.3479 C41.5903,5.9399 41.5433,6.8759 40.9323,7.1889 C40.6393,6.8839 40.7963,6.4039 41.1683,6.0869 C40.2443,5.7729 40.7463,6.8669 39.7673,7.2379 C39.8943,7.2289 40.1953,7.0529 40.2373,7.3689 C39.5673,8.2019 39.5823,8.5619 39.5413,8.9629 C39.4913,9.3649 39.3663,9.7899 38.5373,10.8819 C38.6053,11.3459 38.4533,11.6899 39.0483,11.8869 C38.3813,12.4039 38.1273,12.5079 37.8773,12.6479 C37.6143,12.8159 37.3603,12.9649 36.9263,13.1569 C37.0803,13.2639 37.3563,13.3779 37.6953,13.4709 C38.0333,13.5709 38.4423,13.6419 38.7863,13.8359 C38.3033,14.3229 38.0723,14.6259 37.9093,14.9239 C37.7613,15.2179 37.7003,15.4989 37.6473,15.7789 C37.5473,16.3139 37.4743,16.9459 37.0663,16.9749 C37.0863,16.7509 37.0273,16.2679 37.1863,16.0869 C36.8503,15.4019 36.8183,15.6529 36.8203,16.2179 C36.8243,16.7669 36.8283,17.7009 36.6983,17.8529 L36.3343,15.8979 C36.3093,16.2599 36.3053,17.0069 36.2493,17.6079 C36.1993,18.1949 36.1043,18.6279 35.9823,17.9189 L35.8983,16.4299 C35.9003,17.0429 35.8813,17.5879 35.8633,18.0689 C35.8393,18.1489 35.7883,17.9699 35.7313,17.8179 C35.5593,17.3029 35.3473,16.5259 35.0703,16.2869 C35.0703,16.2869 35.0533,15.8849 35.0363,15.4829 L35.0283,14.7549 C34.6623,14.7259 34.7253,15.0539 34.8553,15.7839 C34.9113,16.1369 34.9843,16.5649 34.9883,17.0139 C34.9893,17.4529 34.9573,17.9339 34.7163,18.1509 C34.8783,16.4699 34.7823,16.5579 34.5423,16.6049 C34.3083,16.6939 33.8673,16.5829 33.7413,15.5719 C33.8033,14.9319 33.9973,15.1399 34.1643,15.2629 C34.3423,15.4029 34.4743,15.4509 34.5563,14.7279 C34.3073,15.1939 34.2053,15.1219 34.1353,14.9399 C34.0613,14.7509 34.0293,14.4679 33.8093,14.3309 C34.4233,13.7099 33.3693,13.2929 34.2583,12.9699 C34.2443,12.9469 34.1713,13.0109 33.9173,12.8669 C33.6643,12.7139 33.3173,12.5199 32.9603,12.3429 C32.2673,11.9719 31.5513,11.6789 31.5513,11.6789 C31.6853,11.0439 31.1053,10.4789 30.6373,10.1289 C31.5593,11.2229 29.4743,10.6659 30.1593,12.0809 C30.5693,12.4539 31.0353,12.9119 31.4793,13.4679 C31.7273,13.7579 31.8893,13.9939 32.1703,14.4039 C32.4363,14.7899 32.6603,15.2139 32.8923,15.6309 C33.8173,17.3169 34.3993,19.2389 34.9663,22.8479 C35.1613,20.8009 35.3053,21.2249 35.4593,22.0409 C35.5383,22.4309 35.6193,22.9009 35.6803,22.9329 C35.7123,22.9459 35.7383,22.8439 35.7553,22.5479 C35.7613,22.3369 35.7673,22.1389 35.7723,21.9489 C35.7753,21.7539 35.7773,21.5709 35.7803,21.3919 C35.8563,23.2989 35.9613,25.9189 36.0403,27.8879 C36.0593,28.3019 36.0713,28.5569 36.0833,28.8279 C36.2083,28.2139 36.2343,27.8199 36.2253,27.3509 C36.2143,26.8879 36.1733,26.3359 36.1143,25.7109 C36.0583,25.0339 35.9863,24.1609 35.9373,23.5679 C35.9073,23.0169 35.8853,22.6209 35.8733,22.3999 C35.8673,22.1979 35.8653,22.1279 35.8583,21.9179 C35.8593,21.8809 35.8613,21.8279 35.8633,21.7439 C35.9973,21.6159 36.2733,25.9149 36.3953,27.9719 C36.5363,27.1439 36.5233,26.6589 36.4563,25.8729 C36.4243,25.4379 36.3823,24.8789 36.3413,24.3389 C36.3273,24.0579 36.3113,23.7699 36.2843,23.2519 C36.2683,22.8729 36.2453,22.3269 36.2473,22.0859 L36.5483,24.5809 C36.7153,25.8249 36.9043,26.8619 36.9043,26.8619 C37.1393,24.5399 37.3863,22.1659 37.6433,20.1589 C37.8913,18.1039 38.2113,16.5479 38.6113,15.1009 C38.7963,14.4019 39.0483,13.6539 39.2543,13.0939 C39.4733,12.5139 39.7143,11.9399 39.9883,11.3879 C40.5313,10.2809 41.2153,9.2619 41.9953,8.3979 L41.1503,8.2629 C41.9103,7.4799 42.0983,6.5179 42.4823,5.6489 C42.8523,4.7969 43.4433,4.0249 44.7383,4.0659 C44.7383,4.0659 44.7623,3.8269 44.7853,3.5869 C44.8063,3.3399 44.8583,3.1149 44.8583,3.1149 C44.7863,3.6259 45.8543,3.8609 45.7233,4.5969 C46.0333,4.0869 46.6493,3.9489 47.0413,3.5009 C47.0413,3.5009 46.7693,3.5329 46.4973,3.5849 L45.9653,3.7229 C46.1943,2.7079 47.2273,2.7169 47.6553,3.1219 C48.1923,2.4659 47.8853,2.2329 47.2773,2.1269 C46.7023,2.0689 45.8473,2.1639 45.5043,1.9929 C45.1793,2.6539 44.8633,2.9729 44.5223,3.1549 C44.1983,3.3529 43.8373,3.3889 43.4493,3.4139 C43.0543,3.4329 42.6573,3.4619 42.2743,3.6249 C41.8943,3.7879 41.4853,4.0659 41.2203,4.6399 C40.6083,6.0769 41.8823,4.9909 42.1293,5.3479" id="Fill-62"></path>
                        <path d="M45.618,4.9594 C45.681,4.8274 45.71,4.7014 45.724,4.5974 C45.67,4.7014 45.637,4.8194 45.618,4.9594" id="Fill-64"></path>
                        <path d="M30.6372,10.1293 C30.5292,9.9953 30.3742,9.8563 30.1562,9.6883 C29.8552,9.6743 30.2152,9.8103 30.6372,10.1293" id="Fill-66"></path>
                        <path d="M47.6663,3.1326 C47.6643,3.1276 47.6643,3.1276 47.6553,3.1216 C47.6563,3.1326 47.6503,3.1356 47.6483,3.1416 L47.6663,3.1326" id="Fill-68"></path>
                        <path d="M47.9535,0.938 L47.3235,1.158 L47.5675,1.447 L47.9535,0.938 Z" id="Fill-70"></path>
                        <path d="M25.8293,5.3318 L25.6493,5.7038 C25.7593,5.6118 25.8383,5.5048 25.8293,5.3318" id="Fill-72"></path>
                        <path d="M7.8612,6.1369 L8.2192,5.9989 C8.0872,5.9899 7.9652,6.0559 7.8612,6.1369" id="Fill-74"></path>
                        <path d="M9.9486,44.8312 C10.6856,45.7192 11.5896,46.9372 12.5706,47.3522 L12.1656,47.4742 C12.6196,47.9182 14.1226,49.3062 14.1836,47.8602 L13.7216,47.7642 C12.5216,46.7982 13.8506,46.5352 13.5756,45.4382 C12.8026,44.3512 11.0566,44.3772 10.8646,43.1532 C10.5946,42.7072 11.0056,42.5952 11.3506,42.5932 C10.9266,41.4912 9.6626,41.5912 9.1626,40.9202 C11.8546,39.3082 6.8396,37.9692 7.9906,35.5442 C7.3206,34.6252 7.0196,33.1702 5.9496,32.0712 C6.9476,32.4932 5.5396,30.8082 6.4846,30.7912 C5.5706,30.9172 5.3986,29.8992 5.2356,28.9162 C5.0546,27.9352 4.8706,26.9932 3.7356,27.1922 C3.8216,25.1782 3.5546,27.1522 3.5006,24.8852 C3.7506,24.8252 3.8456,25.1822 3.9286,25.3102 C4.1566,24.3672 2.6686,24.2322 3.5226,23.3072 C3.3596,21.5642 2.8566,23.1422 2.0556,22.2192 C2.0416,20.3302 2.4126,20.7952 3.2586,19.7142 C2.7086,19.6872 2.5366,19.3872 2.4286,18.9892 C2.3426,18.5892 2.3096,18.0982 2.0216,17.6482 C1.9666,17.8642 1.8006,19.1512 1.3556,18.3272 C1.5476,16.1032 0.5896,16.5422 0.6646,14.2482 C2.0486,13.4032 0.2996,16.4092 1.5826,14.7002 C1.7066,15.4082 1.8266,15.9892 1.9256,16.4892 C2.0756,16.9882 2.2676,17.4072 2.6976,17.7342 C2.7556,16.0722 2.8076,14.1432 3.1456,12.2492 C3.7706,11.4432 3.4066,12.9412 3.8776,12.3172 C4.2086,12.0192 4.3616,11.6962 4.5206,11.3922 C4.6536,11.0692 4.7356,10.7252 4.8656,10.4062 C4.9756,10.0712 5.1036,9.7352 5.3296,9.4842 C5.5436,9.2202 5.8156,8.9932 6.2156,8.9452 C6.2156,8.9452 6.2286,9.1152 6.2416,9.2862 C6.2596,9.4532 6.2776,9.6212 6.2776,9.6212 C6.3506,9.3452 6.5736,9.1152 6.8766,8.9122 C7.1976,8.7272 7.6106,8.5842 8.0426,8.4372 C8.4776,8.2942 8.9336,8.1402 9.3746,7.9742 C9.8206,7.8242 10.2436,7.6402 10.5996,7.3832 C10.2936,7.1652 10.0786,7.0202 10.2226,6.7452 C10.4886,7.4952 10.9506,7.0582 11.6496,6.5772 C12.3416,6.1012 13.2736,5.4612 14.2366,5.8492 C14.0636,5.3792 14.3556,4.9192 14.8456,4.5312 C15.3336,4.1492 16.0376,3.9162 16.5886,3.7852 C17.0076,4.0032 16.9566,4.4282 16.9776,4.6912 C15.1416,4.3332 15.4206,5.9602 14.2616,6.6992 C14.7386,6.3322 15.4536,6.1622 16.1556,6.0742 C16.5056,6.0172 16.8496,5.9542 17.1646,5.8532 C17.4796,5.7812 17.7666,5.6662 18.0016,5.4762 L17.6686,6.2692 C19.1246,6.3102 19.0066,4.4602 20.6186,5.3042 L20.4026,5.8522 C22.0036,5.9842 23.6416,6.6512 25.0526,7.4262 C26.4836,8.1982 27.7196,9.0332 29.1126,9.4482 C29.6296,9.2752 29.3086,7.5372 29.4556,7.1792 C28.6246,6.8112 27.9076,6.6492 27.2096,6.6162 C26.5326,6.5482 25.9026,6.5782 25.2666,6.5112 L25.6496,5.7042 C25.1256,6.0852 23.6386,5.9682 24.2196,6.6832 C23.1886,6.7972 23.7936,5.6592 22.5576,5.8782 C22.8576,4.9892 23.5806,5.0702 23.8216,4.3302 L22.6646,4.5072 C23.0726,4.2372 22.1006,4.0422 22.4966,3.7642 C21.3906,4.1632 20.7596,3.9162 20.0636,3.7162 C19.7196,3.6032 19.3676,3.4722 18.9686,3.3952 C18.5726,3.3342 18.1326,3.3612 17.6256,3.5072 L18.7696,3.6262 C18.7586,4.1472 18.1226,4.1182 17.6566,4.2912 C17.0646,3.5702 16.7456,3.7112 15.6676,3.5362 C14.8186,4.0402 14.5486,5.1052 13.4296,5.3292 C13.4226,4.2712 11.4456,5.3372 10.9756,4.6102 C11.0256,5.5862 8.9596,5.7292 9.0076,6.3052 C8.4996,6.7002 7.7166,6.9802 7.5036,6.4842 C7.5756,6.4222 7.7006,6.2572 7.8616,6.1372 L7.2826,6.3622 C7.2906,6.2332 7.2366,6.1642 7.2946,6.1192 C6.7756,6.3262 7.0746,6.9792 6.2216,6.8302 C6.1166,6.5922 6.4696,6.4372 6.7126,6.2122 C6.3536,6.3312 6.0796,6.5252 5.8116,6.7902 C5.5196,7.0832 5.2796,7.4052 5.0516,7.6972 C4.6126,8.3422 4.2376,8.8342 3.4386,9.0332 C3.4946,9.5232 2.4486,11.0542 3.5756,11.2982 C3.3086,11.3872 3.0156,11.2942 2.7216,11.3292 C2.4366,11.3662 2.1006,11.5342 1.9196,12.1882 C2.1666,12.7072 1.9696,12.9942 1.7526,13.3392 C1.5156,13.6722 1.2476,14.0572 1.4466,14.5902 C1.1176,13.8602 1.0606,13.8252 0.9976,13.8352 C0.9386,13.8352 0.8606,13.8802 0.6166,13.1622 C0.2796,13.5782 0.3776,14.2192 0.4786,14.9032 C0.6236,15.5882 0.7796,16.3162 0.6936,17.0662 C0.4786,17.2112 0.2146,17.2022 -0.0004,17.3612 C0.2826,17.9652 1.0576,18.5532 0.3346,19.1402 L0.9596,19.0342 C0.7046,20.0712 1.0616,21.4302 0.5856,22.6082 C0.5856,22.6082 0.9356,22.8622 1.2856,23.1172 C1.6356,23.3622 1.9856,23.6072 1.9856,23.6072 C1.0896,25.5082 2.8136,27.4182 4.2206,28.2842 C4.3526,28.8602 4.4236,29.7752 4.1726,29.8562 C4.0446,29.7542 3.8006,29.5892 3.5606,29.3762 C3.7816,30.2282 3.5246,31.4712 4.6136,31.5992 C5.2136,32.3382 4.2076,32.4562 4.2976,33.1462 C6.2246,34.3352 5.4046,38.5512 7.5936,38.1982 C7.2936,37.5142 7.1226,36.0582 6.5016,34.7902 C6.8796,35.0382 7.1526,34.6132 7.3976,35.0702 C8.0286,36.3262 7.6026,37.3062 8.5036,38.4522 L7.2006,38.8532 C6.9696,41.6812 10.8376,42.2712 9.9486,44.8312" id="Fill-76"></path>
                        <path d="M2.9304,27.9667 L2.7524,28.5677 C2.6704,28.8687 2.5884,29.1697 2.5884,29.1697 L3.1094,28.8847 C2.9154,28.6097 2.8194,28.2927 2.9304,27.9667" id="Fill-79"></path>
                        <path d="M3.1094,28.8845 C3.2364,29.0685 3.3954,29.2345 3.5604,29.3755 C3.5014,29.1565 3.4104,28.9565 3.2434,28.8145 L3.1094,28.8845 Z" id="Fill-81"></path>
                        <path d="M12.0404,48.3711 C12.0974,48.5981 12.2164,49.0411 12.5624,49.3651 C12.5654,49.0271 12.3274,48.4781 12.0404,48.3711" id="Fill-83"></path>
                        <path d="M12.9678,49.2368 L12.9088,48.6808 L12.7358,48.6888 L12.9678,49.2368 Z" id="Fill-85"></path>
                        <path d="M29.5422,74.2867 L31.1412,75.2007 C30.9542,75.6707 32.4092,76.9347 31.4772,76.8357 C32.8352,77.1017 33.2442,79.3957 33.9692,77.9467 C30.8462,74.2377 27.8942,68.2457 23.8902,64.1907 L24.8432,64.6517 C22.3562,62.7817 23.8022,60.6427 20.6982,59.8047 L21.8402,59.4797 C21.4302,58.1857 19.1182,58.1477 19.4542,56.3387 L19.1232,56.6957 C18.9392,56.3767 19.0452,56.1467 18.8612,55.8237 L18.7542,56.0567 C17.8672,55.4517 17.6202,54.9087 17.4202,53.9217 C17.7032,53.6817 17.7782,54.2317 18.0092,54.4397 C18.1152,53.8737 17.0612,53.6117 16.7072,52.9597 C16.6962,52.2937 17.1632,52.7107 17.3382,52.7027 C15.8022,51.0087 16.3752,49.5467 14.1262,48.9727 C13.7772,48.9847 13.8912,49.7607 13.3752,49.1117 C13.5992,50.6697 14.7752,51.3987 15.8302,52.3447 L15.6512,52.0167 C17.6192,52.1327 15.7172,52.9097 17.1912,54.0467 C16.3802,53.9887 16.0192,53.3367 15.5572,53.2517 C15.4392,55.6107 17.7982,55.2347 17.0532,57.1847 L16.9372,57.0797 C16.9512,57.4137 17.4832,57.7117 17.8382,58.0217 C17.9462,57.7897 17.8162,57.3537 17.8052,57.0167 C18.1622,57.3287 18.9072,57.1587 19.2522,57.1347 C18.8792,57.9427 19.9032,57.5277 19.9992,58.4107 C19.5642,59.0037 19.1212,58.1477 18.6532,58.0737 L19.5502,58.6717 C20.0402,59.4127 19.3612,59.8047 19.2762,60.3727 C20.1082,60.7477 19.3622,59.8057 20.2992,59.9527 C20.0622,61.2057 22.4032,64.5747 23.9992,65.8627 C23.5602,65.3437 23.2592,66.0497 22.9182,65.2987 C22.9452,65.6327 23.7992,66.3257 24.2432,66.0557 C25.3462,66.9467 25.9872,68.5507 26.2672,69.8647 L26.5112,69.2767 C27.8132,69.6847 27.4092,71.8647 28.8652,73.1367 L28.8502,73.0987 C29.2732,73.5367 30.6152,73.2637 31.0022,74.3207 C30.3122,74.4117 30.0282,73.8897 29.5422,74.2867" id="Fill-87"></path>
                        <path d="M34.1978,79.0361 L33.2578,78.9481 C33.4988,79.5901 34.7358,79.7451 35.0438,79.3621 C34.6648,79.0851 34.5978,78.4161 34.2058,78.5851 C34.1638,78.7071 33.9458,78.8481 34.1978,79.0361" id="Fill-89"></path>
                        <path d="M41.4413,89.1404 C41.7173,89.2394 41.9033,89.0294 42.1273,88.9944 C40.5123,86.9194 38.4033,84.4354 38.2673,83.2514 C37.9323,82.4024 36.9483,82.8974 36.1033,82.1254 L36.4163,81.2944 C35.6903,81.0644 35.3073,79.0974 34.6833,80.3124 C34.6383,80.4324 35.4483,80.4254 35.5673,80.9714 L35.1793,81.1384 L35.9733,82.0334 L35.3313,82.0194 C35.6473,83.7734 37.2583,82.0614 38.0033,83.9654 L37.1393,84.5534 C37.8583,85.6814 38.5403,86.0204 38.7063,87.3434 C38.7063,87.3434 39.1353,87.0494 38.8343,86.9884 C38.7503,86.7724 38.9233,86.2954 39.2673,86.2404 C41.1003,87.4044 38.5813,86.3514 39.0473,87.7404 C40.6263,88.7254 43.0243,91.0064 42.9133,92.2674 C42.9453,91.2454 44.1923,91.8144 44.7113,92.6144 C44.6753,93.1824 44.0323,92.7394 43.6913,92.8024 C43.8643,93.2254 43.8693,93.6724 44.2623,93.9394 C44.3743,93.1264 45.2363,92.9784 46.1263,93.5714 C45.3013,91.4024 42.6853,91.0654 41.4413,89.1404" id="Fill-91"></path>
                        <path d="M42.5533,89.1742 C42.3873,89.0042 42.2523,88.9732 42.1273,88.9942 C42.3163,89.2402 42.5053,89.4872 42.6813,89.7172 L42.5533,89.1742 Z" id="Fill-93"></path>
                    </g>
                </g>
            </g>
        </g>
    </g>
</svg>